<svg width="162" height="29" viewBox="0 0 162 29" fill="none" xmlns="http://www.w3.org/2000/svg">
<path d="M7.72726 0.0245954C6.83063 0.115663 6.35989 0.218609 5.87571 0.412624C4.4904 0.978828 3.81792 2.03997 3.62066 3.97219C3.58031 4.35626 3.58928 5.06896 3.67446 7.51987C3.78206 10.8339 3.77309 11.4754 3.5848 12.1247C3.25752 13.2532 2.47296 13.6966 0.666239 13.7679L0.0161765 13.7956L0.0027269 14.445C-0.00623948 14.8647 0.00721009 15.1102 0.0385924 15.1419C0.0744579 15.1814 0.280685 15.1973 0.814184 15.1973C1.24009 15.2012 1.66151 15.225 1.84083 15.2606C2.53573 15.3873 3.04681 15.7318 3.32925 16.2663C3.74171 17.0384 3.77309 17.7313 3.60721 21.774C3.53996 23.33 3.49962 24.7634 3.51306 24.9613C3.69239 27.2024 4.61145 28.3982 6.47197 28.8179C7.30136 29 7.23859 29 14.5641 29C20.9437 29 21.5265 28.996 21.9255 28.9327C23.1763 28.7308 24.0237 28.315 24.5796 27.6181C24.8396 27.2935 24.9741 27.0519 25.1355 26.6045C25.4852 25.6384 25.5121 24.9613 25.3552 21.1602C25.2341 18.3173 25.2431 17.6046 25.391 16.9632C25.6017 16.0644 26.0725 15.5497 26.8839 15.3161C27.135 15.2448 27.3233 15.225 28.0137 15.2092C28.471 15.2012 28.879 15.1775 28.9238 15.1577C28.991 15.1221 29 15.0508 29 14.4965C29 14.0609 28.9821 13.855 28.9462 13.8233C28.9103 13.7917 28.7355 13.7758 28.4665 13.7758C27.9823 13.7758 27.2516 13.6887 26.9153 13.5937C26.1128 13.3601 25.6421 12.9206 25.4179 12.192C25.2072 11.5071 25.1938 10.7746 25.3193 7.04474C25.4269 3.96823 25.391 3.38223 25.0279 2.41216C24.5258 1.0699 23.5619 0.36115 21.8941 0.0958659C21.3427 0.00875752 20.0605 -0.0308372 19.9664 0.0364738C19.8767 0.0998253 19.8677 1.13325 19.9574 1.23223C19.9978 1.28371 20.1412 1.29954 20.6613 1.31538C21.4369 1.33914 21.8583 1.41833 22.3469 1.62026C22.988 1.89347 23.4184 2.41612 23.6157 3.16446C23.804 3.86924 23.8085 4.20184 23.7009 7.50404C23.5798 11.2616 23.6022 11.6892 23.9788 12.6593C24.1447 13.0948 24.3464 13.3838 24.7051 13.7046C24.9472 13.9184 25.0907 14.0094 25.4762 14.1718C25.7362 14.2826 25.9514 14.3896 25.9514 14.4054C25.9514 14.4608 25.8528 14.5163 25.5479 14.6232C24.741 14.9122 24.203 15.4388 23.9385 16.207C23.6426 17.0622 23.6067 18.1035 23.7726 21.4374C23.8443 22.8826 23.8757 23.8764 23.8533 23.9715L23.8174 24.1299L14.5238 24.1417C7.68691 24.1457 5.21219 24.1378 5.16736 24.1061C5.08218 24.0427 5.08666 23.8012 5.22116 21.1009C5.34669 18.6301 5.34669 17.6522 5.21668 16.9236C5.00148 15.6685 4.51282 15.0468 3.41443 14.6232C2.9437 14.445 2.93473 14.3777 3.36512 14.2351C3.48168 14.1995 3.69239 14.1005 3.83585 14.0174C4.75491 13.4908 5.18978 12.6395 5.32876 11.1032C5.36911 10.6518 5.36014 10.0223 5.28392 7.69805C5.23013 6.1301 5.19426 4.58986 5.21219 4.27311C5.27496 2.81206 5.70086 2.02809 6.64681 1.62026C7.11307 1.41833 7.52104 1.3431 8.35491 1.31142L9.02739 1.28371L9.0498 0.717503C9.06325 0.404705 9.05877 0.115663 9.04084 0.072109C9.00946 0.00479805 8.96462 -0.00312089 8.43561 0.000838581C8.12178 0.00479805 7.80348 0.0166765 7.72726 0.0245954ZM15.1738 25.3494C15.6356 25.5553 15.8956 25.8483 16.0256 26.2878C16.3036 27.246 15.3577 28.1448 14.2324 27.9864C14.0889 27.9626 13.8872 27.9111 13.7885 27.8676C13.5151 27.7409 13.1878 27.4518 13.0533 27.2024C12.9412 27.0084 12.9278 26.9371 12.9278 26.6045C12.9322 26.2759 12.9457 26.2046 13.0533 26.0225C13.273 25.6463 13.6002 25.389 14.0037 25.2702C14.1113 25.2385 14.331 25.2227 14.5641 25.2306C14.869 25.2425 14.99 25.2662 15.1738 25.3494Z" fill="#8293EE"/>
<path d="M10.8028 7.90394L10.7131 7.97521L10.7983 8.56913C10.8431 8.89381 10.9238 9.47585 10.9776 9.85596C11.1973 11.4873 11.2511 11.8595 11.2691 11.907C11.287 11.9545 11.5649 11.8199 11.7891 11.6536C11.8653 11.5942 11.8832 11.7763 11.5605 9.62235C11.4842 9.11158 11.4349 8.68792 11.4439 8.67604C11.4573 8.66812 11.6546 8.74335 11.8832 8.84629C12.8964 9.30559 13.8065 9.72134 14.1428 9.87972L14.5059 10.0539L14.8063 9.88368C15.0394 9.75301 15.0932 9.70154 15.0484 9.66986C15.017 9.64611 14.2235 9.2858 13.2865 8.86609C12.3495 8.44639 11.4573 8.04252 11.3049 7.97125C10.9911 7.81683 10.9328 7.80891 10.8028 7.90394Z" fill="#8293EE"/>
<path d="M14.6135 12.8889C12.3585 13.2889 10.5069 13.6254 10.4935 13.6373C10.48 13.6452 10.5562 13.7719 10.6638 13.9144C10.8163 14.1243 10.8701 14.1679 10.9508 14.152C11.0001 14.1401 12.883 13.8115 15.1246 13.4195C17.3707 13.0275 19.2178 12.6989 19.2402 12.6949C19.3074 12.6791 18.8681 12.1525 18.7874 12.1564C18.747 12.1604 16.8686 12.489 14.6135 12.8889Z" fill="#8293EE"/>
<path d="M18.2941 14.536L18.0072 14.7023L18.0341 14.9201C18.1014 15.4507 18.2897 17.6324 18.2762 17.6957C18.2628 17.7749 18.3614 17.8224 16.3036 16.7494L15.3711 16.2663L15.1021 16.4128C14.9497 16.496 14.8197 16.5752 14.8062 16.591C14.7973 16.6068 15.676 17.0661 16.7609 17.6126C18.7066 18.5905 18.738 18.6064 18.8456 18.543C18.9801 18.4638 18.9801 18.5707 18.8456 16.983C18.7828 16.2743 18.7111 15.4111 18.6842 15.0627C18.6573 14.7142 18.6214 14.4173 18.6035 14.4014C18.59 14.3856 18.4466 14.445 18.2941 14.536Z" fill="#8293EE"/>
<path d="M55.7383 16.6836L59.1016 17.75C58.5859 19.625 57.7266 21.0195 56.5234 21.9336C55.3281 22.8398 53.8086 23.293 51.9648 23.293C49.6836 23.293 47.8086 22.5156 46.3398 20.9609C44.8711 19.3984 44.1367 17.2656 44.1367 14.5625C44.1367 11.7031 44.875 9.48438 46.3516 7.90625C47.8281 6.32031 49.7695 5.52734 52.1758 5.52734C54.2773 5.52734 55.9844 6.14844 57.2969 7.39062C58.0781 8.125 58.6641 9.17969 59.0547 10.5547L55.6211 11.375C55.418 10.4844 54.9922 9.78125 54.3438 9.26562C53.7031 8.75 52.9219 8.49219 52 8.49219C50.7266 8.49219 49.6914 8.94922 48.8945 9.86328C48.1055 10.7773 47.7109 12.2578 47.7109 14.3047C47.7109 16.4766 48.1016 18.0234 48.8828 18.9453C49.6641 19.8672 50.6797 20.3281 51.9297 20.3281C52.8516 20.3281 53.6445 20.0352 54.3086 19.4492C54.9727 18.8633 55.4492 17.9414 55.7383 16.6836ZM61.3047 16.6016C61.3047 15.5078 61.5742 14.4492 62.1133 13.4258C62.6523 12.4023 63.4141 11.6211 64.3984 11.082C65.3906 10.543 66.4961 10.2734 67.7148 10.2734C69.5977 10.2734 71.1406 10.8867 72.3438 12.1133C73.5469 13.332 74.1484 14.875 74.1484 16.7422C74.1484 18.625 73.5391 20.1875 72.3203 21.4297C71.1094 22.6641 69.582 23.2812 67.7383 23.2812C66.5977 23.2812 65.5078 23.0234 64.4688 22.5078C63.4375 21.9922 62.6523 21.2383 62.1133 20.2461C61.5742 19.2461 61.3047 18.0312 61.3047 16.6016ZM64.6797 16.7773C64.6797 18.0117 64.9727 18.957 65.5586 19.6133C66.1445 20.2695 66.8672 20.5977 67.7266 20.5977C68.5859 20.5977 69.3047 20.2695 69.8828 19.6133C70.4688 18.957 70.7617 18.0039 70.7617 16.7539C70.7617 15.5352 70.4688 14.5977 69.8828 13.9414C69.3047 13.2852 68.5859 12.957 67.7266 12.957C66.8672 12.957 66.1445 13.2852 65.5586 13.9414C64.9727 14.5977 64.6797 15.543 64.6797 16.7773ZM88.1523 23H85.0938V21.1719C84.5859 21.8828 83.9844 22.4141 83.2891 22.7656C82.6016 23.1094 81.9062 23.2812 81.2031 23.2812C79.7734 23.2812 78.5469 22.707 77.5234 21.5586C76.5078 20.4023 76 18.793 76 16.7305C76 14.6211 76.4961 13.0195 77.4883 11.9258C78.4805 10.8242 79.7344 10.2734 81.25 10.2734C82.6406 10.2734 83.8438 10.8516 84.8594 12.0078V5.82031H88.1523V23ZM79.3633 16.5078C79.3633 17.8359 79.5469 18.7969 79.9141 19.3906C80.4453 20.25 81.1875 20.6797 82.1406 20.6797C82.8984 20.6797 83.543 20.3594 84.0742 19.7188C84.6055 19.0703 84.8711 18.1055 84.8711 16.8242C84.8711 15.3945 84.6133 14.3672 84.0977 13.7422C83.582 13.1094 82.9219 12.793 82.1172 12.793C81.3359 12.793 80.6797 13.1055 80.1484 13.7305C79.625 14.3477 79.3633 15.2734 79.3633 16.5078ZM98.6172 19.0391L101.898 19.5898C101.477 20.793 100.809 21.7109 99.8945 22.3438C98.9883 22.9688 97.8516 23.2812 96.4844 23.2812C94.3203 23.2812 92.7188 22.5742 91.6797 21.1602C90.8594 20.0273 90.4492 18.5977 90.4492 16.8711C90.4492 14.8086 90.9883 13.1953 92.0664 12.0312C93.1445 10.8594 94.5078 10.2734 96.1562 10.2734C98.0078 10.2734 99.4688 10.8867 100.539 12.1133C101.609 13.332 102.121 15.2031 102.074 17.7266H93.8242C93.8477 18.7031 94.1133 19.4648 94.6211 20.0117C95.1289 20.5508 95.7617 20.8203 96.5195 20.8203C97.0352 20.8203 97.4688 20.6797 97.8203 20.3984C98.1719 20.1172 98.4375 19.6641 98.6172 19.0391ZM98.8047 15.7109C98.7812 14.7578 98.5352 14.0352 98.0664 13.543C97.5977 13.043 97.0273 12.793 96.3555 12.793C95.6367 12.793 95.043 13.0547 94.5742 13.5781C94.1055 14.1016 93.875 14.8125 93.8828 15.7109H98.8047ZM122.465 16.6836L125.828 17.75C125.312 19.625 124.453 21.0195 123.25 21.9336C122.055 22.8398 120.535 23.293 118.691 23.293C116.41 23.293 114.535 22.5156 113.066 20.9609C111.598 19.3984 110.863 17.2656 110.863 14.5625C110.863 11.7031 111.602 9.48438 113.078 7.90625C114.555 6.32031 116.496 5.52734 118.902 5.52734C121.004 5.52734 122.711 6.14844 124.023 7.39062C124.805 8.125 125.391 9.17969 125.781 10.5547L122.348 11.375C122.145 10.4844 121.719 9.78125 121.07 9.26562C120.43 8.75 119.648 8.49219 118.727 8.49219C117.453 8.49219 116.418 8.94922 115.621 9.86328C114.832 10.7773 114.438 12.2578 114.438 14.3047C114.438 16.4766 114.828 18.0234 115.609 18.9453C116.391 19.8672 117.406 20.3281 118.656 20.3281C119.578 20.3281 120.371 20.0352 121.035 19.4492C121.699 18.8633 122.176 17.9414 122.465 16.6836ZM131.254 14.3516L128.266 13.8125C128.602 12.6094 129.18 11.7188 130 11.1406C130.82 10.5625 132.039 10.2734 133.656 10.2734C135.125 10.2734 136.219 10.4492 136.938 10.8008C137.656 11.1445 138.16 11.5859 138.449 12.125C138.746 12.6562 138.895 13.6367 138.895 15.0664L138.859 18.9102C138.859 20.0039 138.91 20.8125 139.012 21.3359C139.121 21.8516 139.32 22.4062 139.609 23H136.352C136.266 22.7812 136.16 22.457 136.035 22.0273C135.98 21.832 135.941 21.7031 135.918 21.6406C135.355 22.1875 134.754 22.5977 134.113 22.8711C133.473 23.1445 132.789 23.2812 132.062 23.2812C130.781 23.2812 129.77 22.9336 129.027 22.2383C128.293 21.543 127.926 20.6641 127.926 19.6016C127.926 18.8984 128.094 18.2734 128.43 17.7266C128.766 17.1719 129.234 16.75 129.836 16.4609C130.445 16.1641 131.32 15.9062 132.461 15.6875C134 15.3984 135.066 15.1289 135.66 14.8789V14.5508C135.66 13.918 135.504 13.4688 135.191 13.2031C134.879 12.9297 134.289 12.793 133.422 12.793C132.836 12.793 132.379 12.9102 132.051 13.1445C131.723 13.3711 131.457 13.7734 131.254 14.3516ZM135.66 17.0234C135.238 17.1641 134.57 17.332 133.656 17.5273C132.742 17.7227 132.145 17.9141 131.863 18.1016C131.434 18.4062 131.219 18.793 131.219 19.2617C131.219 19.7227 131.391 20.1211 131.734 20.457C132.078 20.793 132.516 20.9609 133.047 20.9609C133.641 20.9609 134.207 20.7656 134.746 20.375C135.145 20.0781 135.406 19.7148 135.531 19.2852C135.617 19.0039 135.66 18.4688 135.66 17.6797V17.0234ZM141.906 10.5547H144.941V12.2539C146.027 10.9336 147.32 10.2734 148.82 10.2734C149.617 10.2734 150.309 10.4375 150.895 10.7656C151.48 11.0938 151.961 11.5898 152.336 12.2539C152.883 11.5898 153.473 11.0938 154.105 10.7656C154.738 10.4375 155.414 10.2734 156.133 10.2734C157.047 10.2734 157.82 10.4609 158.453 10.8359C159.086 11.2031 159.559 11.7461 159.871 12.4648C160.098 12.9961 160.211 13.8555 160.211 15.043V23H156.918V15.8867C156.918 14.6523 156.805 13.8555 156.578 13.4961C156.273 13.0273 155.805 12.793 155.172 12.793C154.711 12.793 154.277 12.9336 153.871 13.2148C153.465 13.4961 153.172 13.9102 152.992 14.457C152.812 14.9961 152.723 15.8516 152.723 17.0234V23H149.43V16.1797C149.43 14.9688 149.371 14.1875 149.254 13.8359C149.137 13.4844 148.953 13.2227 148.703 13.0508C148.461 12.8789 148.129 12.793 147.707 12.793C147.199 12.793 146.742 12.9297 146.336 13.2031C145.93 13.4766 145.637 13.8711 145.457 14.3867C145.285 14.9023 145.199 15.7578 145.199 16.9531V23H141.906V10.5547Z" fill="#8293EE"/>
</svg>
