<svg width="422" height="196" viewBox="0 0 422 196" fill="none" xmlns="http://www.w3.org/2000/svg">
<path d="M185.31 10.1145C181.909 10.5384 180.124 11.0177 178.287 11.9208C173.033 14.5566 170.482 19.4964 169.734 28.4912C169.58 30.2791 169.615 33.5969 169.938 45.0063C170.346 60.4339 170.312 63.4199 169.598 66.4427C168.356 71.6959 165.38 73.7602 158.527 74.092L156.061 74.221L156.01 77.2439C155.976 79.1977 156.027 80.3405 156.146 80.4879C156.282 80.6723 157.065 80.746 159.088 80.746C160.704 80.7644 162.302 80.875 162.982 81.0409C165.618 81.6307 167.557 83.2343 168.628 85.7226C170.193 89.3169 170.312 92.5425 169.683 111.362C169.427 118.605 169.274 125.278 169.325 126.199C170.006 136.632 173.492 142.198 180.549 144.152C183.695 145 183.457 145 211.243 145C235.442 145 237.652 144.982 239.166 144.687C243.91 143.747 247.124 141.811 249.233 138.567C250.219 137.056 250.729 135.931 251.342 133.849C252.668 129.351 252.77 126.199 252.175 108.505C251.716 95.2704 251.75 91.9526 252.311 88.9667C253.11 84.7826 254.896 82.3864 257.974 81.2989C258.926 80.9672 259.64 80.875 262.259 80.8013C263.993 80.7644 265.541 80.6538 265.711 80.5617C265.966 80.3958 266 80.064 266 77.4835C266 75.456 265.932 74.4975 265.796 74.3501C265.66 74.2026 264.997 74.1289 263.976 74.1289C262.14 74.1289 259.368 73.7234 258.093 73.281C255.049 72.1935 253.263 70.1476 252.413 66.7561C251.614 63.5673 251.563 60.1574 252.039 42.7945C252.447 28.4728 252.311 25.7448 250.933 21.229C249.029 14.9805 245.373 11.6812 239.047 10.4463C236.955 10.0408 232.092 9.85643 231.735 10.1698C231.394 10.4647 231.36 15.2754 231.701 15.7362C231.854 15.9759 232.398 16.0496 234.37 16.1233C237.312 16.2339 238.911 16.6026 240.764 17.5426C243.196 18.8144 244.829 21.2474 245.577 24.7311C246.291 28.012 246.308 29.5603 245.9 44.9326C245.441 62.4246 245.526 64.4152 246.954 68.9311C247.583 70.9586 248.349 72.3041 249.709 73.7971C250.627 74.7924 251.171 75.2164 252.634 75.9721C253.62 76.4882 254.436 76.9858 254.436 77.0596C254.436 77.3176 254.062 77.5757 252.906 78.0733C249.845 79.4189 247.804 81.8703 246.801 85.4461C245.679 89.4275 245.543 94.2751 246.172 109.795C246.444 116.523 246.563 121.149 246.478 121.591L246.342 122.329L211.09 122.384C185.157 122.402 175.77 122.365 175.6 122.218C175.277 121.923 175.294 120.799 175.804 108.228C176.281 96.7265 176.281 92.1738 175.787 88.7823C174.971 82.9394 173.118 80.0456 168.951 78.0733C167.166 77.2439 167.132 76.9306 168.764 76.267C169.206 76.1011 170.006 75.6403 170.55 75.2532C174.036 72.8018 175.685 68.8389 176.213 61.6873C176.366 59.586 176.332 56.6553 176.042 45.8357C175.838 38.5367 175.702 31.3666 175.77 29.892C176.008 23.0906 177.624 19.4411 181.212 17.5426C182.981 16.6026 184.528 16.2523 187.691 16.1049L190.242 15.9759L190.327 13.3401C190.378 11.884 190.361 10.5384 190.293 10.3357C190.174 10.0223 190.004 9.98546 187.997 10.0039C186.807 10.0223 185.599 10.0776 185.31 10.1145ZM213.556 128.006C215.307 128.964 216.294 130.328 216.787 132.374C217.841 136.835 214.253 141.019 209.985 140.281C209.441 140.171 208.675 139.931 208.301 139.728C207.264 139.139 206.023 137.793 205.512 136.632C205.087 135.729 205.036 135.397 205.036 133.849C205.053 132.319 205.104 131.987 205.512 131.139C206.346 129.388 207.587 128.19 209.118 127.637C209.526 127.49 210.359 127.416 211.243 127.453C212.4 127.508 212.859 127.619 213.556 128.006Z" fill="#8293EE"/>
<path d="M196.976 46.7941L196.636 47.1259L196.959 49.8907C197.129 51.4021 197.435 54.1116 197.639 55.8811C198.472 63.4751 198.676 65.2077 198.744 65.4289C198.812 65.6501 199.867 65.0234 200.717 64.2493C201.006 63.9728 201.074 64.8206 199.85 54.7936C199.561 52.4159 199.374 50.4437 199.408 50.3884C199.459 50.3515 200.207 50.7017 201.074 51.181C204.917 53.3191 208.369 55.2544 209.645 55.9917L211.022 56.8027L212.161 56.0101C213.046 55.4019 213.25 55.1623 213.08 55.0148C212.961 54.9042 209.951 53.2269 206.397 51.2731C202.843 49.3193 199.459 47.4393 198.88 47.1075C197.69 46.3886 197.469 46.3518 196.976 46.7941Z" fill="#8293EE"/>
<path d="M211.43 70.0001C202.877 71.8618 195.854 73.4285 195.803 73.4838C195.752 73.5206 196.041 74.1105 196.449 74.774C197.027 75.7509 197.231 75.9537 197.537 75.8799C197.724 75.8246 204.866 74.2948 213.369 72.47C221.889 70.6452 228.895 69.1154 228.98 69.097C229.235 69.0232 227.568 66.5718 227.262 66.5902C227.109 66.6086 219.984 68.1385 211.43 70.0001Z" fill="#8293EE"/>
<path d="M225.392 77.6679L224.303 78.4421L224.405 79.4558C224.66 81.9257 225.374 92.0818 225.323 92.3767C225.272 92.7453 225.647 92.9665 217.841 87.9714L214.304 85.7227L213.284 86.4047C212.706 86.7918 212.212 87.1604 212.161 87.2341C212.127 87.3079 215.46 89.446 219.576 91.9896C226.956 96.5423 227.075 96.616 227.483 96.3211C227.993 95.9525 227.993 96.4502 227.483 89.0589C227.245 85.7596 226.973 81.7414 226.871 80.1194C226.769 78.4974 226.633 77.115 226.565 77.0412C226.514 76.9675 225.97 77.244 225.392 77.6679Z" fill="#8293EE"/>
<path d="M149.576 178.965L152.986 179.826C152.271 182.627 150.982 184.766 149.119 186.242C147.268 187.707 145 188.439 142.316 188.439C139.539 188.439 137.277 187.877 135.531 186.752C133.797 185.615 132.473 183.975 131.559 181.83C130.656 179.686 130.205 177.383 130.205 174.922C130.205 172.238 130.715 169.9 131.734 167.908C132.766 165.904 134.225 164.387 136.111 163.355C138.01 162.312 140.096 161.791 142.369 161.791C144.947 161.791 147.115 162.447 148.873 163.76C150.631 165.072 151.855 166.918 152.547 169.297L149.189 170.088C148.592 168.213 147.725 166.848 146.588 165.992C145.451 165.137 144.021 164.709 142.299 164.709C140.318 164.709 138.66 165.184 137.324 166.133C136 167.082 135.068 168.359 134.529 169.965C133.99 171.559 133.721 173.205 133.721 174.904C133.721 177.096 134.037 179.012 134.67 180.652C135.314 182.281 136.311 183.5 137.658 184.309C139.006 185.117 140.465 185.521 142.035 185.521C143.945 185.521 145.562 184.971 146.887 183.869C148.211 182.768 149.107 181.133 149.576 178.965ZM155.623 178.666C155.623 175.209 156.584 172.648 158.506 170.984C160.111 169.602 162.068 168.91 164.377 168.91C166.943 168.91 169.041 169.754 170.67 171.441C172.299 173.117 173.113 175.438 173.113 178.402C173.113 180.805 172.75 182.697 172.023 184.08C171.309 185.451 170.26 186.518 168.877 187.279C167.506 188.041 166.006 188.422 164.377 188.422C161.764 188.422 159.648 187.584 158.031 185.908C156.426 184.232 155.623 181.818 155.623 178.666ZM158.875 178.666C158.875 181.057 159.396 182.85 160.439 184.045C161.482 185.229 162.795 185.82 164.377 185.82C165.947 185.82 167.254 185.223 168.297 184.027C169.34 182.832 169.861 181.01 169.861 178.561C169.861 176.252 169.334 174.506 168.279 173.322C167.236 172.127 165.936 171.529 164.377 171.529C162.795 171.529 161.482 172.121 160.439 173.305C159.396 174.488 158.875 176.275 158.875 178.666ZM188.951 188V185.645C187.768 187.496 186.027 188.422 183.73 188.422C182.242 188.422 180.871 188.012 179.617 187.191C178.375 186.371 177.408 185.229 176.717 183.764C176.037 182.287 175.697 180.594 175.697 178.684C175.697 176.82 176.008 175.133 176.629 173.621C177.25 172.098 178.182 170.932 179.424 170.123C180.666 169.314 182.055 168.91 183.59 168.91C184.715 168.91 185.717 169.15 186.596 169.631C187.475 170.1 188.189 170.715 188.74 171.477V162.23H191.887V188H188.951ZM178.949 178.684C178.949 181.074 179.453 182.861 180.461 184.045C181.469 185.229 182.658 185.82 184.029 185.82C185.412 185.82 186.584 185.258 187.545 184.133C188.518 182.996 189.004 181.268 189.004 178.947C189.004 176.393 188.512 174.518 187.527 173.322C186.543 172.127 185.33 171.529 183.889 171.529C182.482 171.529 181.305 172.104 180.355 173.252C179.418 174.4 178.949 176.211 178.949 178.684ZM209.658 181.988L212.928 182.393C212.412 184.303 211.457 185.785 210.062 186.84C208.668 187.895 206.887 188.422 204.719 188.422C201.988 188.422 199.82 187.584 198.215 185.908C196.621 184.221 195.824 181.859 195.824 178.824C195.824 175.684 196.633 173.246 198.25 171.512C199.867 169.777 201.965 168.91 204.543 168.91C207.039 168.91 209.078 169.76 210.66 171.459C212.242 173.158 213.033 175.549 213.033 178.631C213.033 178.818 213.027 179.1 213.016 179.475H199.094C199.211 181.525 199.791 183.096 200.834 184.186C201.877 185.275 203.178 185.82 204.736 185.82C205.896 185.82 206.887 185.516 207.707 184.906C208.527 184.297 209.178 183.324 209.658 181.988ZM199.27 176.873H209.693C209.553 175.303 209.154 174.125 208.498 173.34C207.49 172.121 206.184 171.512 204.578 171.512C203.125 171.512 201.9 171.998 200.904 172.971C199.92 173.943 199.375 175.244 199.27 176.873ZM235.709 178.965L239.119 179.826C238.404 182.627 237.115 184.766 235.252 186.242C233.4 187.707 231.133 188.439 228.449 188.439C225.672 188.439 223.41 187.877 221.664 186.752C219.93 185.615 218.605 183.975 217.691 181.83C216.789 179.686 216.338 177.383 216.338 174.922C216.338 172.238 216.848 169.9 217.867 167.908C218.898 165.904 220.357 164.387 222.244 163.355C224.143 162.312 226.229 161.791 228.502 161.791C231.08 161.791 233.248 162.447 235.006 163.76C236.764 165.072 237.988 166.918 238.68 169.297L235.322 170.088C234.725 168.213 233.857 166.848 232.721 165.992C231.584 165.137 230.154 164.709 228.432 164.709C226.451 164.709 224.793 165.184 223.457 166.133C222.133 167.082 221.201 168.359 220.662 169.965C220.123 171.559 219.854 173.205 219.854 174.904C219.854 177.096 220.17 179.012 220.803 180.652C221.447 182.281 222.443 183.5 223.791 184.309C225.139 185.117 226.598 185.521 228.168 185.521C230.078 185.521 231.695 184.971 233.02 183.869C234.344 182.768 235.24 181.133 235.709 178.965ZM255.115 185.697C253.943 186.693 252.812 187.396 251.723 187.807C250.645 188.217 249.484 188.422 248.242 188.422C246.191 188.422 244.615 187.924 243.514 186.928C242.412 185.92 241.861 184.637 241.861 183.078C241.861 182.164 242.066 181.332 242.477 180.582C242.898 179.82 243.443 179.211 244.111 178.754C244.791 178.297 245.553 177.951 246.396 177.717C247.018 177.553 247.955 177.395 249.209 177.242C251.764 176.938 253.645 176.574 254.852 176.152C254.863 175.719 254.869 175.443 254.869 175.326C254.869 174.037 254.57 173.129 253.973 172.602C253.164 171.887 251.963 171.529 250.369 171.529C248.881 171.529 247.779 171.793 247.064 172.32C246.361 172.836 245.84 173.756 245.5 175.08L242.406 174.658C242.688 173.334 243.15 172.268 243.795 171.459C244.439 170.639 245.371 170.012 246.59 169.578C247.809 169.133 249.221 168.91 250.826 168.91C252.42 168.91 253.715 169.098 254.711 169.473C255.707 169.848 256.439 170.322 256.908 170.896C257.377 171.459 257.705 172.174 257.893 173.041C257.998 173.58 258.051 174.553 258.051 175.959V180.178C258.051 183.119 258.115 184.982 258.244 185.768C258.385 186.541 258.654 187.285 259.053 188H255.748C255.42 187.344 255.209 186.576 255.115 185.697ZM254.852 178.631C253.703 179.1 251.98 179.498 249.684 179.826C248.383 180.014 247.463 180.225 246.924 180.459C246.385 180.693 245.969 181.039 245.676 181.496C245.383 181.941 245.236 182.439 245.236 182.99C245.236 183.834 245.553 184.537 246.186 185.1C246.83 185.662 247.768 185.943 248.998 185.943C250.217 185.943 251.301 185.68 252.25 185.152C253.199 184.613 253.896 183.881 254.342 182.955C254.682 182.24 254.852 181.186 254.852 179.791V178.631ZM262.973 188V169.332H265.803V171.951C266.389 171.037 267.168 170.305 268.141 169.754C269.113 169.191 270.221 168.91 271.463 168.91C272.846 168.91 273.977 169.197 274.855 169.771C275.746 170.346 276.373 171.148 276.736 172.18C278.213 170 280.135 168.91 282.502 168.91C284.354 168.91 285.777 169.426 286.773 170.457C287.77 171.477 288.268 173.053 288.268 175.186V188H285.121V176.24C285.121 174.975 285.016 174.066 284.805 173.516C284.605 172.953 284.236 172.502 283.697 172.162C283.158 171.822 282.525 171.652 281.799 171.652C280.486 171.652 279.396 172.092 278.529 172.971C277.662 173.838 277.229 175.232 277.229 177.154V188H274.064V175.871C274.064 174.465 273.807 173.41 273.291 172.707C272.775 172.004 271.932 171.652 270.76 171.652C269.869 171.652 269.043 171.887 268.281 172.355C267.531 172.824 266.986 173.51 266.646 174.412C266.307 175.314 266.137 176.615 266.137 178.314V188H262.973Z" fill="#8293EE"/>
</svg>
