<svg width="38" height="39" viewBox="0 0 38 39" fill="none" xmlns="http://www.w3.org/2000/svg">
<path d="M16.7487 30.7326H20.4706V27.0106H16.7487V30.7326ZM18.6096 0.957153C8.33711 0.957153 0 9.29427 0 19.5668C0 29.8393 8.33711 38.1764 18.6096 38.1764C28.8821 38.1764 37.2192 29.8393 37.2192 19.5668C37.2192 9.29427 28.8821 0.957153 18.6096 0.957153ZM18.6096 34.4545C10.4028 34.4545 3.72193 27.7736 3.72193 19.5668C3.72193 11.3599 10.4028 4.67908 18.6096 4.67908C26.8165 4.67908 33.4973 11.3599 33.4973 19.5668C33.4973 27.7736 26.8165 34.4545 18.6096 34.4545ZM18.6096 8.401C14.4969 8.401 11.1658 11.7321 11.1658 15.8449H14.8877C14.8877 13.7978 16.5626 12.1229 18.6096 12.1229C20.6567 12.1229 22.3316 13.7978 22.3316 15.8449C22.3316 19.5668 16.7487 19.1015 16.7487 25.1497H20.4706C20.4706 20.9625 26.0535 20.4973 26.0535 15.8449C26.0535 11.7321 22.7224 8.401 18.6096 8.401Z" fill="#8293EE"/>
</svg>
