<svg width="80" height="80" viewBox="0 0 80 80" fill="none" xmlns="http://www.w3.org/2000/svg">
<rect x="1.5" y="1.5" width="77" height="77" rx="38.5" fill="#3F3F3F"/>
<path d="M33.76 36.4L45.208 16.576C43.528 16.216 41.8 16 40 16C34.24 16 28.96 18.04 24.832 21.4L33.616 36.64L33.76 36.4ZM62.896 32.8C60.688 25.792 55.336 20.176 48.496 17.584L39.712 32.8H62.896ZM63.52 35.2H45.544L46.24 36.4L57.664 56.2C61.6 51.928 64 46.264 64 40C64 38.344 63.832 36.76 63.52 35.2ZM31.696 40L22.336 23.8C18.424 28.072 16 33.736 16 40C16 41.656 16.168 43.24 16.48 44.8H34.456L31.696 40ZM17.104 47.2C19.312 54.208 24.664 59.824 31.504 62.416L40.288 47.2H17.104ZM44.152 47.2L34.792 63.424C36.472 63.784 38.2 64 40 64C45.76 64 51.04 61.96 55.168 58.6L46.384 43.36L44.152 47.2Z" fill="white"/>
<rect x="16.5" y="16.5" width="47" height="47" rx="23.5" stroke="white"/>
<rect x="1.5" y="1.5" width="77" height="77" rx="38.5" stroke="black" stroke-width="3"/>
</svg>
