<svg width="34" height="34" viewBox="0 0 34 34" fill="none" xmlns="http://www.w3.org/2000/svg">
<g clip-path="url(#clip0_203_211)">
<path d="M9.91663 7.08329H24.0833V9.91663H26.9166V4.24996C26.9166 2.69163 25.6416 1.43079 24.0833 1.43079L9.91663 1.41663C8.35829 1.41663 7.08329 2.69163 7.08329 4.24996V9.91663H9.91663V7.08329ZM21.8308 23.5025L28.3333 17L21.8308 10.4975L19.8333 12.5091L24.3241 17L19.8333 21.4908L21.8308 23.5025ZM14.1666 21.4908L9.67579 17L14.1666 12.5091L12.1691 10.4975L5.66663 17L12.1691 23.5025L14.1666 21.4908ZM24.0833 26.9166H9.91663V24.0833H7.08329V29.75C7.08329 31.3083 8.35829 32.5833 9.91663 32.5833H24.0833C25.6416 32.5833 26.9166 31.3083 26.9166 29.75V24.0833H24.0833V26.9166Z" fill="#FCFCFC"/>
</g>
<defs>
<clipPath id="clip0_203_211">
<rect width="34" height="34" fill="white"/>
</clipPath>
</defs>
</svg>
