<svg width="28" height="28" viewBox="0 0 28 28" fill="none" xmlns="http://www.w3.org/2000/svg">
<path d="M18.5 9.5H9.5V18.5H18.5V9.5ZM15.5 15.5H12.5V12.5H15.5V15.5ZM27.5 12.5V9.5H24.5V6.5C24.5 4.85 23.15 3.5 21.5 3.5H18.5V0.5H15.5V3.5H12.5V0.5H9.5V3.5H6.5C4.85 3.5 3.5 4.85 3.5 6.5V9.5H0.5V12.5H3.5V15.5H0.5V18.5H3.5V21.5C3.5 23.15 4.85 24.5 6.5 24.5H9.5V27.5H12.5V24.5H15.5V27.5H18.5V24.5H21.5C23.15 24.5 24.5 23.15 24.5 21.5V18.5H27.5V15.5H24.5V12.5H27.5ZM21.5 21.5H6.5V6.5H21.5V21.5Z" fill="#FCFCFC"/>
</svg>
