<svg width="34" height="39" viewBox="0 0 34 39" fill="none" xmlns="http://www.w3.org/2000/svg">
<path d="M27.9144 27.1596C26.5001 27.1596 25.2347 27.7179 24.267 28.5926L10.9983 20.8696C11.0913 20.4416 11.1658 20.0135 11.1658 19.5669C11.1658 19.1203 11.0913 18.6922 10.9983 18.2642L24.1181 10.6157C25.123 11.5462 26.4443 12.1231 27.9144 12.1231C31.0036 12.1231 33.4973 9.62936 33.4973 6.54016C33.4973 3.45097 31.0036 0.957275 27.9144 0.957275C24.8252 0.957275 22.3316 3.45097 22.3316 6.54016C22.3316 6.98679 22.406 7.41481 22.499 7.84284L9.37925 15.4914C8.37433 14.5609 7.05305 13.984 5.58289 13.984C2.49369 13.984 0 16.4777 0 19.5669C0 22.6561 2.49369 25.1498 5.58289 25.1498C7.05305 25.1498 8.37433 24.5729 9.37925 23.6424L22.6293 31.384C22.5363 31.7748 22.4804 32.1842 22.4804 32.5936C22.4804 35.5898 24.9183 38.0276 27.9144 38.0276C30.9106 38.0276 33.3484 35.5898 33.3484 32.5936C33.3484 29.5975 30.9106 27.1596 27.9144 27.1596Z" fill="#8293EE"/>
</svg>
