<svg width="1363" height="167" viewBox="0 0 1363 167" fill="none" xmlns="http://www.w3.org/2000/svg">
<rect width="1363" height="167" rx="15" fill="#F0F0F0"/>
<path d="M0 15C0 6.71573 6.71573 0 15 0H37V167H15C6.71573 167 0 160.284 0 152V15Z" fill="#424241"/>
<path d="M100.906 54.9219L93.3945 52.2383V49.0859L103.602 53.375V55.6367L100.906 54.9219ZM93.3945 57.1719L100.918 54.4297L103.602 53.7852V56.0352L93.3945 60.3242V57.1719ZM121.789 56.3398H125.293C125.223 57.4883 124.906 58.5078 124.344 59.3984C123.789 60.2891 123.012 60.9844 122.012 61.4844C121.02 61.9844 119.824 62.2344 118.426 62.2344C117.332 62.2344 116.352 62.0469 115.484 61.6719C114.617 61.2891 113.875 60.7422 113.258 60.0312C112.648 59.3203 112.184 58.4609 111.863 57.4531C111.543 56.4453 111.383 55.3164 111.383 54.0664V52.8828C111.383 51.6328 111.547 50.5039 111.875 49.4961C112.211 48.4805 112.688 47.6172 113.305 46.9062C113.93 46.1953 114.676 45.6484 115.543 45.2656C116.41 44.8828 117.379 44.6914 118.449 44.6914C119.871 44.6914 121.07 44.9492 122.047 45.4648C123.031 45.9805 123.793 46.6914 124.332 47.5977C124.879 48.5039 125.207 49.5352 125.316 50.6914H121.801C121.762 50.0039 121.625 49.4219 121.391 48.9453C121.156 48.4609 120.801 48.0977 120.324 47.8555C119.855 47.6055 119.23 47.4805 118.449 47.4805C117.863 47.4805 117.352 47.5898 116.914 47.8086C116.477 48.0273 116.109 48.3594 115.812 48.8047C115.516 49.25 115.293 49.8125 115.145 50.4922C115.004 51.1641 114.934 51.9531 114.934 52.8594V54.0664C114.934 54.9492 115 55.7266 115.133 56.3984C115.266 57.0625 115.469 57.625 115.742 58.0859C116.023 58.5391 116.383 58.8828 116.82 59.1172C117.266 59.3438 117.801 59.457 118.426 59.457C119.16 59.457 119.766 59.3398 120.242 59.1055C120.719 58.8711 121.082 58.5234 121.332 58.0625C121.59 57.6016 121.742 57.0273 121.789 56.3398ZM126.852 55.7891V55.543C126.852 54.6133 126.984 53.7578 127.25 52.9766C127.516 52.1875 127.902 51.5039 128.41 50.9258C128.918 50.3477 129.543 49.8984 130.285 49.5781C131.027 49.25 131.879 49.0859 132.84 49.0859C133.801 49.0859 134.656 49.25 135.406 49.5781C136.156 49.8984 136.785 50.3477 137.293 50.9258C137.809 51.5039 138.199 52.1875 138.465 52.9766C138.73 53.7578 138.863 54.6133 138.863 55.543V55.7891C138.863 56.7109 138.73 57.5664 138.465 58.3555C138.199 59.1367 137.809 59.8203 137.293 60.4062C136.785 60.9844 136.16 61.4336 135.418 61.7539C134.676 62.0742 133.824 62.2344 132.863 62.2344C131.902 62.2344 131.047 62.0742 130.297 61.7539C129.555 61.4336 128.926 60.9844 128.41 60.4062C127.902 59.8203 127.516 59.1367 127.25 58.3555C126.984 57.5664 126.852 56.7109 126.852 55.7891ZM130.227 55.543V55.7891C130.227 56.3203 130.273 56.8164 130.367 57.2773C130.461 57.7383 130.609 58.1445 130.812 58.4961C131.023 58.8398 131.297 59.1094 131.633 59.3047C131.969 59.5 132.379 59.5977 132.863 59.5977C133.332 59.5977 133.734 59.5 134.07 59.3047C134.406 59.1094 134.676 58.8398 134.879 58.4961C135.082 58.1445 135.23 57.7383 135.324 57.2773C135.426 56.8164 135.477 56.3203 135.477 55.7891V55.543C135.477 55.0273 135.426 54.543 135.324 54.0898C135.23 53.6289 135.078 53.2227 134.867 52.8711C134.664 52.5117 134.395 52.2305 134.059 52.0273C133.723 51.8242 133.316 51.7227 132.84 51.7227C132.363 51.7227 131.957 51.8242 131.621 52.0273C131.293 52.2305 131.023 52.5117 130.812 52.8711C130.609 53.2227 130.461 53.6289 130.367 54.0898C130.273 54.543 130.227 55.0273 130.227 55.543ZM148.426 59.2344V44H151.824V62H148.766L148.426 59.2344ZM140.41 55.8125V55.5664C140.41 54.5977 140.52 53.7188 140.738 52.9297C140.957 52.1328 141.277 51.4492 141.699 50.8789C142.121 50.3086 142.641 49.8672 143.258 49.5547C143.875 49.2422 144.578 49.0859 145.367 49.0859C146.109 49.0859 146.758 49.2422 147.312 49.5547C147.875 49.8672 148.352 50.3125 148.742 50.8906C149.141 51.4609 149.461 52.1367 149.703 52.918C149.945 53.6914 150.121 54.5391 150.23 55.4609V56C150.121 56.8828 149.945 57.7031 149.703 58.4609C149.461 59.2188 149.141 59.8828 148.742 60.4531C148.352 61.0156 147.875 61.4531 147.312 61.7656C146.75 62.0781 146.094 62.2344 145.344 62.2344C144.555 62.2344 143.852 62.0742 143.234 61.7539C142.625 61.4336 142.109 60.9844 141.688 60.4062C141.273 59.8281 140.957 59.1484 140.738 58.3672C140.52 57.5859 140.41 56.7344 140.41 55.8125ZM143.785 55.5664V55.8125C143.785 56.3359 143.824 56.8242 143.902 57.2773C143.988 57.7305 144.125 58.1328 144.312 58.4844C144.508 58.8281 144.758 59.0977 145.062 59.293C145.375 59.4805 145.754 59.5742 146.199 59.5742C146.777 59.5742 147.254 59.4453 147.629 59.1875C148.004 58.9219 148.289 58.5586 148.484 58.0977C148.688 57.6367 148.805 57.1055 148.836 56.5039V54.9688C148.812 54.4766 148.742 54.0352 148.625 53.6445C148.516 53.2461 148.352 52.9062 148.133 52.625C147.922 52.3438 147.656 52.125 147.336 51.9688C147.023 51.8125 146.652 51.7344 146.223 51.7344C145.785 51.7344 145.41 51.8359 145.098 52.0391C144.785 52.2344 144.531 52.5039 144.336 52.8477C144.148 53.1914 144.008 53.5977 143.914 54.0664C143.828 54.5273 143.785 55.0273 143.785 55.5664ZM160.297 62.2344C159.312 62.2344 158.43 62.0781 157.648 61.7656C156.867 61.4453 156.203 61.0039 155.656 60.4414C155.117 59.8789 154.703 59.2266 154.414 58.4844C154.125 57.7344 153.98 56.9375 153.98 56.0938V55.625C153.98 54.6641 154.117 53.7852 154.391 52.9883C154.664 52.1914 155.055 51.5 155.562 50.9141C156.078 50.3281 156.703 49.8789 157.438 49.5664C158.172 49.2461 159 49.0859 159.922 49.0859C160.82 49.0859 161.617 49.2344 162.312 49.5312C163.008 49.8281 163.59 50.25 164.059 50.7969C164.535 51.3438 164.895 52 165.137 52.7656C165.379 53.5234 165.5 54.3672 165.5 55.2969V56.7031H155.422V54.4531H162.184V54.1953C162.184 53.7266 162.098 53.3086 161.926 52.9414C161.762 52.5664 161.512 52.2695 161.176 52.0508C160.84 51.832 160.41 51.7227 159.887 51.7227C159.441 51.7227 159.059 51.8203 158.738 52.0156C158.418 52.2109 158.156 52.4844 157.953 52.8359C157.758 53.1875 157.609 53.6016 157.508 54.0781C157.414 54.5469 157.367 55.0625 157.367 55.625V56.0938C157.367 56.6016 157.438 57.0703 157.578 57.5C157.727 57.9297 157.934 58.3008 158.199 58.6133C158.473 58.9258 158.801 59.168 159.184 59.3398C159.574 59.5117 160.016 59.5977 160.508 59.5977C161.117 59.5977 161.684 59.4805 162.207 59.2461C162.738 59.0039 163.195 58.6406 163.578 58.1562L165.219 59.9375C164.953 60.3203 164.59 60.6875 164.129 61.0391C163.676 61.3906 163.129 61.6797 162.488 61.9062C161.848 62.125 161.117 62.2344 160.297 62.2344ZM177.523 56.3398H181.027C180.957 57.4883 180.641 58.5078 180.078 59.3984C179.523 60.2891 178.746 60.9844 177.746 61.4844C176.754 61.9844 175.559 62.2344 174.16 62.2344C173.066 62.2344 172.086 62.0469 171.219 61.6719C170.352 61.2891 169.609 60.7422 168.992 60.0312C168.383 59.3203 167.918 58.4609 167.598 57.4531C167.277 56.4453 167.117 55.3164 167.117 54.0664V52.8828C167.117 51.6328 167.281 50.5039 167.609 49.4961C167.945 48.4805 168.422 47.6172 169.039 46.9062C169.664 46.1953 170.41 45.6484 171.277 45.2656C172.145 44.8828 173.113 44.6914 174.184 44.6914C175.605 44.6914 176.805 44.9492 177.781 45.4648C178.766 45.9805 179.527 46.6914 180.066 47.5977C180.613 48.5039 180.941 49.5352 181.051 50.6914H177.535C177.496 50.0039 177.359 49.4219 177.125 48.9453C176.891 48.4609 176.535 48.0977 176.059 47.8555C175.59 47.6055 174.965 47.4805 174.184 47.4805C173.598 47.4805 173.086 47.5898 172.648 47.8086C172.211 48.0273 171.844 48.3594 171.547 48.8047C171.25 49.25 171.027 49.8125 170.879 50.4922C170.738 51.1641 170.668 51.9531 170.668 52.8594V54.0664C170.668 54.9492 170.734 55.7266 170.867 56.3984C171 57.0625 171.203 57.625 171.477 58.0859C171.758 58.5391 172.117 58.8828 172.555 59.1172C173 59.3438 173.535 59.457 174.16 59.457C174.895 59.457 175.5 59.3398 175.977 59.1055C176.453 58.8711 176.816 58.5234 177.066 58.0625C177.324 57.6016 177.477 57.0273 177.523 56.3398ZM189.969 59.1406V53.4922C189.969 53.0859 189.902 52.7383 189.77 52.4492C189.637 52.1523 189.43 51.9219 189.148 51.7578C188.875 51.5938 188.52 51.5117 188.082 51.5117C187.707 51.5117 187.383 51.5781 187.109 51.7109C186.836 51.8359 186.625 52.0195 186.477 52.2617C186.328 52.4961 186.254 52.7734 186.254 53.0938H182.879C182.879 52.5547 183.004 52.043 183.254 51.5586C183.504 51.0742 183.867 50.6484 184.344 50.2812C184.82 49.9062 185.387 49.6133 186.043 49.4023C186.707 49.1914 187.449 49.0859 188.27 49.0859C189.254 49.0859 190.129 49.25 190.895 49.5781C191.66 49.9062 192.262 50.3984 192.699 51.0547C193.145 51.7109 193.367 52.5312 193.367 53.5156V58.9414C193.367 59.6367 193.41 60.207 193.496 60.6523C193.582 61.0898 193.707 61.4727 193.871 61.8008V62H190.461C190.297 61.6562 190.172 61.2266 190.086 60.7109C190.008 60.1875 189.969 59.6641 189.969 59.1406ZM190.414 54.2773L190.438 56.1875H188.551C188.105 56.1875 187.719 56.2383 187.391 56.3398C187.062 56.4414 186.793 56.5859 186.582 56.7734C186.371 56.9531 186.215 57.1641 186.113 57.4062C186.02 57.6484 185.973 57.9141 185.973 58.2031C185.973 58.4922 186.039 58.7539 186.172 58.9883C186.305 59.2148 186.496 59.3945 186.746 59.5273C186.996 59.6523 187.289 59.7148 187.625 59.7148C188.133 59.7148 188.574 59.6133 188.949 59.4102C189.324 59.207 189.613 58.957 189.816 58.6602C190.027 58.3633 190.137 58.082 190.145 57.8164L191.035 59.2461C190.91 59.5664 190.738 59.8984 190.52 60.2422C190.309 60.5859 190.039 60.9102 189.711 61.2148C189.383 61.5117 188.988 61.7578 188.527 61.9531C188.066 62.1406 187.52 62.2344 186.887 62.2344C186.082 62.2344 185.352 62.0742 184.695 61.7539C184.047 61.4258 183.531 60.9766 183.148 60.4062C182.773 59.8281 182.586 59.1719 182.586 58.4375C182.586 57.7734 182.711 57.1836 182.961 56.668C183.211 56.1523 183.578 55.7188 184.062 55.3672C184.555 55.0078 185.168 54.7383 185.902 54.5586C186.637 54.3711 187.488 54.2773 188.457 54.2773H190.414ZM199.344 51.9453V62H195.957V49.3203H199.133L199.344 51.9453ZM198.875 55.2148H197.938C197.938 54.332 198.043 53.5195 198.254 52.7773C198.473 52.0273 198.789 51.3789 199.203 50.832C199.625 50.2773 200.145 49.8477 200.762 49.543C201.379 49.2383 202.094 49.0859 202.906 49.0859C203.469 49.0859 203.984 49.1719 204.453 49.3438C204.922 49.5078 205.324 49.7695 205.66 50.1289C206.004 50.4805 206.27 50.9414 206.457 51.5117C206.645 52.0742 206.738 52.75 206.738 53.5391V62H203.363V53.9141C203.363 53.3359 203.285 52.8906 203.129 52.5781C202.973 52.2656 202.75 52.0469 202.461 51.9219C202.18 51.7969 201.84 51.7344 201.441 51.7344C201.004 51.7344 200.621 51.8242 200.293 52.0039C199.973 52.1836 199.707 52.4336 199.496 52.7539C199.285 53.0664 199.129 53.4336 199.027 53.8555C198.926 54.2773 198.875 54.7305 198.875 55.2148ZM206.422 54.8281L205.215 54.9805C205.215 54.1523 205.316 53.3828 205.52 52.6719C205.73 51.9609 206.039 51.3359 206.445 50.7969C206.859 50.2578 207.371 49.8398 207.98 49.543C208.59 49.2383 209.293 49.0859 210.09 49.0859C210.699 49.0859 211.254 49.1758 211.754 49.3555C212.254 49.5273 212.68 49.8047 213.031 50.1875C213.391 50.5625 213.664 51.0547 213.852 51.6641C214.047 52.2734 214.145 53.0195 214.145 53.9023V62H210.758V53.9023C210.758 53.3164 210.68 52.8711 210.523 52.5664C210.375 52.2539 210.156 52.0391 209.867 51.9219C209.586 51.7969 209.25 51.7344 208.859 51.7344C208.453 51.7344 208.098 51.8164 207.793 51.9805C207.488 52.1367 207.234 52.3555 207.031 52.6367C206.828 52.918 206.676 53.2461 206.574 53.6211C206.473 53.9883 206.422 54.3906 206.422 54.8281Z" fill="#888888"/>
<path d="M102.635 86.0078V118H94.9443V86.0078H102.635ZM115.181 99.2573V118H107.776V94.2256H114.72L115.181 99.2573ZM114.28 105.3L112.588 105.344C112.588 103.674 112.786 102.136 113.182 100.729C113.577 99.3232 114.163 98.1001 114.939 97.0601C115.716 96.02 116.668 95.2144 117.796 94.6431C118.938 94.0718 120.257 93.7861 121.751 93.7861C122.791 93.7861 123.736 93.9473 124.585 94.2695C125.435 94.5771 126.167 95.0679 126.783 95.7417C127.398 96.4009 127.867 97.2651 128.189 98.3345C128.526 99.3892 128.694 100.656 128.694 102.136V118H121.29V103.081C121.29 102.07 121.172 101.308 120.938 100.795C120.718 100.283 120.396 99.9385 119.971 99.7627C119.546 99.5869 119.026 99.499 118.411 99.499C117.767 99.499 117.188 99.6455 116.675 99.9385C116.163 100.231 115.723 100.642 115.357 101.169C115.005 101.682 114.734 102.29 114.544 102.993C114.368 103.696 114.28 104.465 114.28 105.3ZM127.859 105.3L125.794 105.344C125.794 103.674 125.977 102.136 126.343 100.729C126.724 99.3232 127.288 98.1001 128.035 97.0601C128.797 96.02 129.742 95.2144 130.87 94.6431C131.998 94.0718 133.309 93.7861 134.803 93.7861C135.887 93.7861 136.883 93.9473 137.791 94.2695C138.699 94.5918 139.483 95.1118 140.142 95.8296C140.801 96.5474 141.314 97.4995 141.68 98.686C142.046 99.8579 142.229 101.308 142.229 103.037V118H134.803V103.037C134.803 102.055 134.686 101.315 134.451 100.817C134.231 100.305 133.909 99.9604 133.484 99.7847C133.06 99.5942 132.554 99.499 131.968 99.499C131.265 99.499 130.657 99.6455 130.145 99.9385C129.632 100.231 129.2 100.642 128.848 101.169C128.511 101.682 128.262 102.29 128.101 102.993C127.94 103.696 127.859 104.465 127.859 105.3ZM153.941 98.7959V127.141H146.536V94.2256H153.436L153.941 98.7959ZM168.531 105.827V106.289C168.531 108.017 168.333 109.621 167.938 111.101C167.542 112.58 166.956 113.869 166.18 114.968C165.403 116.066 164.437 116.923 163.279 117.539C162.137 118.139 160.811 118.439 159.302 118.439C157.881 118.439 156.658 118.125 155.633 117.495C154.607 116.865 153.75 115.993 153.062 114.88C152.374 113.767 151.817 112.492 151.392 111.057C150.967 109.621 150.63 108.105 150.381 106.508V105.915C150.63 104.201 150.967 102.612 151.392 101.147C151.817 99.6675 152.374 98.3784 153.062 97.2798C153.75 96.1812 154.6 95.3242 155.611 94.709C156.636 94.0938 157.859 93.7861 159.28 93.7861C160.789 93.7861 162.115 94.0718 163.257 94.6431C164.415 95.2144 165.381 96.0347 166.158 97.104C166.949 98.1587 167.542 99.4258 167.938 100.905C168.333 102.385 168.531 104.025 168.531 105.827ZM161.126 106.289V105.827C161.126 104.904 161.06 104.062 160.928 103.3C160.796 102.524 160.584 101.85 160.291 101.279C160.013 100.708 159.639 100.268 159.17 99.9604C158.702 99.6528 158.123 99.499 157.435 99.499C156.644 99.499 155.977 99.6235 155.435 99.8726C154.908 100.107 154.483 100.473 154.161 100.971C153.853 101.455 153.633 102.062 153.501 102.795C153.384 103.513 153.333 104.355 153.348 105.322V107.124C153.318 108.237 153.428 109.218 153.677 110.068C153.926 110.903 154.358 111.555 154.974 112.023C155.589 112.492 156.424 112.727 157.479 112.727C158.182 112.727 158.768 112.565 159.236 112.243C159.705 111.906 160.079 111.445 160.357 110.859C160.635 110.258 160.833 109.57 160.95 108.793C161.067 108.017 161.126 107.182 161.126 106.289ZM179.649 84.25V118H172.222V84.25H179.649ZM195.733 118.439C193.799 118.439 192.071 118.139 190.547 117.539C189.024 116.923 187.735 116.081 186.68 115.012C185.64 113.942 184.842 112.712 184.285 111.32C183.743 109.929 183.472 108.457 183.472 106.904V106.069C183.472 104.326 183.714 102.714 184.197 101.235C184.681 99.7407 185.398 98.437 186.351 97.3237C187.303 96.2104 188.497 95.3462 189.932 94.731C191.368 94.1011 193.038 93.7861 194.942 93.7861C196.626 93.7861 198.135 94.0571 199.468 94.5991C200.801 95.1411 201.929 95.9175 202.852 96.9282C203.79 97.939 204.5 99.1621 204.983 100.598C205.481 102.033 205.73 103.645 205.73 105.432V108.442H186.307V103.806H198.501V103.234C198.516 102.443 198.377 101.77 198.084 101.213C197.806 100.656 197.396 100.231 196.854 99.9385C196.312 99.6455 195.652 99.499 194.876 99.499C194.07 99.499 193.404 99.6748 192.876 100.026C192.364 100.378 191.961 100.861 191.668 101.477C191.39 102.077 191.192 102.773 191.075 103.564C190.958 104.355 190.899 105.19 190.899 106.069V106.904C190.899 107.783 191.016 108.581 191.25 109.299C191.5 110.017 191.851 110.632 192.305 111.145C192.774 111.643 193.331 112.031 193.975 112.309C194.634 112.587 195.381 112.727 196.216 112.727C197.227 112.727 198.223 112.536 199.205 112.155C200.186 111.774 201.028 111.145 201.731 110.266L205.093 114.265C204.61 114.953 203.921 115.62 203.028 116.264C202.149 116.909 201.094 117.436 199.864 117.846C198.633 118.242 197.256 118.439 195.733 118.439ZM216.211 99.2573V118H208.807V94.2256H215.75L216.211 99.2573ZM215.311 105.3L213.619 105.344C213.619 103.674 213.816 102.136 214.212 100.729C214.607 99.3232 215.193 98.1001 215.97 97.0601C216.746 96.02 217.698 95.2144 218.826 94.6431C219.969 94.0718 221.287 93.7861 222.781 93.7861C223.821 93.7861 224.766 93.9473 225.616 94.2695C226.465 94.5771 227.198 95.0679 227.813 95.7417C228.428 96.4009 228.897 97.2651 229.219 98.3345C229.556 99.3892 229.725 100.656 229.725 102.136V118H222.32V103.081C222.32 102.07 222.203 101.308 221.968 100.795C221.749 100.283 221.426 99.9385 221.001 99.7627C220.577 99.5869 220.057 99.499 219.441 99.499C218.797 99.499 218.218 99.6455 217.706 99.9385C217.193 100.231 216.753 100.642 216.387 101.169C216.036 101.682 215.765 102.29 215.574 102.993C215.398 103.696 215.311 104.465 215.311 105.3ZM228.89 105.3L226.824 105.344C226.824 103.674 227.007 102.136 227.374 100.729C227.754 99.3232 228.318 98.1001 229.065 97.0601C229.827 96.02 230.772 95.2144 231.9 94.6431C233.028 94.0718 234.339 93.7861 235.833 93.7861C236.917 93.7861 237.913 93.9473 238.821 94.2695C239.729 94.5918 240.513 95.1118 241.172 95.8296C241.832 96.5474 242.344 97.4995 242.71 98.686C243.077 99.8579 243.26 101.308 243.26 103.037V118H235.833V103.037C235.833 102.055 235.716 101.315 235.481 100.817C235.262 100.305 234.939 99.9604 234.515 99.7847C234.09 99.5942 233.584 99.499 232.999 99.499C232.295 99.499 231.688 99.6455 231.175 99.9385C230.662 100.231 230.23 100.642 229.878 101.169C229.542 101.682 229.292 102.29 229.131 102.993C228.97 103.696 228.89 104.465 228.89 105.3ZM259.014 118.439C257.081 118.439 255.352 118.139 253.829 117.539C252.305 116.923 251.016 116.081 249.961 115.012C248.921 113.942 248.123 112.712 247.566 111.32C247.024 109.929 246.753 108.457 246.753 106.904V106.069C246.753 104.326 246.995 102.714 247.479 101.235C247.962 99.7407 248.68 98.437 249.632 97.3237C250.584 96.2104 251.778 95.3462 253.213 94.731C254.649 94.1011 256.319 93.7861 258.223 93.7861C259.908 93.7861 261.417 94.0571 262.75 94.5991C264.083 95.1411 265.21 95.9175 266.133 96.9282C267.071 97.939 267.781 99.1621 268.265 100.598C268.763 102.033 269.012 103.645 269.012 105.432V108.442H249.588V103.806H261.783V103.234C261.797 102.443 261.658 101.77 261.365 101.213C261.087 100.656 260.677 100.231 260.135 99.9385C259.593 99.6455 258.934 99.499 258.157 99.499C257.352 99.499 256.685 99.6748 256.158 100.026C255.645 100.378 255.242 100.861 254.949 101.477C254.671 102.077 254.473 102.773 254.356 103.564C254.239 104.355 254.18 105.19 254.18 106.069V106.904C254.18 107.783 254.297 108.581 254.532 109.299C254.781 110.017 255.132 110.632 255.586 111.145C256.055 111.643 256.612 112.031 257.256 112.309C257.916 112.587 258.663 112.727 259.498 112.727C260.508 112.727 261.504 112.536 262.486 112.155C263.467 111.774 264.31 111.145 265.013 110.266L268.375 114.265C267.891 114.953 267.203 115.62 266.309 116.264C265.43 116.909 264.375 117.436 263.145 117.846C261.915 118.242 260.538 118.439 259.014 118.439ZM279.295 99.3013V118H271.89V94.2256H278.833L279.295 99.3013ZM278.416 105.3L276.68 105.344C276.68 103.527 276.9 101.909 277.339 100.488C277.779 99.0522 278.401 97.8364 279.207 96.8403C280.013 95.8442 280.972 95.0898 282.085 94.5771C283.213 94.0498 284.466 93.7861 285.843 93.7861C286.941 93.7861 287.945 93.9473 288.853 94.2695C289.776 94.5918 290.567 95.1118 291.226 95.8296C291.9 96.5474 292.413 97.4995 292.764 98.686C293.13 99.8579 293.313 101.308 293.313 103.037V118H285.865V103.015C285.865 102.062 285.733 101.337 285.469 100.839C285.206 100.327 284.825 99.9751 284.327 99.7847C283.829 99.5942 283.221 99.499 282.503 99.499C281.741 99.499 281.097 99.6455 280.569 99.9385C280.042 100.231 279.617 100.642 279.295 101.169C278.987 101.682 278.76 102.29 278.614 102.993C278.482 103.696 278.416 104.465 278.416 105.3ZM309.947 94.2256V99.3672H295.621V94.2256H309.947ZM298.631 88.3149H306.036V110.244C306.036 110.874 306.109 111.364 306.255 111.716C306.402 112.053 306.651 112.294 307.002 112.441C307.369 112.573 307.852 112.639 308.453 112.639C308.877 112.639 309.229 112.631 309.507 112.617C309.786 112.587 310.049 112.551 310.298 112.507V117.802C309.668 118.007 309.009 118.161 308.321 118.264C307.632 118.381 306.9 118.439 306.124 118.439C304.542 118.439 303.187 118.19 302.059 117.692C300.945 117.194 300.096 116.411 299.51 115.341C298.924 114.272 298.631 112.88 298.631 111.167V88.3149ZM325.24 112.023V102.224C325.24 101.55 325.145 100.971 324.954 100.488C324.764 100.004 324.463 99.6309 324.053 99.3672C323.643 99.0889 323.094 98.9497 322.405 98.9497C321.849 98.9497 321.373 99.0449 320.977 99.2354C320.582 99.4258 320.281 99.7114 320.076 100.092C319.871 100.473 319.769 100.957 319.769 101.542H312.364C312.364 100.444 312.605 99.4258 313.089 98.4883C313.587 97.5361 314.29 96.7085 315.198 96.0054C316.121 95.3022 317.22 94.7603 318.494 94.3794C319.783 93.9839 321.219 93.7861 322.801 93.7861C324.69 93.7861 326.375 94.1011 327.854 94.731C329.349 95.3608 330.528 96.3057 331.392 97.5654C332.256 98.8105 332.688 100.378 332.688 102.268V112.001C332.688 113.554 332.776 114.733 332.952 115.539C333.128 116.33 333.377 117.026 333.699 117.626V118H326.272C325.921 117.268 325.657 116.374 325.481 115.319C325.32 114.25 325.24 113.151 325.24 112.023ZM326.141 103.476L326.185 107.431H322.911C322.222 107.431 321.636 107.526 321.153 107.717C320.684 107.907 320.303 108.171 320.01 108.508C319.732 108.83 319.527 109.196 319.395 109.606C319.278 110.017 319.219 110.449 319.219 110.903C319.219 111.342 319.322 111.738 319.527 112.089C319.747 112.426 320.04 112.69 320.406 112.88C320.772 113.071 321.182 113.166 321.636 113.166C322.457 113.166 323.152 113.012 323.724 112.705C324.31 112.382 324.756 111.994 325.064 111.54C325.372 111.086 325.525 110.661 325.525 110.266L327.151 113.298C326.858 113.884 326.521 114.477 326.141 115.078C325.774 115.678 325.313 116.235 324.756 116.748C324.214 117.246 323.548 117.656 322.757 117.978C321.966 118.286 321.006 118.439 319.878 118.439C318.414 118.439 317.066 118.139 315.835 117.539C314.62 116.938 313.646 116.103 312.913 115.034C312.181 113.95 311.814 112.705 311.814 111.298C311.814 110.068 312.034 108.969 312.474 108.002C312.928 107.036 313.609 106.215 314.517 105.542C315.425 104.868 316.583 104.355 317.989 104.003C319.395 103.652 321.05 103.476 322.955 103.476H326.141ZM349.322 94.2256V99.3672H334.996V94.2256H349.322ZM338.006 88.3149H345.411V110.244C345.411 110.874 345.484 111.364 345.63 111.716C345.777 112.053 346.026 112.294 346.377 112.441C346.744 112.573 347.227 112.639 347.828 112.639C348.252 112.639 348.604 112.631 348.882 112.617C349.161 112.587 349.424 112.551 349.673 112.507V117.802C349.043 118.007 348.384 118.161 347.696 118.264C347.007 118.381 346.275 118.439 345.499 118.439C343.917 118.439 342.562 118.19 341.434 117.692C340.32 117.194 339.471 116.411 338.885 115.341C338.299 114.272 338.006 112.88 338.006 111.167V88.3149ZM360.088 94.2256V118H352.662V94.2256H360.088ZM352.222 88.0952C352.222 87.0405 352.603 86.1763 353.365 85.5024C354.126 84.8286 355.115 84.4917 356.331 84.4917C357.547 84.4917 358.536 84.8286 359.297 85.5024C360.059 86.1763 360.44 87.0405 360.44 88.0952C360.44 89.1499 360.059 90.0142 359.297 90.688C358.536 91.3618 357.547 91.6987 356.331 91.6987C355.115 91.6987 354.126 91.3618 353.365 90.688C352.603 90.0142 352.222 89.1499 352.222 88.0952ZM363.736 106.354V105.893C363.736 104.15 363.985 102.546 364.483 101.081C364.981 99.6016 365.713 98.3198 366.68 97.2358C367.647 96.1519 368.841 95.3096 370.262 94.709C371.683 94.0938 373.323 93.7861 375.184 93.7861C377.059 93.7861 378.707 94.0938 380.127 94.709C381.563 95.3096 382.764 96.1519 383.731 97.2358C384.698 98.3198 385.43 99.6016 385.928 101.081C386.426 102.546 386.675 104.15 386.675 105.893V106.354C386.675 108.083 386.426 109.687 385.928 111.167C385.43 112.631 384.698 113.913 383.731 115.012C382.764 116.096 381.57 116.938 380.149 117.539C378.729 118.139 377.088 118.439 375.228 118.439C373.367 118.439 371.719 118.139 370.284 117.539C368.848 116.938 367.647 116.096 366.68 115.012C365.713 113.913 364.981 112.631 364.483 111.167C363.985 109.687 363.736 108.083 363.736 106.354ZM371.141 105.893V106.354C371.141 107.248 371.207 108.083 371.338 108.859C371.47 109.636 371.69 110.317 371.998 110.903C372.305 111.474 372.723 111.921 373.25 112.243C373.777 112.565 374.437 112.727 375.228 112.727C376.004 112.727 376.648 112.565 377.161 112.243C377.688 111.921 378.106 111.474 378.414 110.903C378.721 110.317 378.941 109.636 379.073 108.859C379.205 108.083 379.271 107.248 379.271 106.354V105.893C379.271 105.029 379.205 104.216 379.073 103.454C378.941 102.678 378.721 101.997 378.414 101.411C378.106 100.81 377.688 100.341 377.161 100.004C376.634 99.6675 375.975 99.499 375.184 99.499C374.407 99.499 373.755 99.6675 373.228 100.004C372.715 100.341 372.305 100.81 371.998 101.411C371.69 101.997 371.47 102.678 371.338 103.454C371.207 104.216 371.141 105.029 371.141 105.893ZM397.244 99.3013V118H389.839V94.2256H396.783L397.244 99.3013ZM396.365 105.3L394.629 105.344C394.629 103.527 394.849 101.909 395.289 100.488C395.728 99.0522 396.351 97.8364 397.156 96.8403C397.962 95.8442 398.921 95.0898 400.035 94.5771C401.163 94.0498 402.415 93.7861 403.792 93.7861C404.891 93.7861 405.894 93.9473 406.802 94.2695C407.725 94.5918 408.516 95.1118 409.175 95.8296C409.849 96.5474 410.362 97.4995 410.713 98.686C411.08 99.8579 411.263 101.308 411.263 103.037V118H403.814V103.015C403.814 102.062 403.682 101.337 403.418 100.839C403.155 100.327 402.774 99.9751 402.276 99.7847C401.778 99.5942 401.17 99.499 400.452 99.499C399.69 99.499 399.046 99.6455 398.519 99.9385C397.991 100.231 397.566 100.642 397.244 101.169C396.937 101.682 396.709 102.29 396.563 102.993C396.431 103.696 396.365 104.465 396.365 105.3Z" fill="#424241"/>
<path d="M1363 15C1363 6.71573 1356.28 0 1348 0H1134V167H1348C1356.28 167 1363 160.284 1363 152V15Z" fill="#8293EE"/>
<path d="M1281.5 49H1216.5L1214 51.5V116.5L1216.5 119H1281.5L1284 116.5V51.5L1281.5 49ZM1279 114H1234V104H1245.5C1247 107 1250.5 109 1254 109C1259.5 109 1264 104.5 1264 99C1264 93.5 1259.5 89 1254 89C1248.5 89 1244 93.5 1244 99H1229V114H1219V54H1229V65.5C1226 67 1224 70.5 1224 74C1224 79.5 1228.5 84 1234 84C1239.5 84 1244 79.5 1244 74H1254C1254 79.5 1258.5 84 1264 84C1269.5 84 1274 79.5 1274 74C1274 68.5 1269.5 64 1264 64C1260.5 64 1257 66 1255.5 69H1242.5C1241 66 1237.5 64 1234 64V54H1279V114ZM1249 99C1249 96 1251 94 1254 94C1257 94 1259 96 1259 99C1259 102 1257 104 1254 104C1251 104 1249 102 1249 99ZM1234 69C1237 69 1239 71 1239 74C1239 77 1237 79 1234 79C1231 79 1229 77 1229 74C1229 71 1231 69 1234 69ZM1264 69C1267 69 1269 71 1269 74C1269 77 1267 79 1264 79C1261 79 1259 77 1259 74C1259 71 1261 69 1264 69Z" fill="white"/>
</svg>
