<svg width="1363" height="167" viewBox="0 0 1363 167" fill="none" xmlns="http://www.w3.org/2000/svg">
<rect width="1363" height="167" rx="15" fill="#F0F0F0"/>
<path d="M0 15C0 6.71573 6.71573 0 15 0H37V167H15C6.71573 167 0 160.284 0 152V15Z" fill="#424241"/>
<path d="M100.906 54.9219L93.3945 52.2383V49.0859L103.602 53.375V55.6367L100.906 54.9219ZM93.3945 57.1719L100.918 54.4297L103.602 53.7852V56.0352L93.3945 60.3242V57.1719ZM121.789 56.3398H125.293C125.223 57.4883 124.906 58.5078 124.344 59.3984C123.789 60.2891 123.012 60.9844 122.012 61.4844C121.02 61.9844 119.824 62.2344 118.426 62.2344C117.332 62.2344 116.352 62.0469 115.484 61.6719C114.617 61.2891 113.875 60.7422 113.258 60.0312C112.648 59.3203 112.184 58.4609 111.863 57.4531C111.543 56.4453 111.383 55.3164 111.383 54.0664V52.8828C111.383 51.6328 111.547 50.5039 111.875 49.4961C112.211 48.4805 112.688 47.6172 113.305 46.9062C113.93 46.1953 114.676 45.6484 115.543 45.2656C116.41 44.8828 117.379 44.6914 118.449 44.6914C119.871 44.6914 121.07 44.9492 122.047 45.4648C123.031 45.9805 123.793 46.6914 124.332 47.5977C124.879 48.5039 125.207 49.5352 125.316 50.6914H121.801C121.762 50.0039 121.625 49.4219 121.391 48.9453C121.156 48.4609 120.801 48.0977 120.324 47.8555C119.855 47.6055 119.23 47.4805 118.449 47.4805C117.863 47.4805 117.352 47.5898 116.914 47.8086C116.477 48.0273 116.109 48.3594 115.812 48.8047C115.516 49.25 115.293 49.8125 115.145 50.4922C115.004 51.1641 114.934 51.9531 114.934 52.8594V54.0664C114.934 54.9492 115 55.7266 115.133 56.3984C115.266 57.0625 115.469 57.625 115.742 58.0859C116.023 58.5391 116.383 58.8828 116.82 59.1172C117.266 59.3438 117.801 59.457 118.426 59.457C119.16 59.457 119.766 59.3398 120.242 59.1055C120.719 58.8711 121.082 58.5234 121.332 58.0625C121.59 57.6016 121.742 57.0273 121.789 56.3398ZM126.852 55.7891V55.543C126.852 54.6133 126.984 53.7578 127.25 52.9766C127.516 52.1875 127.902 51.5039 128.41 50.9258C128.918 50.3477 129.543 49.8984 130.285 49.5781C131.027 49.25 131.879 49.0859 132.84 49.0859C133.801 49.0859 134.656 49.25 135.406 49.5781C136.156 49.8984 136.785 50.3477 137.293 50.9258C137.809 51.5039 138.199 52.1875 138.465 52.9766C138.73 53.7578 138.863 54.6133 138.863 55.543V55.7891C138.863 56.7109 138.73 57.5664 138.465 58.3555C138.199 59.1367 137.809 59.8203 137.293 60.4062C136.785 60.9844 136.16 61.4336 135.418 61.7539C134.676 62.0742 133.824 62.2344 132.863 62.2344C131.902 62.2344 131.047 62.0742 130.297 61.7539C129.555 61.4336 128.926 60.9844 128.41 60.4062C127.902 59.8203 127.516 59.1367 127.25 58.3555C126.984 57.5664 126.852 56.7109 126.852 55.7891ZM130.227 55.543V55.7891C130.227 56.3203 130.273 56.8164 130.367 57.2773C130.461 57.7383 130.609 58.1445 130.812 58.4961C131.023 58.8398 131.297 59.1094 131.633 59.3047C131.969 59.5 132.379 59.5977 132.863 59.5977C133.332 59.5977 133.734 59.5 134.07 59.3047C134.406 59.1094 134.676 58.8398 134.879 58.4961C135.082 58.1445 135.23 57.7383 135.324 57.2773C135.426 56.8164 135.477 56.3203 135.477 55.7891V55.543C135.477 55.0273 135.426 54.543 135.324 54.0898C135.23 53.6289 135.078 53.2227 134.867 52.8711C134.664 52.5117 134.395 52.2305 134.059 52.0273C133.723 51.8242 133.316 51.7227 132.84 51.7227C132.363 51.7227 131.957 51.8242 131.621 52.0273C131.293 52.2305 131.023 52.5117 130.812 52.8711C130.609 53.2227 130.461 53.6289 130.367 54.0898C130.273 54.543 130.227 55.0273 130.227 55.543ZM148.426 59.2344V44H151.824V62H148.766L148.426 59.2344ZM140.41 55.8125V55.5664C140.41 54.5977 140.52 53.7188 140.738 52.9297C140.957 52.1328 141.277 51.4492 141.699 50.8789C142.121 50.3086 142.641 49.8672 143.258 49.5547C143.875 49.2422 144.578 49.0859 145.367 49.0859C146.109 49.0859 146.758 49.2422 147.312 49.5547C147.875 49.8672 148.352 50.3125 148.742 50.8906C149.141 51.4609 149.461 52.1367 149.703 52.918C149.945 53.6914 150.121 54.5391 150.23 55.4609V56C150.121 56.8828 149.945 57.7031 149.703 58.4609C149.461 59.2188 149.141 59.8828 148.742 60.4531C148.352 61.0156 147.875 61.4531 147.312 61.7656C146.75 62.0781 146.094 62.2344 145.344 62.2344C144.555 62.2344 143.852 62.0742 143.234 61.7539C142.625 61.4336 142.109 60.9844 141.688 60.4062C141.273 59.8281 140.957 59.1484 140.738 58.3672C140.52 57.5859 140.41 56.7344 140.41 55.8125ZM143.785 55.5664V55.8125C143.785 56.3359 143.824 56.8242 143.902 57.2773C143.988 57.7305 144.125 58.1328 144.312 58.4844C144.508 58.8281 144.758 59.0977 145.062 59.293C145.375 59.4805 145.754 59.5742 146.199 59.5742C146.777 59.5742 147.254 59.4453 147.629 59.1875C148.004 58.9219 148.289 58.5586 148.484 58.0977C148.688 57.6367 148.805 57.1055 148.836 56.5039V54.9688C148.812 54.4766 148.742 54.0352 148.625 53.6445C148.516 53.2461 148.352 52.9062 148.133 52.625C147.922 52.3438 147.656 52.125 147.336 51.9688C147.023 51.8125 146.652 51.7344 146.223 51.7344C145.785 51.7344 145.41 51.8359 145.098 52.0391C144.785 52.2344 144.531 52.5039 144.336 52.8477C144.148 53.1914 144.008 53.5977 143.914 54.0664C143.828 54.5273 143.785 55.0273 143.785 55.5664ZM160.297 62.2344C159.312 62.2344 158.43 62.0781 157.648 61.7656C156.867 61.4453 156.203 61.0039 155.656 60.4414C155.117 59.8789 154.703 59.2266 154.414 58.4844C154.125 57.7344 153.98 56.9375 153.98 56.0938V55.625C153.98 54.6641 154.117 53.7852 154.391 52.9883C154.664 52.1914 155.055 51.5 155.562 50.9141C156.078 50.3281 156.703 49.8789 157.438 49.5664C158.172 49.2461 159 49.0859 159.922 49.0859C160.82 49.0859 161.617 49.2344 162.312 49.5312C163.008 49.8281 163.59 50.25 164.059 50.7969C164.535 51.3438 164.895 52 165.137 52.7656C165.379 53.5234 165.5 54.3672 165.5 55.2969V56.7031H155.422V54.4531H162.184V54.1953C162.184 53.7266 162.098 53.3086 161.926 52.9414C161.762 52.5664 161.512 52.2695 161.176 52.0508C160.84 51.832 160.41 51.7227 159.887 51.7227C159.441 51.7227 159.059 51.8203 158.738 52.0156C158.418 52.2109 158.156 52.4844 157.953 52.8359C157.758 53.1875 157.609 53.6016 157.508 54.0781C157.414 54.5469 157.367 55.0625 157.367 55.625V56.0938C157.367 56.6016 157.438 57.0703 157.578 57.5C157.727 57.9297 157.934 58.3008 158.199 58.6133C158.473 58.9258 158.801 59.168 159.184 59.3398C159.574 59.5117 160.016 59.5977 160.508 59.5977C161.117 59.5977 161.684 59.4805 162.207 59.2461C162.738 59.0039 163.195 58.6406 163.578 58.1562L165.219 59.9375C164.953 60.3203 164.59 60.6875 164.129 61.0391C163.676 61.3906 163.129 61.6797 162.488 61.9062C161.848 62.125 161.117 62.2344 160.297 62.2344ZM177.523 56.3398H181.027C180.957 57.4883 180.641 58.5078 180.078 59.3984C179.523 60.2891 178.746 60.9844 177.746 61.4844C176.754 61.9844 175.559 62.2344 174.16 62.2344C173.066 62.2344 172.086 62.0469 171.219 61.6719C170.352 61.2891 169.609 60.7422 168.992 60.0312C168.383 59.3203 167.918 58.4609 167.598 57.4531C167.277 56.4453 167.117 55.3164 167.117 54.0664V52.8828C167.117 51.6328 167.281 50.5039 167.609 49.4961C167.945 48.4805 168.422 47.6172 169.039 46.9062C169.664 46.1953 170.41 45.6484 171.277 45.2656C172.145 44.8828 173.113 44.6914 174.184 44.6914C175.605 44.6914 176.805 44.9492 177.781 45.4648C178.766 45.9805 179.527 46.6914 180.066 47.5977C180.613 48.5039 180.941 49.5352 181.051 50.6914H177.535C177.496 50.0039 177.359 49.4219 177.125 48.9453C176.891 48.4609 176.535 48.0977 176.059 47.8555C175.59 47.6055 174.965 47.4805 174.184 47.4805C173.598 47.4805 173.086 47.5898 172.648 47.8086C172.211 48.0273 171.844 48.3594 171.547 48.8047C171.25 49.25 171.027 49.8125 170.879 50.4922C170.738 51.1641 170.668 51.9531 170.668 52.8594V54.0664C170.668 54.9492 170.734 55.7266 170.867 56.3984C171 57.0625 171.203 57.625 171.477 58.0859C171.758 58.5391 172.117 58.8828 172.555 59.1172C173 59.3438 173.535 59.457 174.16 59.457C174.895 59.457 175.5 59.3398 175.977 59.1055C176.453 58.8711 176.816 58.5234 177.066 58.0625C177.324 57.6016 177.477 57.0273 177.523 56.3398ZM189.969 59.1406V53.4922C189.969 53.0859 189.902 52.7383 189.77 52.4492C189.637 52.1523 189.43 51.9219 189.148 51.7578C188.875 51.5938 188.52 51.5117 188.082 51.5117C187.707 51.5117 187.383 51.5781 187.109 51.7109C186.836 51.8359 186.625 52.0195 186.477 52.2617C186.328 52.4961 186.254 52.7734 186.254 53.0938H182.879C182.879 52.5547 183.004 52.043 183.254 51.5586C183.504 51.0742 183.867 50.6484 184.344 50.2812C184.82 49.9062 185.387 49.6133 186.043 49.4023C186.707 49.1914 187.449 49.0859 188.27 49.0859C189.254 49.0859 190.129 49.25 190.895 49.5781C191.66 49.9062 192.262 50.3984 192.699 51.0547C193.145 51.7109 193.367 52.5312 193.367 53.5156V58.9414C193.367 59.6367 193.41 60.207 193.496 60.6523C193.582 61.0898 193.707 61.4727 193.871 61.8008V62H190.461C190.297 61.6562 190.172 61.2266 190.086 60.7109C190.008 60.1875 189.969 59.6641 189.969 59.1406ZM190.414 54.2773L190.438 56.1875H188.551C188.105 56.1875 187.719 56.2383 187.391 56.3398C187.062 56.4414 186.793 56.5859 186.582 56.7734C186.371 56.9531 186.215 57.1641 186.113 57.4062C186.02 57.6484 185.973 57.9141 185.973 58.2031C185.973 58.4922 186.039 58.7539 186.172 58.9883C186.305 59.2148 186.496 59.3945 186.746 59.5273C186.996 59.6523 187.289 59.7148 187.625 59.7148C188.133 59.7148 188.574 59.6133 188.949 59.4102C189.324 59.207 189.613 58.957 189.816 58.6602C190.027 58.3633 190.137 58.082 190.145 57.8164L191.035 59.2461C190.91 59.5664 190.738 59.8984 190.52 60.2422C190.309 60.5859 190.039 60.9102 189.711 61.2148C189.383 61.5117 188.988 61.7578 188.527 61.9531C188.066 62.1406 187.52 62.2344 186.887 62.2344C186.082 62.2344 185.352 62.0742 184.695 61.7539C184.047 61.4258 183.531 60.9766 183.148 60.4062C182.773 59.8281 182.586 59.1719 182.586 58.4375C182.586 57.7734 182.711 57.1836 182.961 56.668C183.211 56.1523 183.578 55.7188 184.062 55.3672C184.555 55.0078 185.168 54.7383 185.902 54.5586C186.637 54.3711 187.488 54.2773 188.457 54.2773H190.414ZM199.344 51.9453V62H195.957V49.3203H199.133L199.344 51.9453ZM198.875 55.2148H197.938C197.938 54.332 198.043 53.5195 198.254 52.7773C198.473 52.0273 198.789 51.3789 199.203 50.832C199.625 50.2773 200.145 49.8477 200.762 49.543C201.379 49.2383 202.094 49.0859 202.906 49.0859C203.469 49.0859 203.984 49.1719 204.453 49.3438C204.922 49.5078 205.324 49.7695 205.66 50.1289C206.004 50.4805 206.27 50.9414 206.457 51.5117C206.645 52.0742 206.738 52.75 206.738 53.5391V62H203.363V53.9141C203.363 53.3359 203.285 52.8906 203.129 52.5781C202.973 52.2656 202.75 52.0469 202.461 51.9219C202.18 51.7969 201.84 51.7344 201.441 51.7344C201.004 51.7344 200.621 51.8242 200.293 52.0039C199.973 52.1836 199.707 52.4336 199.496 52.7539C199.285 53.0664 199.129 53.4336 199.027 53.8555C198.926 54.2773 198.875 54.7305 198.875 55.2148ZM206.422 54.8281L205.215 54.9805C205.215 54.1523 205.316 53.3828 205.52 52.6719C205.73 51.9609 206.039 51.3359 206.445 50.7969C206.859 50.2578 207.371 49.8398 207.98 49.543C208.59 49.2383 209.293 49.0859 210.09 49.0859C210.699 49.0859 211.254 49.1758 211.754 49.3555C212.254 49.5273 212.68 49.8047 213.031 50.1875C213.391 50.5625 213.664 51.0547 213.852 51.6641C214.047 52.2734 214.145 53.0195 214.145 53.9023V62H210.758V53.9023C210.758 53.3164 210.68 52.8711 210.523 52.5664C210.375 52.2539 210.156 52.0391 209.867 51.9219C209.586 51.7969 209.25 51.7344 208.859 51.7344C208.453 51.7344 208.098 51.8164 207.793 51.9805C207.488 52.1367 207.234 52.3555 207.031 52.6367C206.828 52.918 206.676 53.2461 206.574 53.6211C206.473 53.9883 206.422 54.3906 206.422 54.8281Z" fill="#888888"/>
<path d="M109.93 86.0078V118H102.217V86.0078H109.93ZM119.554 86.0078V91.9624H92.813V86.0078H119.554ZM132.012 118.439C130.079 118.439 128.35 118.139 126.827 117.539C125.303 116.923 124.014 116.081 122.959 115.012C121.919 113.942 121.121 112.712 120.564 111.32C120.022 109.929 119.751 108.457 119.751 106.904V106.069C119.751 104.326 119.993 102.714 120.477 101.235C120.96 99.7407 121.678 98.437 122.63 97.3237C123.582 96.2104 124.776 95.3462 126.211 94.731C127.647 94.1011 129.317 93.7861 131.221 93.7861C132.906 93.7861 134.415 94.0571 135.748 94.5991C137.081 95.1411 138.208 95.9175 139.131 96.9282C140.069 97.939 140.779 99.1621 141.263 100.598C141.761 102.033 142.01 103.645 142.01 105.432V108.442H122.586V103.806H134.781V103.234C134.795 102.443 134.656 101.77 134.363 101.213C134.085 100.656 133.675 100.231 133.133 99.9385C132.591 99.6455 131.932 99.499 131.155 99.499C130.35 99.499 129.683 99.6748 129.156 100.026C128.643 100.378 128.24 100.861 127.947 101.477C127.669 102.077 127.471 102.773 127.354 103.564C127.237 104.355 127.178 105.19 127.178 106.069V106.904C127.178 107.783 127.295 108.581 127.53 109.299C127.779 110.017 128.13 110.632 128.584 111.145C129.053 111.643 129.61 112.031 130.254 112.309C130.914 112.587 131.661 112.727 132.496 112.727C133.506 112.727 134.502 112.536 135.484 112.155C136.465 111.774 137.308 111.145 138.011 110.266L141.373 114.265C140.889 114.953 140.201 115.62 139.307 116.264C138.428 116.909 137.374 117.436 136.143 117.846C134.913 118.242 133.536 118.439 132.012 118.439ZM155.062 112.727C155.75 112.727 156.336 112.602 156.819 112.353C157.317 112.089 157.691 111.723 157.94 111.254C158.204 110.771 158.328 110.192 158.313 109.519H165.279C165.293 111.306 164.854 112.873 163.96 114.221C163.082 115.554 161.88 116.594 160.357 117.341C158.848 118.073 157.142 118.439 155.237 118.439C153.377 118.439 151.751 118.139 150.359 117.539C148.968 116.923 147.803 116.074 146.866 114.99C145.943 113.891 145.247 112.609 144.778 111.145C144.324 109.68 144.097 108.09 144.097 106.376V105.871C144.097 104.157 144.324 102.568 144.778 101.103C145.247 99.6235 145.943 98.3418 146.866 97.2578C147.803 96.1592 148.96 95.3096 150.337 94.709C151.729 94.0938 153.348 93.7861 155.193 93.7861C157.171 93.7861 158.914 94.1597 160.423 94.9067C161.946 95.6538 163.14 96.7378 164.004 98.1587C164.869 99.5796 165.293 101.301 165.279 103.322H158.313C158.328 102.604 158.218 101.96 157.984 101.389C157.75 100.817 157.383 100.363 156.885 100.026C156.402 99.6748 155.779 99.499 155.018 99.499C154.256 99.499 153.641 99.6675 153.172 100.004C152.703 100.341 152.344 100.81 152.095 101.411C151.861 101.997 151.7 102.67 151.612 103.432C151.539 104.194 151.502 105.007 151.502 105.871V106.376C151.502 107.255 151.539 108.083 151.612 108.859C151.7 109.621 151.868 110.295 152.117 110.881C152.366 111.452 152.725 111.906 153.194 112.243C153.663 112.565 154.285 112.727 155.062 112.727ZM175.694 84.25V118H168.289V84.25H175.694ZM174.815 105.3L173.079 105.344C173.079 103.674 173.284 102.136 173.694 100.729C174.104 99.3232 174.69 98.1001 175.452 97.0601C176.214 96.02 177.129 95.2144 178.199 94.6431C179.268 94.0718 180.455 93.7861 181.758 93.7861C182.93 93.7861 184 93.9546 184.966 94.2915C185.948 94.6284 186.79 95.1704 187.493 95.9175C188.211 96.6646 188.76 97.6387 189.141 98.8398C189.537 100.041 189.734 101.506 189.734 103.234V118H182.286V103.19C182.286 102.224 182.146 101.477 181.868 100.949C181.604 100.407 181.224 100.034 180.726 99.8286C180.228 99.6089 179.62 99.499 178.902 99.499C178.038 99.499 177.334 99.6455 176.792 99.9385C176.25 100.231 175.833 100.642 175.54 101.169C175.262 101.682 175.071 102.29 174.969 102.993C174.866 103.696 174.815 104.465 174.815 105.3ZM221.88 109.497C221.88 108.999 221.807 108.552 221.661 108.156C221.514 107.746 221.243 107.365 220.848 107.014C220.452 106.662 219.881 106.311 219.134 105.959C218.401 105.593 217.435 105.212 216.233 104.816C214.827 104.348 213.472 103.82 212.168 103.234C210.865 102.634 209.7 101.938 208.675 101.147C207.649 100.341 206.836 99.4038 206.236 98.3345C205.635 97.2505 205.335 95.9907 205.335 94.5552C205.335 93.1782 205.643 91.9404 206.258 90.8418C206.873 89.7285 207.73 88.7837 208.829 88.0073C209.942 87.2163 211.246 86.6157 212.74 86.2056C214.234 85.7808 215.867 85.5684 217.64 85.5684C219.983 85.5684 222.049 85.9785 223.836 86.7988C225.638 87.6045 227.044 88.7544 228.055 90.2485C229.08 91.728 229.593 93.4785 229.593 95.5H221.924C221.924 94.6943 221.756 93.9839 221.419 93.3687C221.097 92.7534 220.606 92.27 219.947 91.9185C219.288 91.5669 218.46 91.3911 217.464 91.3911C216.497 91.3911 215.684 91.5376 215.025 91.8306C214.366 92.1235 213.868 92.519 213.531 93.0171C213.194 93.5005 213.025 94.0352 213.025 94.6211C213.025 95.1045 213.157 95.5439 213.421 95.9395C213.699 96.3203 214.087 96.6792 214.585 97.0161C215.098 97.353 215.713 97.6753 216.431 97.9829C217.164 98.2905 217.984 98.5908 218.892 98.8838C220.591 99.4258 222.1 100.034 223.418 100.708C224.751 101.367 225.872 102.121 226.78 102.971C227.703 103.806 228.399 104.758 228.868 105.827C229.351 106.896 229.593 108.105 229.593 109.453C229.593 110.888 229.314 112.163 228.758 113.276C228.201 114.389 227.403 115.334 226.363 116.11C225.323 116.872 224.078 117.451 222.627 117.846C221.177 118.242 219.559 118.439 217.771 118.439C216.131 118.439 214.512 118.234 212.916 117.824C211.333 117.399 209.898 116.755 208.609 115.891C207.32 115.012 206.287 113.891 205.511 112.529C204.749 111.152 204.368 109.519 204.368 107.629H212.103C212.103 108.566 212.227 109.357 212.476 110.002C212.725 110.646 213.091 111.167 213.575 111.562C214.058 111.943 214.651 112.221 215.354 112.397C216.058 112.558 216.863 112.639 217.771 112.639C218.753 112.639 219.544 112.5 220.145 112.221C220.745 111.928 221.185 111.547 221.463 111.079C221.741 110.595 221.88 110.068 221.88 109.497ZM245.743 94.2256V99.3672H231.417V94.2256H245.743ZM234.427 88.3149H241.832V110.244C241.832 110.874 241.905 111.364 242.051 111.716C242.198 112.053 242.447 112.294 242.798 112.441C243.165 112.573 243.648 112.639 244.249 112.639C244.673 112.639 245.025 112.631 245.303 112.617C245.582 112.587 245.845 112.551 246.094 112.507V117.802C245.464 118.007 244.805 118.161 244.117 118.264C243.428 118.381 242.696 118.439 241.919 118.439C240.337 118.439 238.982 118.19 237.854 117.692C236.741 117.194 235.892 116.411 235.306 115.341C234.72 114.272 234.427 112.88 234.427 111.167V88.3149ZM261.036 112.023V102.224C261.036 101.55 260.94 100.971 260.75 100.488C260.56 100.004 260.259 99.6309 259.849 99.3672C259.439 99.0889 258.89 98.9497 258.201 98.9497C257.645 98.9497 257.168 99.0449 256.773 99.2354C256.377 99.4258 256.077 99.7114 255.872 100.092C255.667 100.473 255.564 100.957 255.564 101.542H248.16C248.16 100.444 248.401 99.4258 248.885 98.4883C249.383 97.5361 250.086 96.7085 250.994 96.0054C251.917 95.3022 253.016 94.7603 254.29 94.3794C255.579 93.9839 257.015 93.7861 258.597 93.7861C260.486 93.7861 262.171 94.1011 263.65 94.731C265.145 95.3608 266.324 96.3057 267.188 97.5654C268.052 98.8105 268.484 100.378 268.484 102.268V112.001C268.484 113.554 268.572 114.733 268.748 115.539C268.924 116.33 269.173 117.026 269.495 117.626V118H262.068C261.717 117.268 261.453 116.374 261.277 115.319C261.116 114.25 261.036 113.151 261.036 112.023ZM261.937 103.476L261.98 107.431H258.707C258.018 107.431 257.432 107.526 256.949 107.717C256.48 107.907 256.099 108.171 255.806 108.508C255.528 108.83 255.323 109.196 255.191 109.606C255.074 110.017 255.015 110.449 255.015 110.903C255.015 111.342 255.118 111.738 255.323 112.089C255.542 112.426 255.835 112.69 256.202 112.88C256.568 113.071 256.978 113.166 257.432 113.166C258.252 113.166 258.948 113.012 259.52 112.705C260.105 112.382 260.552 111.994 260.86 111.54C261.167 111.086 261.321 110.661 261.321 110.266L262.947 113.298C262.654 113.884 262.317 114.477 261.937 115.078C261.57 115.678 261.109 116.235 260.552 116.748C260.01 117.246 259.344 117.656 258.553 117.978C257.762 118.286 256.802 118.439 255.674 118.439C254.209 118.439 252.862 118.139 251.631 117.539C250.416 116.938 249.441 116.103 248.709 115.034C247.977 113.95 247.61 112.705 247.61 111.298C247.61 110.068 247.83 108.969 248.27 108.002C248.724 107.036 249.405 106.215 250.313 105.542C251.221 104.868 252.378 104.355 253.785 104.003C255.191 103.652 256.846 103.476 258.75 103.476H261.937ZM282.635 112.727C283.323 112.727 283.909 112.602 284.393 112.353C284.891 112.089 285.264 111.723 285.513 111.254C285.777 110.771 285.901 110.192 285.887 109.519H292.852C292.867 111.306 292.427 112.873 291.534 114.221C290.655 115.554 289.454 116.594 287.93 117.341C286.421 118.073 284.715 118.439 282.811 118.439C280.95 118.439 279.324 118.139 277.933 117.539C276.541 116.923 275.376 116.074 274.439 114.99C273.516 113.891 272.82 112.609 272.352 111.145C271.897 109.68 271.67 108.09 271.67 106.376V105.871C271.67 104.157 271.897 102.568 272.352 101.103C272.82 99.6235 273.516 98.3418 274.439 97.2578C275.376 96.1592 276.534 95.3096 277.911 94.709C279.302 94.0938 280.921 93.7861 282.767 93.7861C284.744 93.7861 286.487 94.1597 287.996 94.9067C289.52 95.6538 290.713 96.7378 291.578 98.1587C292.442 99.5796 292.867 101.301 292.852 103.322H285.887C285.901 102.604 285.792 101.96 285.557 101.389C285.323 100.817 284.957 100.363 284.458 100.026C283.975 99.6748 283.353 99.499 282.591 99.499C281.829 99.499 281.214 99.6675 280.745 100.004C280.276 100.341 279.917 100.81 279.668 101.411C279.434 101.997 279.273 102.67 279.185 103.432C279.112 104.194 279.075 105.007 279.075 105.871V106.376C279.075 107.255 279.112 108.083 279.185 108.859C279.273 109.621 279.441 110.295 279.69 110.881C279.939 111.452 280.298 111.906 280.767 112.243C281.236 112.565 281.858 112.727 282.635 112.727ZM303.487 84.228V118H296.082V84.228H303.487ZM318.692 94.2256L308.365 106.333L302.959 111.738L299.729 107.036L304.234 101.169L309.815 94.2256H318.692ZM310.76 118L304.41 107.167L309.881 103.278L319.241 118H310.76Z" fill="#424241"/>
<path d="M1363 15C1363 6.71573 1356.28 0 1348 0H1134V167H1348C1356.28 167 1363 160.284 1363 152V15Z" fill="#8293EE"/>
<path fill-rule="evenodd" clip-rule="evenodd" d="M1218.5 55C1218.37 55 1218.24 55.0527 1218.15 55.1464C1218.05 55.2402 1218 55.3674 1218 55.5V111.5C1218 111.633 1218.05 111.76 1218.15 111.854C1218.24 111.947 1218.37 112 1218.5 112H1278C1278.13 112 1278.26 111.947 1278.35 111.854C1278.45 111.76 1278.5 111.633 1278.5 111.5V66C1278.5 65.8674 1278.45 65.7402 1278.35 65.6464C1278.26 65.5527 1278.13 65.5 1278 65.5H1248.25C1247.36 65.5 1246.52 65.1045 1245.95 64.4206L1238.09 55H1218.5ZM1213.9 50.9038C1215.12 49.6848 1216.78 49 1218.5 49H1239.5C1240.39 49 1241.23 49.3955 1241.8 50.0794L1249.66 59.5H1278C1279.72 59.5 1281.38 60.1848 1282.6 61.4038C1283.82 62.6228 1284.5 64.2761 1284.5 66V111.5C1284.5 113.224 1283.82 114.877 1282.6 116.096C1281.38 117.315 1279.72 118 1278 118H1218.5C1216.78 118 1215.12 117.315 1213.9 116.096C1212.68 114.877 1212 113.224 1212 111.5V55.5C1212 53.7761 1212.68 52.1228 1213.9 50.9038Z" fill="white"/>
<path fill-rule="evenodd" clip-rule="evenodd" d="M1243.72 77.5251C1245.09 78.892 1245.09 81.108 1243.72 82.4749L1237.45 88.75L1243.72 95.0251C1245.09 96.392 1245.09 98.608 1243.72 99.9749C1242.36 101.342 1240.14 101.342 1238.78 99.9749L1230.03 91.2249C1228.66 89.858 1228.66 87.642 1230.03 86.2751L1238.78 77.5251C1240.14 76.1583 1242.36 76.1583 1243.72 77.5251Z" fill="white"/>
<path fill-rule="evenodd" clip-rule="evenodd" d="M1252.03 99.9749C1250.66 98.608 1250.66 96.392 1252.03 95.0251L1258.3 88.75L1252.03 82.4749C1250.66 81.108 1250.66 78.892 1252.03 77.5251C1253.39 76.1583 1255.61 76.1583 1256.97 77.5251L1265.72 86.2751C1267.09 87.642 1267.09 89.858 1265.72 91.2249L1256.97 99.9749C1255.61 101.342 1253.39 101.342 1252.03 99.9749Z" fill="white"/>
</svg>
