<svg width="1363" height="167" viewBox="0 0 1363 167" fill="none" xmlns="http://www.w3.org/2000/svg">
<rect width="1363" height="167" rx="15" fill="#F0F0F0"/>
<path d="M0 15C0 6.71573 6.71573 0 15 0H37V167H15C6.71573 167 0 160.284 0 152V15Z" fill="#424241"/>
<path d="M100.906 54.9219L93.3945 52.2383V49.0859L103.602 53.375V55.6367L100.906 54.9219ZM93.3945 57.1719L100.918 54.4297L103.602 53.7852V56.0352L93.3945 60.3242V57.1719ZM121.789 56.3398H125.293C125.223 57.4883 124.906 58.5078 124.344 59.3984C123.789 60.2891 123.012 60.9844 122.012 61.4844C121.02 61.9844 119.824 62.2344 118.426 62.2344C117.332 62.2344 116.352 62.0469 115.484 61.6719C114.617 61.2891 113.875 60.7422 113.258 60.0312C112.648 59.3203 112.184 58.4609 111.863 57.4531C111.543 56.4453 111.383 55.3164 111.383 54.0664V52.8828C111.383 51.6328 111.547 50.5039 111.875 49.4961C112.211 48.4805 112.688 47.6172 113.305 46.9062C113.93 46.1953 114.676 45.6484 115.543 45.2656C116.41 44.8828 117.379 44.6914 118.449 44.6914C119.871 44.6914 121.07 44.9492 122.047 45.4648C123.031 45.9805 123.793 46.6914 124.332 47.5977C124.879 48.5039 125.207 49.5352 125.316 50.6914H121.801C121.762 50.0039 121.625 49.4219 121.391 48.9453C121.156 48.4609 120.801 48.0977 120.324 47.8555C119.855 47.6055 119.23 47.4805 118.449 47.4805C117.863 47.4805 117.352 47.5898 116.914 47.8086C116.477 48.0273 116.109 48.3594 115.812 48.8047C115.516 49.25 115.293 49.8125 115.145 50.4922C115.004 51.1641 114.934 51.9531 114.934 52.8594V54.0664C114.934 54.9492 115 55.7266 115.133 56.3984C115.266 57.0625 115.469 57.625 115.742 58.0859C116.023 58.5391 116.383 58.8828 116.82 59.1172C117.266 59.3438 117.801 59.457 118.426 59.457C119.16 59.457 119.766 59.3398 120.242 59.1055C120.719 58.8711 121.082 58.5234 121.332 58.0625C121.59 57.6016 121.742 57.0273 121.789 56.3398ZM126.852 55.7891V55.543C126.852 54.6133 126.984 53.7578 127.25 52.9766C127.516 52.1875 127.902 51.5039 128.41 50.9258C128.918 50.3477 129.543 49.8984 130.285 49.5781C131.027 49.25 131.879 49.0859 132.84 49.0859C133.801 49.0859 134.656 49.25 135.406 49.5781C136.156 49.8984 136.785 50.3477 137.293 50.9258C137.809 51.5039 138.199 52.1875 138.465 52.9766C138.73 53.7578 138.863 54.6133 138.863 55.543V55.7891C138.863 56.7109 138.73 57.5664 138.465 58.3555C138.199 59.1367 137.809 59.8203 137.293 60.4062C136.785 60.9844 136.16 61.4336 135.418 61.7539C134.676 62.0742 133.824 62.2344 132.863 62.2344C131.902 62.2344 131.047 62.0742 130.297 61.7539C129.555 61.4336 128.926 60.9844 128.41 60.4062C127.902 59.8203 127.516 59.1367 127.25 58.3555C126.984 57.5664 126.852 56.7109 126.852 55.7891ZM130.227 55.543V55.7891C130.227 56.3203 130.273 56.8164 130.367 57.2773C130.461 57.7383 130.609 58.1445 130.812 58.4961C131.023 58.8398 131.297 59.1094 131.633 59.3047C131.969 59.5 132.379 59.5977 132.863 59.5977C133.332 59.5977 133.734 59.5 134.07 59.3047C134.406 59.1094 134.676 58.8398 134.879 58.4961C135.082 58.1445 135.23 57.7383 135.324 57.2773C135.426 56.8164 135.477 56.3203 135.477 55.7891V55.543C135.477 55.0273 135.426 54.543 135.324 54.0898C135.23 53.6289 135.078 53.2227 134.867 52.8711C134.664 52.5117 134.395 52.2305 134.059 52.0273C133.723 51.8242 133.316 51.7227 132.84 51.7227C132.363 51.7227 131.957 51.8242 131.621 52.0273C131.293 52.2305 131.023 52.5117 130.812 52.8711C130.609 53.2227 130.461 53.6289 130.367 54.0898C130.273 54.543 130.227 55.0273 130.227 55.543ZM148.426 59.2344V44H151.824V62H148.766L148.426 59.2344ZM140.41 55.8125V55.5664C140.41 54.5977 140.52 53.7188 140.738 52.9297C140.957 52.1328 141.277 51.4492 141.699 50.8789C142.121 50.3086 142.641 49.8672 143.258 49.5547C143.875 49.2422 144.578 49.0859 145.367 49.0859C146.109 49.0859 146.758 49.2422 147.312 49.5547C147.875 49.8672 148.352 50.3125 148.742 50.8906C149.141 51.4609 149.461 52.1367 149.703 52.918C149.945 53.6914 150.121 54.5391 150.23 55.4609V56C150.121 56.8828 149.945 57.7031 149.703 58.4609C149.461 59.2188 149.141 59.8828 148.742 60.4531C148.352 61.0156 147.875 61.4531 147.312 61.7656C146.75 62.0781 146.094 62.2344 145.344 62.2344C144.555 62.2344 143.852 62.0742 143.234 61.7539C142.625 61.4336 142.109 60.9844 141.688 60.4062C141.273 59.8281 140.957 59.1484 140.738 58.3672C140.52 57.5859 140.41 56.7344 140.41 55.8125ZM143.785 55.5664V55.8125C143.785 56.3359 143.824 56.8242 143.902 57.2773C143.988 57.7305 144.125 58.1328 144.312 58.4844C144.508 58.8281 144.758 59.0977 145.062 59.293C145.375 59.4805 145.754 59.5742 146.199 59.5742C146.777 59.5742 147.254 59.4453 147.629 59.1875C148.004 58.9219 148.289 58.5586 148.484 58.0977C148.688 57.6367 148.805 57.1055 148.836 56.5039V54.9688C148.812 54.4766 148.742 54.0352 148.625 53.6445C148.516 53.2461 148.352 52.9062 148.133 52.625C147.922 52.3438 147.656 52.125 147.336 51.9688C147.023 51.8125 146.652 51.7344 146.223 51.7344C145.785 51.7344 145.41 51.8359 145.098 52.0391C144.785 52.2344 144.531 52.5039 144.336 52.8477C144.148 53.1914 144.008 53.5977 143.914 54.0664C143.828 54.5273 143.785 55.0273 143.785 55.5664ZM160.297 62.2344C159.312 62.2344 158.43 62.0781 157.648 61.7656C156.867 61.4453 156.203 61.0039 155.656 60.4414C155.117 59.8789 154.703 59.2266 154.414 58.4844C154.125 57.7344 153.98 56.9375 153.98 56.0938V55.625C153.98 54.6641 154.117 53.7852 154.391 52.9883C154.664 52.1914 155.055 51.5 155.562 50.9141C156.078 50.3281 156.703 49.8789 157.438 49.5664C158.172 49.2461 159 49.0859 159.922 49.0859C160.82 49.0859 161.617 49.2344 162.312 49.5312C163.008 49.8281 163.59 50.25 164.059 50.7969C164.535 51.3438 164.895 52 165.137 52.7656C165.379 53.5234 165.5 54.3672 165.5 55.2969V56.7031H155.422V54.4531H162.184V54.1953C162.184 53.7266 162.098 53.3086 161.926 52.9414C161.762 52.5664 161.512 52.2695 161.176 52.0508C160.84 51.832 160.41 51.7227 159.887 51.7227C159.441 51.7227 159.059 51.8203 158.738 52.0156C158.418 52.2109 158.156 52.4844 157.953 52.8359C157.758 53.1875 157.609 53.6016 157.508 54.0781C157.414 54.5469 157.367 55.0625 157.367 55.625V56.0938C157.367 56.6016 157.438 57.0703 157.578 57.5C157.727 57.9297 157.934 58.3008 158.199 58.6133C158.473 58.9258 158.801 59.168 159.184 59.3398C159.574 59.5117 160.016 59.5977 160.508 59.5977C161.117 59.5977 161.684 59.4805 162.207 59.2461C162.738 59.0039 163.195 58.6406 163.578 58.1562L165.219 59.9375C164.953 60.3203 164.59 60.6875 164.129 61.0391C163.676 61.3906 163.129 61.6797 162.488 61.9062C161.848 62.125 161.117 62.2344 160.297 62.2344ZM177.523 56.3398H181.027C180.957 57.4883 180.641 58.5078 180.078 59.3984C179.523 60.2891 178.746 60.9844 177.746 61.4844C176.754 61.9844 175.559 62.2344 174.16 62.2344C173.066 62.2344 172.086 62.0469 171.219 61.6719C170.352 61.2891 169.609 60.7422 168.992 60.0312C168.383 59.3203 167.918 58.4609 167.598 57.4531C167.277 56.4453 167.117 55.3164 167.117 54.0664V52.8828C167.117 51.6328 167.281 50.5039 167.609 49.4961C167.945 48.4805 168.422 47.6172 169.039 46.9062C169.664 46.1953 170.41 45.6484 171.277 45.2656C172.145 44.8828 173.113 44.6914 174.184 44.6914C175.605 44.6914 176.805 44.9492 177.781 45.4648C178.766 45.9805 179.527 46.6914 180.066 47.5977C180.613 48.5039 180.941 49.5352 181.051 50.6914H177.535C177.496 50.0039 177.359 49.4219 177.125 48.9453C176.891 48.4609 176.535 48.0977 176.059 47.8555C175.59 47.6055 174.965 47.4805 174.184 47.4805C173.598 47.4805 173.086 47.5898 172.648 47.8086C172.211 48.0273 171.844 48.3594 171.547 48.8047C171.25 49.25 171.027 49.8125 170.879 50.4922C170.738 51.1641 170.668 51.9531 170.668 52.8594V54.0664C170.668 54.9492 170.734 55.7266 170.867 56.3984C171 57.0625 171.203 57.625 171.477 58.0859C171.758 58.5391 172.117 58.8828 172.555 59.1172C173 59.3438 173.535 59.457 174.16 59.457C174.895 59.457 175.5 59.3398 175.977 59.1055C176.453 58.8711 176.816 58.5234 177.066 58.0625C177.324 57.6016 177.477 57.0273 177.523 56.3398ZM189.969 59.1406V53.4922C189.969 53.0859 189.902 52.7383 189.77 52.4492C189.637 52.1523 189.43 51.9219 189.148 51.7578C188.875 51.5938 188.52 51.5117 188.082 51.5117C187.707 51.5117 187.383 51.5781 187.109 51.7109C186.836 51.8359 186.625 52.0195 186.477 52.2617C186.328 52.4961 186.254 52.7734 186.254 53.0938H182.879C182.879 52.5547 183.004 52.043 183.254 51.5586C183.504 51.0742 183.867 50.6484 184.344 50.2812C184.82 49.9062 185.387 49.6133 186.043 49.4023C186.707 49.1914 187.449 49.0859 188.27 49.0859C189.254 49.0859 190.129 49.25 190.895 49.5781C191.66 49.9062 192.262 50.3984 192.699 51.0547C193.145 51.7109 193.367 52.5312 193.367 53.5156V58.9414C193.367 59.6367 193.41 60.207 193.496 60.6523C193.582 61.0898 193.707 61.4727 193.871 61.8008V62H190.461C190.297 61.6562 190.172 61.2266 190.086 60.7109C190.008 60.1875 189.969 59.6641 189.969 59.1406ZM190.414 54.2773L190.438 56.1875H188.551C188.105 56.1875 187.719 56.2383 187.391 56.3398C187.062 56.4414 186.793 56.5859 186.582 56.7734C186.371 56.9531 186.215 57.1641 186.113 57.4062C186.02 57.6484 185.973 57.9141 185.973 58.2031C185.973 58.4922 186.039 58.7539 186.172 58.9883C186.305 59.2148 186.496 59.3945 186.746 59.5273C186.996 59.6523 187.289 59.7148 187.625 59.7148C188.133 59.7148 188.574 59.6133 188.949 59.4102C189.324 59.207 189.613 58.957 189.816 58.6602C190.027 58.3633 190.137 58.082 190.145 57.8164L191.035 59.2461C190.91 59.5664 190.738 59.8984 190.52 60.2422C190.309 60.5859 190.039 60.9102 189.711 61.2148C189.383 61.5117 188.988 61.7578 188.527 61.9531C188.066 62.1406 187.52 62.2344 186.887 62.2344C186.082 62.2344 185.352 62.0742 184.695 61.7539C184.047 61.4258 183.531 60.9766 183.148 60.4062C182.773 59.8281 182.586 59.1719 182.586 58.4375C182.586 57.7734 182.711 57.1836 182.961 56.668C183.211 56.1523 183.578 55.7188 184.062 55.3672C184.555 55.0078 185.168 54.7383 185.902 54.5586C186.637 54.3711 187.488 54.2773 188.457 54.2773H190.414ZM199.344 51.9453V62H195.957V49.3203H199.133L199.344 51.9453ZM198.875 55.2148H197.938C197.938 54.332 198.043 53.5195 198.254 52.7773C198.473 52.0273 198.789 51.3789 199.203 50.832C199.625 50.2773 200.145 49.8477 200.762 49.543C201.379 49.2383 202.094 49.0859 202.906 49.0859C203.469 49.0859 203.984 49.1719 204.453 49.3438C204.922 49.5078 205.324 49.7695 205.66 50.1289C206.004 50.4805 206.27 50.9414 206.457 51.5117C206.645 52.0742 206.738 52.75 206.738 53.5391V62H203.363V53.9141C203.363 53.3359 203.285 52.8906 203.129 52.5781C202.973 52.2656 202.75 52.0469 202.461 51.9219C202.18 51.7969 201.84 51.7344 201.441 51.7344C201.004 51.7344 200.621 51.8242 200.293 52.0039C199.973 52.1836 199.707 52.4336 199.496 52.7539C199.285 53.0664 199.129 53.4336 199.027 53.8555C198.926 54.2773 198.875 54.7305 198.875 55.2148ZM206.422 54.8281L205.215 54.9805C205.215 54.1523 205.316 53.3828 205.52 52.6719C205.73 51.9609 206.039 51.3359 206.445 50.7969C206.859 50.2578 207.371 49.8398 207.98 49.543C208.59 49.2383 209.293 49.0859 210.09 49.0859C210.699 49.0859 211.254 49.1758 211.754 49.3555C212.254 49.5273 212.68 49.8047 213.031 50.1875C213.391 50.5625 213.664 51.0547 213.852 51.6641C214.047 52.2734 214.145 53.0195 214.145 53.9023V62H210.758V53.9023C210.758 53.3164 210.68 52.8711 210.523 52.5664C210.375 52.2539 210.156 52.0391 209.867 51.9219C209.586 51.7969 209.25 51.7344 208.859 51.7344C208.453 51.7344 208.098 51.8164 207.793 51.9805C207.488 52.1367 207.234 52.3555 207.031 52.6367C206.828 52.918 206.676 53.2461 206.574 53.6211C206.473 53.9883 206.422 54.3906 206.422 54.8281Z" fill="#888888"/>
<path d="M115.994 98.708V104.641H99.5806V98.708H115.994ZM102.151 86.0078V118H94.439V86.0078H102.151ZM121.18 86.0078V118H113.489V86.0078H121.18ZM124.805 106.354V105.893C124.805 104.15 125.054 102.546 125.552 101.081C126.05 99.6016 126.783 98.3198 127.75 97.2358C128.716 96.1519 129.91 95.3096 131.331 94.709C132.752 94.0938 134.393 93.7861 136.253 93.7861C138.128 93.7861 139.776 94.0938 141.197 94.709C142.632 95.3096 143.833 96.1519 144.8 97.2358C145.767 98.3198 146.5 99.6016 146.998 101.081C147.496 102.546 147.745 104.15 147.745 105.893V106.354C147.745 108.083 147.496 109.687 146.998 111.167C146.5 112.631 145.767 113.913 144.8 115.012C143.833 116.096 142.64 116.938 141.219 117.539C139.798 118.139 138.157 118.439 136.297 118.439C134.437 118.439 132.789 118.139 131.353 117.539C129.917 116.938 128.716 116.096 127.75 115.012C126.783 113.913 126.05 112.631 125.552 111.167C125.054 109.687 124.805 108.083 124.805 106.354ZM132.21 105.893V106.354C132.21 107.248 132.276 108.083 132.408 108.859C132.54 109.636 132.759 110.317 133.067 110.903C133.375 111.474 133.792 111.921 134.319 112.243C134.847 112.565 135.506 112.727 136.297 112.727C137.073 112.727 137.718 112.565 138.23 112.243C138.758 111.921 139.175 111.474 139.483 110.903C139.791 110.317 140.01 109.636 140.142 108.859C140.274 108.083 140.34 107.248 140.34 106.354V105.893C140.34 105.029 140.274 104.216 140.142 103.454C140.01 102.678 139.791 101.997 139.483 101.411C139.175 100.81 138.758 100.341 138.23 100.004C137.703 99.6675 137.044 99.499 136.253 99.499C135.477 99.499 134.825 99.6675 134.297 100.004C133.785 100.341 133.375 100.81 133.067 101.411C132.759 101.997 132.54 102.678 132.408 103.454C132.276 104.216 132.21 105.029 132.21 105.893ZM158.27 110.925L162.664 94.2256H167.3L165.652 102.597L161.302 118H157.588L158.27 110.925ZM156.534 94.2256L159.258 110.793L159.566 118H155.062L149.437 94.2256H156.534ZM171.211 110.441L173.958 94.2256H181.055L175.474 118H170.97L171.211 110.441ZM167.828 94.2256L172.266 110.881L172.947 118H169.19L164.927 102.641L163.345 94.2256H167.828ZM209.466 86.0078V118H201.753V86.0078H209.466ZM219.09 86.0078V91.9624H192.349V86.0078H219.09ZM216.475 106.354V105.893C216.475 104.15 216.724 102.546 217.222 101.081C217.72 99.6016 218.453 98.3198 219.419 97.2358C220.386 96.1519 221.58 95.3096 223.001 94.709C224.422 94.0938 226.062 93.7861 227.923 93.7861C229.798 93.7861 231.446 94.0938 232.867 94.709C234.302 95.3096 235.503 96.1519 236.47 97.2358C237.437 98.3198 238.169 99.6016 238.667 101.081C239.166 102.546 239.415 104.15 239.415 105.893V106.354C239.415 108.083 239.166 109.687 238.667 111.167C238.169 112.631 237.437 113.913 236.47 115.012C235.503 116.096 234.31 116.938 232.889 117.539C231.468 118.139 229.827 118.439 227.967 118.439C226.106 118.439 224.458 118.139 223.023 117.539C221.587 116.938 220.386 116.096 219.419 115.012C218.453 113.913 217.72 112.631 217.222 111.167C216.724 109.687 216.475 108.083 216.475 106.354ZM223.88 105.893V106.354C223.88 107.248 223.946 108.083 224.078 108.859C224.209 109.636 224.429 110.317 224.737 110.903C225.044 111.474 225.462 111.921 225.989 112.243C226.517 112.565 227.176 112.727 227.967 112.727C228.743 112.727 229.388 112.565 229.9 112.243C230.428 111.921 230.845 111.474 231.153 110.903C231.46 110.317 231.68 109.636 231.812 108.859C231.944 108.083 232.01 107.248 232.01 106.354V105.893C232.01 105.029 231.944 104.216 231.812 103.454C231.68 102.678 231.46 101.997 231.153 101.411C230.845 100.81 230.428 100.341 229.9 100.004C229.373 99.6675 228.714 99.499 227.923 99.499C227.146 99.499 226.495 99.6675 225.967 100.004C225.455 100.341 225.044 100.81 224.737 101.411C224.429 101.997 224.209 102.678 224.078 103.454C223.946 104.216 223.88 105.029 223.88 105.893ZM254.268 86.0078H266.858C269.319 86.0078 271.458 86.374 273.274 87.1064C275.091 87.8389 276.49 88.9229 277.471 90.3584C278.467 91.7939 278.965 93.5664 278.965 95.6758C278.965 97.5068 278.68 99.0376 278.108 100.268C277.537 101.499 276.739 102.517 275.713 103.322C274.703 104.113 273.523 104.765 272.176 105.278L269.649 106.706H259.08L259.036 100.751H266.858C267.84 100.751 268.653 100.576 269.297 100.224C269.942 99.8726 270.425 99.3745 270.748 98.73C271.084 98.0708 271.253 97.2871 271.253 96.3789C271.253 95.4561 271.084 94.665 270.748 94.0059C270.411 93.3467 269.913 92.8413 269.253 92.4897C268.609 92.1382 267.811 91.9624 266.858 91.9624H261.98V118H254.268V86.0078ZM271.78 118L264.705 103.85L272.879 103.806L280.042 117.67V118H271.78ZM297.159 112.221V94.2256H304.585V118H297.642L297.159 112.221ZM297.862 107.387L299.795 107.343C299.795 108.94 299.605 110.419 299.224 111.782C298.843 113.129 298.279 114.301 297.532 115.297C296.8 116.293 295.892 117.07 294.808 117.626C293.738 118.168 292.5 118.439 291.094 118.439C289.922 118.439 288.846 118.278 287.864 117.956C286.897 117.619 286.062 117.099 285.359 116.396C284.656 115.678 284.107 114.763 283.711 113.649C283.331 112.521 283.14 111.174 283.14 109.606V94.2256H290.545V109.65C290.545 110.178 290.611 110.632 290.743 111.013C290.875 111.394 291.065 111.716 291.314 111.979C291.563 112.229 291.871 112.419 292.237 112.551C292.618 112.668 293.05 112.727 293.533 112.727C294.646 112.727 295.518 112.492 296.148 112.023C296.778 111.555 297.217 110.917 297.466 110.112C297.73 109.306 297.862 108.398 297.862 107.387ZM315.945 99.3013V118H308.541V94.2256H315.484L315.945 99.3013ZM315.066 105.3L313.331 105.344C313.331 103.527 313.55 101.909 313.99 100.488C314.429 99.0522 315.052 97.8364 315.857 96.8403C316.663 95.8442 317.623 95.0898 318.736 94.5771C319.864 94.0498 321.116 93.7861 322.493 93.7861C323.592 93.7861 324.595 93.9473 325.503 94.2695C326.426 94.5918 327.217 95.1118 327.876 95.8296C328.55 96.5474 329.063 97.4995 329.415 98.686C329.781 99.8579 329.964 101.308 329.964 103.037V118H322.515V103.015C322.515 102.062 322.383 101.337 322.12 100.839C321.856 100.327 321.475 99.9751 320.977 99.7847C320.479 99.5942 319.871 99.499 319.153 99.499C318.392 99.499 317.747 99.6455 317.22 99.9385C316.692 100.231 316.268 100.642 315.945 101.169C315.638 101.682 315.411 102.29 315.264 102.993C315.132 103.696 315.066 104.465 315.066 105.3ZM345.85 107.871H339.544C339.544 106.582 339.632 105.446 339.808 104.465C339.998 103.469 340.32 102.575 340.774 101.784C341.229 100.993 341.844 100.261 342.62 99.5869C343.309 99.0156 343.902 98.4663 344.4 97.939C344.898 97.4116 345.279 96.877 345.542 96.335C345.806 95.793 345.938 95.2144 345.938 94.5991C345.938 93.8374 345.828 93.2148 345.608 92.7314C345.403 92.248 345.088 91.8892 344.664 91.6548C344.253 91.4058 343.733 91.2812 343.104 91.2812C342.591 91.2812 342.107 91.4058 341.653 91.6548C341.214 91.9038 340.855 92.292 340.577 92.8193C340.298 93.332 340.145 94.0132 340.115 94.8628H332.667C332.71 92.6802 333.194 90.9077 334.117 89.5454C335.054 88.1685 336.299 87.165 337.852 86.5352C339.419 85.8906 341.17 85.5684 343.104 85.5684C345.242 85.5684 347.081 85.8979 348.619 86.5571C350.157 87.2163 351.336 88.1978 352.156 89.5015C352.977 90.7905 353.387 92.3799 353.387 94.2695C353.387 95.5293 353.145 96.6279 352.662 97.5654C352.193 98.4883 351.556 99.3525 350.75 100.158C349.959 100.949 349.073 101.799 348.091 102.707C347.242 103.454 346.663 104.216 346.355 104.992C346.048 105.754 345.879 106.713 345.85 107.871ZM338.643 114.55C338.643 113.496 339.024 112.617 339.786 111.914C340.547 111.196 341.536 110.837 342.752 110.837C343.968 110.837 344.957 111.196 345.718 111.914C346.48 112.617 346.861 113.496 346.861 114.55C346.861 115.605 346.48 116.491 345.718 117.209C344.957 117.912 343.968 118.264 342.752 118.264C341.536 118.264 340.547 117.912 339.786 117.209C339.024 116.491 338.643 115.605 338.643 114.55Z" fill="#424241"/>
<path d="M1363 15C1363 6.71573 1356.28 0 1348 0H1134V167H1348C1356.28 167 1363 160.284 1363 152V15Z" fill="#8293EE"/>
<path d="M1260.77 81.3079C1263.96 81.3079 1267.09 82.2553 1269.74 84.0303C1272.4 85.8053 1274.47 88.3282 1275.69 91.2799C1276.92 94.2316 1277.24 97.4796 1276.61 100.613C1275.99 103.747 1274.45 106.625 1272.19 108.884C1269.93 111.143 1267.05 112.682 1263.92 113.305C1260.79 113.928 1257.54 113.608 1254.59 112.386C1251.64 111.163 1249.11 109.093 1247.34 106.436C1245.56 103.78 1244.62 100.657 1244.62 97.4617C1244.62 93.1774 1246.32 89.0686 1249.35 86.0392C1252.38 83.0098 1256.48 81.3079 1260.77 81.3079ZM1260.77 75.9233C1256.51 75.9233 1252.35 77.1865 1248.8 79.5532C1245.26 81.9198 1242.5 85.2837 1240.87 89.2193C1239.24 93.1549 1238.81 97.4856 1239.64 101.664C1240.48 105.842 1242.53 109.679 1245.54 112.692C1248.55 115.704 1252.39 117.755 1256.57 118.586C1260.75 119.417 1265.08 118.991 1269.01 117.361C1272.95 115.73 1276.31 112.97 1278.68 109.428C1281.04 105.886 1282.31 101.722 1282.31 97.4617C1282.31 91.7493 1280.04 86.271 1276 82.2317C1271.96 78.1925 1266.48 75.9233 1260.77 75.9233Z" fill="white"/>
<path d="M1274.23 49H1220.38C1218.96 49 1217.59 49.5673 1216.58 50.5771C1215.57 51.5869 1215 52.9565 1215 54.3846V108.231C1215 109.659 1215.57 111.028 1216.58 112.038C1217.59 113.048 1218.96 113.615 1220.38 113.615H1231.15V108.231H1220.38V70.5384H1279.62V54.3846C1279.62 52.9565 1279.05 51.5869 1278.04 50.5771C1277.03 49.5673 1275.66 49 1274.23 49ZM1220.38 65.1538V54.3846H1274.23V65.1538H1220.38Z" fill="white"/>
<path d="M1255.38 89.3849V105.539L1268.85 97.4618L1255.38 89.3849Z" fill="white"/>
</svg>
