<svg width="1363" height="301" viewBox="0 0 1363 301" fill="none" xmlns="http://www.w3.org/2000/svg">
<rect width="1363" height="301" rx="15" fill="#F0F0F0"/>
<path d="M0 15C0 6.71573 6.71573 0 15 0H37V301H15C6.71573 301 0 294.284 0 286V15Z" fill="#8293EE"/>
<path d="M117.217 130.76H126.617C126.491 133.482 125.757 135.881 124.415 137.958C123.072 140.034 121.21 141.655 118.829 142.818C116.465 143.964 113.672 144.537 110.45 144.537C107.836 144.537 105.499 144.098 103.44 143.221C101.399 142.344 99.6628 141.082 98.2305 139.435C96.8161 137.787 95.7329 135.791 94.981 133.446C94.2469 131.1 93.8799 128.46 93.8799 125.523V123.402C93.8799 120.466 94.2648 117.825 95.0347 115.479C95.8224 113.116 96.9325 111.111 98.3647 109.464C99.8149 107.799 101.552 106.528 103.575 105.65C105.598 104.773 107.845 104.334 110.315 104.334C113.717 104.334 116.591 104.943 118.936 106.161C121.281 107.378 123.099 109.052 124.388 111.183C125.677 113.295 126.438 115.703 126.67 118.407H117.271C117.235 116.939 116.985 115.712 116.519 114.728C116.054 113.725 115.319 112.973 114.317 112.472C113.314 111.97 111.98 111.72 110.315 111.72C109.152 111.72 108.14 111.935 107.281 112.364C106.421 112.794 105.705 113.474 105.132 114.405C104.559 115.336 104.13 116.545 103.843 118.031C103.575 119.499 103.44 121.271 103.44 123.348V125.523C103.44 127.6 103.566 129.373 103.816 130.841C104.067 132.309 104.47 133.508 105.025 134.439C105.58 135.37 106.296 136.06 107.173 136.507C108.069 136.937 109.161 137.152 110.45 137.152C111.882 137.152 113.09 136.928 114.075 136.48C115.06 136.015 115.821 135.317 116.358 134.386C116.895 133.437 117.181 132.228 117.217 130.76ZM129.517 129.767V129.203C129.517 127.072 129.821 125.112 130.43 123.321C131.039 121.513 131.934 119.946 133.116 118.622C134.297 117.297 135.757 116.267 137.493 115.533C139.23 114.781 141.235 114.405 143.509 114.405C145.8 114.405 147.815 114.781 149.551 115.533C151.306 116.267 152.774 117.297 153.956 118.622C155.137 119.946 156.032 121.513 156.641 123.321C157.25 125.112 157.554 127.072 157.554 129.203V129.767C157.554 131.879 157.25 133.84 156.641 135.648C156.032 137.438 155.137 139.005 153.956 140.348C152.774 141.673 151.315 142.702 149.578 143.436C147.841 144.17 145.836 144.537 143.562 144.537C141.289 144.537 139.275 144.17 137.52 143.436C135.765 142.702 134.297 141.673 133.116 140.348C131.934 139.005 131.039 137.438 130.43 135.648C129.821 133.84 129.517 131.879 129.517 129.767ZM138.567 129.203V129.767C138.567 130.859 138.648 131.879 138.809 132.828C138.97 133.777 139.239 134.61 139.615 135.326C139.991 136.024 140.501 136.57 141.146 136.964C141.79 137.358 142.596 137.555 143.562 137.555C144.511 137.555 145.299 137.358 145.926 136.964C146.57 136.57 147.081 136.024 147.457 135.326C147.833 134.61 148.101 133.777 148.262 132.828C148.423 131.879 148.504 130.859 148.504 129.767V129.203C148.504 128.146 148.423 127.153 148.262 126.222C148.101 125.273 147.833 124.44 147.457 123.724C147.081 122.99 146.57 122.417 145.926 122.005C145.281 121.594 144.476 121.388 143.509 121.388C142.56 121.388 141.763 121.594 141.119 122.005C140.492 122.417 139.991 122.99 139.615 123.724C139.239 124.44 138.97 125.273 138.809 126.222C138.648 127.153 138.567 128.146 138.567 129.203ZM178.287 137.34V102.75H187.391V144H179.227L178.287 137.34ZM160.455 129.82V129.256C160.455 127.054 160.696 125.049 161.18 123.241C161.663 121.415 162.379 119.848 163.328 118.541C164.277 117.216 165.459 116.196 166.873 115.479C168.287 114.763 169.917 114.405 171.761 114.405C173.408 114.405 174.849 114.79 176.084 115.56C177.32 116.312 178.376 117.368 179.253 118.729C180.131 120.09 180.847 121.683 181.402 123.509C181.957 125.318 182.378 127.269 182.664 129.364V130.035C182.378 132.005 181.957 133.867 181.402 135.621C180.847 137.358 180.131 138.897 179.253 140.24C178.376 141.583 177.311 142.639 176.058 143.409C174.822 144.161 173.372 144.537 171.707 144.537C169.863 144.537 168.234 144.17 166.819 143.436C165.423 142.702 164.25 141.673 163.301 140.348C162.37 139.023 161.663 137.465 161.18 135.675C160.696 133.884 160.455 131.933 160.455 129.82ZM169.505 129.256V129.82C169.505 130.912 169.576 131.924 169.72 132.855C169.863 133.786 170.105 134.61 170.445 135.326C170.803 136.024 171.268 136.57 171.841 136.964C172.432 137.358 173.157 137.555 174.017 137.555C175.18 137.555 176.138 137.277 176.89 136.722C177.66 136.167 178.224 135.379 178.582 134.359C178.958 133.338 179.119 132.139 179.065 130.76V128.639C179.101 127.457 179.021 126.419 178.824 125.523C178.627 124.61 178.313 123.849 177.884 123.241C177.472 122.632 176.944 122.175 176.299 121.871C175.673 121.549 174.93 121.388 174.07 121.388C173.229 121.388 172.513 121.585 171.922 121.979C171.349 122.372 170.883 122.927 170.525 123.644C170.167 124.342 169.908 125.174 169.747 126.141C169.585 127.09 169.505 128.128 169.505 129.256ZM206.592 144.537C204.229 144.537 202.116 144.17 200.254 143.436C198.392 142.684 196.817 141.655 195.528 140.348C194.257 139.041 193.281 137.537 192.601 135.836C191.938 134.135 191.607 132.336 191.607 130.438V129.417C191.607 127.287 191.902 125.318 192.493 123.509C193.084 121.683 193.961 120.09 195.125 118.729C196.289 117.368 197.748 116.312 199.502 115.56C201.257 114.79 203.298 114.405 205.625 114.405C207.684 114.405 209.528 114.736 211.158 115.399C212.787 116.061 214.166 117.01 215.293 118.246C216.439 119.481 217.308 120.976 217.898 122.73C218.507 124.485 218.812 126.454 218.812 128.639V132.318H195.071V126.651H209.976V125.953C209.994 124.986 209.824 124.163 209.466 123.482C209.126 122.802 208.624 122.283 207.962 121.925C207.299 121.567 206.494 121.388 205.545 121.388C204.56 121.388 203.746 121.603 203.101 122.032C202.474 122.462 201.982 123.053 201.624 123.805C201.284 124.539 201.042 125.389 200.899 126.356C200.756 127.323 200.684 128.343 200.684 129.417V130.438C200.684 131.512 200.827 132.488 201.114 133.365C201.418 134.243 201.848 134.994 202.403 135.621C202.976 136.23 203.656 136.704 204.444 137.044C205.25 137.385 206.163 137.555 207.183 137.555C208.418 137.555 209.636 137.322 210.835 136.856C212.035 136.391 213.064 135.621 213.924 134.547L218.033 139.435C217.442 140.276 216.6 141.091 215.508 141.878C214.434 142.666 213.145 143.311 211.641 143.812C210.137 144.295 208.454 144.537 206.592 144.537ZM245.157 130.76H254.556C254.431 133.482 253.697 135.881 252.354 137.958C251.011 140.034 249.149 141.655 246.768 142.818C244.405 143.964 241.612 144.537 238.389 144.537C235.775 144.537 233.439 144.098 231.38 143.221C229.339 142.344 227.602 141.082 226.17 139.435C224.756 137.787 223.672 135.791 222.92 133.446C222.186 131.1 221.819 128.46 221.819 125.523V123.402C221.819 120.466 222.204 117.825 222.974 115.479C223.762 113.116 224.872 111.111 226.304 109.464C227.754 107.799 229.491 106.528 231.514 105.65C233.537 104.773 235.784 104.334 238.255 104.334C241.657 104.334 244.53 104.943 246.875 106.161C249.221 107.378 251.038 109.052 252.327 111.183C253.616 113.295 254.377 115.703 254.61 118.407H245.21C245.175 116.939 244.924 115.712 244.458 114.728C243.993 113.725 243.259 112.973 242.256 112.472C241.254 111.97 239.92 111.72 238.255 111.72C237.091 111.72 236.08 111.935 235.22 112.364C234.361 112.794 233.645 113.474 233.072 114.405C232.499 115.336 232.069 116.545 231.783 118.031C231.514 119.499 231.38 121.271 231.38 123.348V125.523C231.38 127.6 231.505 129.373 231.756 130.841C232.007 132.309 232.409 133.508 232.964 134.439C233.519 135.37 234.236 136.06 235.113 136.507C236.008 136.937 237.1 137.152 238.389 137.152C239.821 137.152 241.03 136.928 242.015 136.48C242.999 136.015 243.76 135.317 244.297 134.386C244.834 133.437 245.121 132.228 245.157 130.76ZM273.677 136.695V124.718C273.677 123.894 273.561 123.187 273.328 122.596C273.095 122.005 272.728 121.549 272.227 121.227C271.726 120.886 271.054 120.716 270.213 120.716C269.533 120.716 268.951 120.833 268.467 121.065C267.984 121.298 267.617 121.647 267.366 122.113C267.116 122.578 266.99 123.169 266.99 123.885H257.94C257.94 122.542 258.235 121.298 258.826 120.152C259.435 118.989 260.294 117.977 261.404 117.118C262.532 116.258 263.875 115.596 265.433 115.13C267.008 114.647 268.763 114.405 270.696 114.405C273.006 114.405 275.065 114.79 276.873 115.56C278.699 116.33 280.14 117.485 281.197 119.024C282.253 120.546 282.781 122.462 282.781 124.771V136.668C282.781 138.566 282.889 140.007 283.104 140.992C283.318 141.959 283.623 142.809 284.017 143.543V144H274.939C274.51 143.105 274.188 142.013 273.973 140.724C273.776 139.417 273.677 138.074 273.677 136.695ZM274.778 126.249L274.832 131.083H270.831C269.989 131.083 269.273 131.199 268.682 131.432C268.109 131.664 267.644 131.987 267.286 132.398C266.945 132.792 266.695 133.24 266.534 133.741C266.39 134.243 266.319 134.771 266.319 135.326C266.319 135.863 266.444 136.346 266.695 136.776C266.963 137.188 267.321 137.51 267.769 137.743C268.217 137.975 268.718 138.092 269.273 138.092C270.276 138.092 271.126 137.904 271.824 137.528C272.54 137.134 273.086 136.66 273.462 136.104C273.838 135.549 274.026 135.03 274.026 134.547L276.014 138.253C275.656 138.969 275.244 139.694 274.778 140.428C274.331 141.162 273.767 141.843 273.086 142.469C272.424 143.078 271.609 143.579 270.643 143.973C269.676 144.349 268.503 144.537 267.125 144.537C265.334 144.537 263.687 144.17 262.183 143.436C260.697 142.702 259.507 141.681 258.611 140.375C257.716 139.05 257.269 137.528 257.269 135.809C257.269 134.305 257.537 132.962 258.074 131.781C258.629 130.599 259.462 129.597 260.572 128.773C261.682 127.949 263.096 127.323 264.815 126.893C266.534 126.463 268.557 126.249 270.884 126.249H274.778ZM296.934 121.092V144H287.884V114.942H296.37L296.934 121.092ZM295.833 128.478L293.765 128.531C293.765 126.49 294.007 124.61 294.49 122.892C294.974 121.173 295.69 119.678 296.639 118.407C297.588 117.136 298.751 116.151 300.13 115.453C301.526 114.754 303.138 114.405 304.964 114.405C306.235 114.405 307.39 114.602 308.428 114.996C309.467 115.372 310.362 115.972 311.114 116.795C311.866 117.601 312.439 118.657 312.833 119.964C313.244 121.253 313.45 122.802 313.45 124.61V144H304.4V125.765C304.4 124.53 304.257 123.599 303.97 122.972C303.702 122.346 303.308 121.925 302.789 121.71C302.269 121.495 301.634 121.388 300.882 121.388C300.094 121.388 299.387 121.567 298.76 121.925C298.134 122.283 297.597 122.784 297.149 123.429C296.719 124.055 296.388 124.798 296.155 125.658C295.94 126.517 295.833 127.457 295.833 128.478ZM312.43 128.478L309.905 128.531C309.905 126.49 310.129 124.61 310.577 122.892C311.042 121.173 311.731 119.678 312.645 118.407C313.576 117.136 314.73 116.151 316.109 115.453C317.487 114.754 319.09 114.405 320.916 114.405C322.241 114.405 323.458 114.602 324.568 114.996C325.678 115.39 326.636 116.026 327.442 116.903C328.248 117.78 328.874 118.944 329.322 120.394C329.769 121.826 329.993 123.599 329.993 125.711V144H320.916V125.711C320.916 124.512 320.773 123.608 320.486 122.999C320.218 122.372 319.824 121.952 319.305 121.737C318.785 121.504 318.168 121.388 317.452 121.388C316.592 121.388 315.849 121.567 315.223 121.925C314.596 122.283 314.068 122.784 313.638 123.429C313.226 124.055 312.922 124.798 312.725 125.658C312.528 126.517 312.43 127.457 312.43 128.478Z" fill="black"/>
<path d="M96.563 55.1172H100.904L107.295 73.3862L113.687 55.1172H118.028L109.039 80H105.552L96.563 55.1172ZM94.2217 55.1172H98.5454L99.3315 72.9248V80H94.2217V55.1172ZM116.045 55.1172H120.386V80H115.259V72.9248L116.045 55.1172ZM123.787 70.9424V70.5835C123.787 69.2277 123.981 67.9801 124.368 66.8408C124.756 65.6901 125.319 64.6932 126.06 63.8501C126.801 63.007 127.712 62.3519 128.794 61.8848C129.877 61.4062 131.119 61.167 132.52 61.167C133.921 61.167 135.169 61.4062 136.263 61.8848C137.356 62.3519 138.274 63.007 139.014 63.8501C139.766 64.6932 140.336 65.6901 140.723 66.8408C141.111 67.9801 141.304 69.2277 141.304 70.5835V70.9424C141.304 72.2868 141.111 73.5343 140.723 74.6851C140.336 75.8244 139.766 76.8213 139.014 77.6758C138.274 78.5189 137.362 79.174 136.28 79.6411C135.197 80.1082 133.956 80.3418 132.554 80.3418C131.153 80.3418 129.905 80.1082 128.812 79.6411C127.729 79.174 126.812 78.5189 126.06 77.6758C125.319 76.8213 124.756 75.8244 124.368 74.6851C123.981 73.5343 123.787 72.2868 123.787 70.9424ZM128.709 70.5835V70.9424C128.709 71.7171 128.777 72.4406 128.914 73.1128C129.051 73.785 129.267 74.3774 129.563 74.8901C129.871 75.3914 130.27 75.7845 130.76 76.0693C131.25 76.3542 131.848 76.4966 132.554 76.4966C133.238 76.4966 133.825 76.3542 134.314 76.0693C134.804 75.7845 135.197 75.3914 135.494 74.8901C135.79 74.3774 136.006 73.785 136.143 73.1128C136.291 72.4406 136.365 71.7171 136.365 70.9424V70.5835C136.365 69.8315 136.291 69.1252 136.143 68.4644C136.006 67.7922 135.784 67.1997 135.477 66.687C135.18 66.1629 134.787 65.7528 134.297 65.4565C133.807 65.1603 133.215 65.0122 132.52 65.0122C131.825 65.0122 131.233 65.1603 130.743 65.4565C130.264 65.7528 129.871 66.1629 129.563 66.687C129.267 67.1997 129.051 67.7922 128.914 68.4644C128.777 69.1252 128.709 69.8315 128.709 70.5835ZM154.31 75.8301V67.5928C154.31 67.0003 154.213 66.4933 154.019 66.0718C153.825 65.6388 153.523 65.3027 153.113 65.0635C152.715 64.8242 152.196 64.7046 151.558 64.7046C151.011 64.7046 150.538 64.8014 150.14 64.9951C149.741 65.1774 149.433 65.4451 149.217 65.7983C149 66.1401 148.892 66.5446 148.892 67.0117H143.97C143.97 66.2256 144.153 65.4793 144.517 64.7729C144.882 64.0666 145.411 63.4456 146.106 62.9102C146.801 62.3633 147.627 61.936 148.584 61.6284C149.553 61.3208 150.635 61.167 151.832 61.167C153.267 61.167 154.543 61.4062 155.66 61.8848C156.776 62.3633 157.653 63.0811 158.292 64.0381C158.941 64.9951 159.266 66.1914 159.266 67.627V75.5396C159.266 76.5535 159.328 77.3853 159.454 78.0347C159.579 78.6727 159.761 79.231 160 79.7095V80H155.027C154.788 79.4987 154.606 78.8721 154.48 78.1201C154.367 77.3568 154.31 76.5934 154.31 75.8301ZM154.959 68.7378L154.993 71.5234H152.242C151.592 71.5234 151.028 71.5975 150.55 71.7456C150.071 71.8937 149.678 72.1045 149.371 72.3779C149.063 72.64 148.835 72.9476 148.687 73.3008C148.55 73.654 148.482 74.0413 148.482 74.4629C148.482 74.8844 148.579 75.2661 148.772 75.6079C148.966 75.9383 149.245 76.2004 149.61 76.394C149.974 76.5763 150.402 76.6675 150.892 76.6675C151.632 76.6675 152.276 76.5194 152.823 76.2231C153.37 75.9269 153.791 75.5623 154.087 75.1294C154.395 74.6965 154.555 74.2863 154.566 73.8989L155.865 75.9839C155.682 76.451 155.432 76.9352 155.113 77.4365C154.805 77.9378 154.412 78.4106 153.934 78.855C153.455 79.2879 152.88 79.6468 152.208 79.9316C151.535 80.2051 150.738 80.3418 149.815 80.3418C148.641 80.3418 147.576 80.1082 146.619 79.6411C145.674 79.1626 144.922 78.5075 144.363 77.6758C143.816 76.8327 143.543 75.8757 143.543 74.8047C143.543 73.8363 143.725 72.9761 144.09 72.2241C144.454 71.4722 144.99 70.8398 145.696 70.3271C146.414 69.8031 147.308 69.41 148.379 69.1479C149.45 68.8745 150.692 68.7378 152.105 68.7378H154.959ZM172.117 61.5088V64.9951H161.351V61.5088H172.117ZM164.017 56.9458H168.938V74.4287C168.938 74.9642 169.007 75.3743 169.144 75.6592C169.292 75.944 169.508 76.1434 169.793 76.2573C170.078 76.3599 170.437 76.4111 170.87 76.4111C171.177 76.4111 171.451 76.3997 171.69 76.377C171.941 76.3428 172.151 76.3086 172.322 76.2744L172.339 79.8975C171.918 80.0342 171.462 80.1424 170.972 80.2222C170.482 80.3019 169.941 80.3418 169.349 80.3418C168.266 80.3418 167.321 80.1652 166.512 79.812C165.714 79.4474 165.099 78.8664 164.666 78.0688C164.233 77.2713 164.017 76.2231 164.017 74.9243V56.9458ZM184.9 75.8301V67.5928C184.9 67.0003 184.804 66.4933 184.61 66.0718C184.416 65.6388 184.114 65.3027 183.704 65.0635C183.305 64.8242 182.787 64.7046 182.149 64.7046C181.602 64.7046 181.129 64.8014 180.73 64.9951C180.332 65.1774 180.024 65.4451 179.808 65.7983C179.591 66.1401 179.483 66.5446 179.483 67.0117H174.561C174.561 66.2256 174.743 65.4793 175.108 64.7729C175.472 64.0666 176.002 63.4456 176.697 62.9102C177.392 62.3633 178.218 61.936 179.175 61.6284C180.144 61.3208 181.226 61.167 182.422 61.167C183.858 61.167 185.134 61.4062 186.25 61.8848C187.367 62.3633 188.244 63.0811 188.882 64.0381C189.532 64.9951 189.856 66.1914 189.856 67.627V75.5396C189.856 76.5535 189.919 77.3853 190.044 78.0347C190.17 78.6727 190.352 79.231 190.591 79.7095V80H185.618C185.379 79.4987 185.197 78.8721 185.071 78.1201C184.957 77.3568 184.9 76.5934 184.9 75.8301ZM185.55 68.7378L185.584 71.5234H182.833C182.183 71.5234 181.619 71.5975 181.141 71.7456C180.662 71.8937 180.269 72.1045 179.961 72.3779C179.654 72.64 179.426 72.9476 179.278 73.3008C179.141 73.654 179.073 74.0413 179.073 74.4629C179.073 74.8844 179.17 75.2661 179.363 75.6079C179.557 75.9383 179.836 76.2004 180.201 76.394C180.565 76.5763 180.993 76.6675 181.482 76.6675C182.223 76.6675 182.867 76.5194 183.414 76.2231C183.96 75.9269 184.382 75.5623 184.678 75.1294C184.986 74.6965 185.145 74.2863 185.157 73.8989L186.456 75.9839C186.273 76.451 186.023 76.9352 185.704 77.4365C185.396 77.9378 185.003 78.4106 184.524 78.855C184.046 79.2879 183.471 79.6468 182.798 79.9316C182.126 80.2051 181.329 80.3418 180.406 80.3418C179.232 80.3418 178.167 80.1082 177.21 79.6411C176.264 79.1626 175.512 78.5075 174.954 77.6758C174.407 76.8327 174.134 75.8757 174.134 74.8047C174.134 73.8363 174.316 72.9761 174.681 72.2241C175.045 71.4722 175.581 70.8398 176.287 70.3271C177.005 69.8031 177.899 69.41 178.97 69.1479C180.041 68.8745 181.283 68.7378 182.696 68.7378H185.55ZM203.648 74.8901C203.648 74.5369 203.545 74.2179 203.34 73.9331C203.135 73.6483 202.754 73.3862 202.195 73.147C201.648 72.8963 200.857 72.6685 199.82 72.4634C198.886 72.2583 198.014 72.002 197.205 71.6943C196.408 71.3753 195.713 70.9937 195.12 70.5493C194.539 70.105 194.083 69.5809 193.753 68.9771C193.423 68.3618 193.257 67.6611 193.257 66.875C193.257 66.1003 193.423 65.3711 193.753 64.6875C194.095 64.0039 194.579 63.4001 195.206 62.876C195.844 62.3405 196.618 61.9246 197.53 61.6284C198.453 61.3208 199.489 61.167 200.64 61.167C202.247 61.167 203.625 61.4233 204.776 61.936C205.938 62.4487 206.827 63.1551 207.442 64.0552C208.069 64.9438 208.382 65.9578 208.382 67.0972H203.46C203.46 66.6187 203.357 66.1914 203.152 65.8154C202.959 65.4281 202.651 65.1261 202.229 64.9097C201.819 64.6818 201.284 64.5679 200.623 64.5679C200.076 64.5679 199.603 64.6647 199.205 64.8584C198.806 65.0407 198.498 65.2913 198.282 65.6104C198.077 65.918 197.974 66.2598 197.974 66.6357C197.974 66.9206 198.031 67.1769 198.145 67.4048C198.27 67.6213 198.47 67.8206 198.743 68.0029C199.017 68.1852 199.37 68.3561 199.803 68.5156C200.247 68.6637 200.794 68.8005 201.443 68.9258C202.776 69.1992 203.967 69.5581 205.015 70.0024C206.063 70.4354 206.895 71.0278 207.51 71.7798C208.125 72.5203 208.433 73.4945 208.433 74.7021C208.433 75.5225 208.251 76.2744 207.886 76.958C207.522 77.6416 206.998 78.2397 206.314 78.7524C205.63 79.2537 204.81 79.6468 203.853 79.9316C202.907 80.2051 201.842 80.3418 200.657 80.3418C198.937 80.3418 197.479 80.0342 196.282 79.4189C195.097 78.8037 194.197 78.0233 193.582 77.0776C192.978 76.1206 192.676 75.1408 192.676 74.1382H197.342C197.365 74.8104 197.535 75.3516 197.854 75.7617C198.185 76.1719 198.601 76.4681 199.102 76.6504C199.615 76.8327 200.167 76.9238 200.76 76.9238C201.398 76.9238 201.928 76.8384 202.349 76.6675C202.771 76.4852 203.09 76.2459 203.306 75.9497C203.534 75.6421 203.648 75.2889 203.648 74.8901ZM220.14 80.3418C218.704 80.3418 217.417 80.1139 216.277 79.6582C215.138 79.1911 214.17 78.5474 213.372 77.7271C212.586 76.9067 211.982 75.9554 211.561 74.873C211.139 73.7793 210.928 72.6172 210.928 71.3867V70.7031C210.928 69.3018 211.128 68.02 211.526 66.8579C211.925 65.6958 212.495 64.6875 213.235 63.833C213.987 62.9785 214.899 62.3234 215.97 61.8677C217.041 61.4006 218.248 61.167 219.593 61.167C220.903 61.167 222.065 61.3835 223.079 61.8164C224.093 62.2493 224.942 62.8646 225.625 63.6621C226.32 64.4596 226.845 65.4167 227.198 66.5332C227.551 67.6383 227.728 68.8688 227.728 70.2246V72.2754H213.03V68.9941H222.891V68.6182C222.891 67.9346 222.766 67.325 222.515 66.7896C222.276 66.2427 221.911 65.8097 221.421 65.4907C220.931 65.1717 220.305 65.0122 219.542 65.0122C218.892 65.0122 218.334 65.1546 217.867 65.4395C217.4 65.7243 217.018 66.123 216.722 66.6357C216.437 67.1484 216.22 67.7523 216.072 68.4473C215.936 69.1309 215.867 69.8828 215.867 70.7031V71.3867C215.867 72.1273 215.97 72.8109 216.175 73.4375C216.391 74.0641 216.693 74.6053 217.081 75.061C217.479 75.5168 217.958 75.87 218.516 76.1206C219.086 76.3713 219.729 76.4966 220.447 76.4966C221.336 76.4966 222.162 76.3257 222.925 75.9839C223.7 75.6307 224.367 75.1009 224.925 74.3945L227.317 76.9922C226.93 77.5505 226.4 78.0859 225.728 78.5986C225.067 79.1113 224.27 79.5329 223.335 79.8633C222.401 80.1823 221.336 80.3418 220.14 80.3418ZM235.452 65.3369V80H230.513V61.5088H235.145L235.452 65.3369ZM234.769 70.105H233.401C233.401 68.8175 233.555 67.6326 233.863 66.5503C234.182 65.4565 234.643 64.5109 235.247 63.7134C235.862 62.9045 236.62 62.2778 237.52 61.8335C238.42 61.3892 239.463 61.167 240.647 61.167C241.468 61.167 242.22 61.2923 242.903 61.543C243.587 61.7822 244.174 62.1639 244.664 62.688C245.165 63.2007 245.552 63.8729 245.826 64.7046C246.099 65.5249 246.236 66.5104 246.236 67.6611V80H241.314V68.208C241.314 67.3649 241.2 66.7155 240.972 66.2598C240.744 65.804 240.42 65.485 239.998 65.3027C239.588 65.1204 239.092 65.0293 238.511 65.0293C237.873 65.0293 237.315 65.1603 236.836 65.4224C236.369 65.6844 235.982 66.049 235.674 66.5161C235.367 66.9718 235.139 67.5073 234.991 68.1226C234.843 68.7378 234.769 69.3986 234.769 70.105ZM245.774 69.541L244.014 69.7632C244.014 68.5555 244.162 67.4333 244.458 66.3965C244.766 65.3597 245.216 64.4482 245.809 63.6621C246.412 62.876 247.159 62.2664 248.047 61.8335C248.936 61.3892 249.961 61.167 251.124 61.167C252.012 61.167 252.821 61.298 253.55 61.5601C254.279 61.8107 254.9 62.2152 255.413 62.7734C255.937 63.3203 256.336 64.0381 256.609 64.9268C256.894 65.8154 257.037 66.9035 257.037 68.1909V80H252.098V68.1909C252.098 67.3364 251.984 66.687 251.756 66.2427C251.539 65.7869 251.22 65.4736 250.799 65.3027C250.389 65.1204 249.899 65.0293 249.329 65.0293C248.737 65.0293 248.218 65.1489 247.774 65.3882C247.33 65.616 246.959 65.9351 246.663 66.3452C246.367 66.7554 246.145 67.2339 245.997 67.7808C245.848 68.3162 245.774 68.903 245.774 69.541ZM273.289 55.1172L278.484 66.4648L283.68 55.1172H289.268L281.082 70.9424V80H275.887V70.9424L267.684 55.1172H273.289ZM300.052 75.8301V67.5928C300.052 67.0003 299.955 66.4933 299.761 66.0718C299.568 65.6388 299.266 65.3027 298.855 65.0635C298.457 64.8242 297.938 64.7046 297.3 64.7046C296.753 64.7046 296.281 64.8014 295.882 64.9951C295.483 65.1774 295.175 65.4451 294.959 65.7983C294.743 66.1401 294.634 66.5446 294.634 67.0117H289.712C289.712 66.2256 289.895 65.4793 290.259 64.7729C290.624 64.0666 291.154 63.4456 291.849 62.9102C292.544 62.3633 293.37 61.936 294.327 61.6284C295.295 61.3208 296.377 61.167 297.574 61.167C299.009 61.167 300.285 61.4062 301.402 61.8848C302.518 62.3633 303.396 63.0811 304.034 64.0381C304.683 64.9951 305.008 66.1914 305.008 67.627V75.5396C305.008 76.5535 305.07 77.3853 305.196 78.0347C305.321 78.6727 305.503 79.231 305.743 79.7095V80H300.77C300.53 79.4987 300.348 78.8721 300.223 78.1201C300.109 77.3568 300.052 76.5934 300.052 75.8301ZM300.701 68.7378L300.735 71.5234H297.984C297.334 71.5234 296.771 71.5975 296.292 71.7456C295.813 71.8937 295.42 72.1045 295.113 72.3779C294.805 72.64 294.577 72.9476 294.429 73.3008C294.292 73.654 294.224 74.0413 294.224 74.4629C294.224 74.8844 294.321 75.2661 294.515 75.6079C294.708 75.9383 294.987 76.2004 295.352 76.394C295.717 76.5763 296.144 76.6675 296.634 76.6675C297.374 76.6675 298.018 76.5194 298.565 76.2231C299.112 75.9269 299.533 75.5623 299.83 75.1294C300.137 74.6965 300.297 74.2863 300.308 73.8989L301.607 75.9839C301.425 76.451 301.174 76.9352 300.855 77.4365C300.547 77.9378 300.154 78.4106 299.676 78.855C299.197 79.2879 298.622 79.6468 297.95 79.9316C297.278 80.2051 296.48 80.3418 295.557 80.3418C294.384 80.3418 293.318 80.1082 292.361 79.6411C291.416 79.1626 290.664 78.5075 290.105 77.6758C289.559 76.8327 289.285 75.8757 289.285 74.8047C289.285 73.8363 289.467 72.9761 289.832 72.2241C290.197 71.4722 290.732 70.8398 291.438 70.3271C292.156 69.8031 293.051 69.41 294.122 69.1479C295.193 68.8745 296.434 68.7378 297.847 68.7378H300.701ZM313.724 53.7329V80H308.802V53.7329H313.724ZM325.379 61.5088L317.347 70.6689L313.04 75.0269L311.246 71.4722L314.664 67.1313L319.466 61.5088H325.379ZM320.269 80L314.8 71.4551L318.201 68.4814L325.943 80H320.269ZM332.3 53.75V80H327.378V53.75H332.3ZM331.6 70.105H330.25C330.261 68.8175 330.432 67.6326 330.762 66.5503C331.093 65.4565 331.565 64.5109 332.181 63.7134C332.796 62.9045 333.531 62.2778 334.385 61.8335C335.251 61.3892 336.208 61.167 337.256 61.167C338.168 61.167 338.994 61.298 339.734 61.5601C340.486 61.8107 341.13 62.2209 341.666 62.7905C342.212 63.3488 342.634 64.0837 342.93 64.9951C343.226 65.9066 343.375 67.0117 343.375 68.3105V80H338.418V68.2764C338.418 67.4561 338.299 66.8123 338.06 66.3452C337.832 65.8667 337.496 65.5306 337.051 65.3369C336.618 65.1318 336.083 65.0293 335.445 65.0293C334.738 65.0293 334.135 65.1603 333.633 65.4224C333.143 65.6844 332.75 66.049 332.454 66.5161C332.158 66.9718 331.941 67.5073 331.805 68.1226C331.668 68.7378 331.6 69.3986 331.6 70.105ZM351.937 65.4565V80H347.015V61.5088H351.629L351.937 65.4565ZM351.219 70.105H349.886C349.886 68.7378 350.062 67.5073 350.416 66.4136C350.769 65.3084 351.264 64.3685 351.902 63.5938C352.54 62.8076 353.298 62.2095 354.175 61.7993C355.064 61.3778 356.055 61.167 357.149 61.167C358.015 61.167 358.807 61.2923 359.524 61.543C360.242 61.7936 360.857 62.1924 361.37 62.7393C361.894 63.2861 362.293 64.0096 362.566 64.9097C362.851 65.8097 362.994 66.9092 362.994 68.208V80H358.038V68.1909C358.038 67.3706 357.924 66.7326 357.696 66.2769C357.468 65.8211 357.132 65.5021 356.688 65.3198C356.255 65.1261 355.719 65.0293 355.081 65.0293C354.42 65.0293 353.845 65.1603 353.355 65.4224C352.876 65.6844 352.478 66.049 352.159 66.5161C351.851 66.9718 351.618 67.5073 351.458 68.1226C351.299 68.7378 351.219 69.3986 351.219 70.105ZM371.932 61.5088V80H366.993V61.5088H371.932ZM366.685 56.6895C366.685 55.9717 366.936 55.3792 367.437 54.9121C367.938 54.445 368.611 54.2114 369.454 54.2114C370.285 54.2114 370.952 54.445 371.453 54.9121C371.966 55.3792 372.222 55.9717 372.222 56.6895C372.222 57.4072 371.966 57.9997 371.453 58.4668C370.952 58.9339 370.285 59.1675 369.454 59.1675C368.611 59.1675 367.938 58.9339 367.437 58.4668C366.936 57.9997 366.685 57.4072 366.685 56.6895Z" fill="#888888"/>
<rect x="92" y="181" width="1179" height="80" rx="13.3333" fill="#CCCCCC"/>
<rect x="107" y="196.333" width="208" height="49.3333" rx="4.66667" fill="#888888" stroke="#888888" stroke-width="4"/>
<path d="M166.656 213.167H169.635L173.021 223.719L176.406 213.167H179.385L174.229 228.333H171.813L166.656 213.167ZM164.844 213.167H167.927L168.5 224.792V228.333H164.844V213.167ZM178.115 213.167H181.208V228.333H177.542V224.792L178.115 213.167ZM182.948 222.812V222.594C182.948 221.767 183.066 221.007 183.302 220.312C183.538 219.611 183.885 219.003 184.344 218.49C184.802 217.976 185.368 217.576 186.042 217.292C186.715 217 187.493 216.854 188.375 216.854C189.264 216.854 190.045 217 190.719 217.292C191.399 217.576 191.969 217.976 192.427 218.49C192.885 219.003 193.233 219.611 193.469 220.312C193.705 221.007 193.823 221.767 193.823 222.594V222.812C193.823 223.632 193.705 224.392 193.469 225.094C193.233 225.788 192.885 226.396 192.427 226.917C191.969 227.431 191.403 227.83 190.729 228.115C190.056 228.399 189.278 228.542 188.396 228.542C187.514 228.542 186.733 228.399 186.052 228.115C185.372 227.83 184.802 227.431 184.344 226.917C183.885 226.396 183.538 225.788 183.302 225.094C183.066 224.392 182.948 223.632 182.948 222.812ZM186.458 222.594V222.812C186.458 223.236 186.49 223.632 186.552 224C186.615 224.368 186.719 224.691 186.865 224.969C187.01 225.24 187.208 225.451 187.458 225.604C187.708 225.757 188.021 225.833 188.396 225.833C188.764 225.833 189.069 225.757 189.313 225.604C189.563 225.451 189.76 225.24 189.906 224.969C190.052 224.691 190.156 224.368 190.219 224C190.281 223.632 190.313 223.236 190.313 222.812V222.594C190.313 222.184 190.281 221.799 190.219 221.437C190.156 221.069 190.052 220.747 189.906 220.469C189.76 220.184 189.563 219.962 189.313 219.802C189.063 219.642 188.75 219.562 188.375 219.562C188.007 219.562 187.698 219.642 187.448 219.802C187.205 219.962 187.01 220.184 186.865 220.469C186.719 220.747 186.615 221.069 186.552 221.437C186.49 221.799 186.458 222.184 186.458 222.594ZM198.833 219.469V228.333H195.323V217.062H198.615L198.833 219.469ZM198.417 222.312L197.594 222.333C197.594 221.472 197.698 220.705 197.906 220.031C198.115 219.351 198.41 218.774 198.792 218.302C199.174 217.83 199.628 217.472 200.156 217.229C200.691 216.979 201.285 216.854 201.938 216.854C202.458 216.854 202.934 216.931 203.365 217.083C203.802 217.236 204.177 217.483 204.49 217.823C204.809 218.163 205.052 218.615 205.219 219.177C205.392 219.733 205.479 220.42 205.479 221.24V228.333H201.948V221.229C201.948 220.778 201.885 220.434 201.76 220.198C201.635 219.955 201.455 219.788 201.219 219.698C200.983 219.608 200.694 219.562 200.354 219.562C199.993 219.562 199.688 219.632 199.438 219.771C199.188 219.91 198.986 220.104 198.833 220.354C198.688 220.597 198.58 220.885 198.51 221.219C198.448 221.552 198.417 221.917 198.417 222.312ZM214.51 217.062H217.698V227.896C217.698 228.937 217.458 229.819 216.979 230.542C216.5 231.271 215.83 231.823 214.969 232.198C214.115 232.58 213.115 232.771 211.969 232.771C211.462 232.771 210.944 232.705 210.417 232.573C209.889 232.448 209.396 232.26 208.938 232.01C208.479 231.76 208.094 231.451 207.781 231.083L209.25 229.021C209.535 229.34 209.892 229.611 210.323 229.833C210.753 230.062 211.26 230.177 211.844 230.177C212.351 230.177 212.774 230.087 213.115 229.906C213.462 229.726 213.726 229.462 213.906 229.115C214.087 228.774 214.177 228.361 214.177 227.875V219.729L214.51 217.062ZM207.021 222.833V222.615C207.021 221.76 207.125 220.983 207.333 220.281C207.549 219.573 207.854 218.965 208.25 218.458C208.653 217.944 209.139 217.549 209.708 217.271C210.278 216.993 210.92 216.854 211.635 216.854C212.406 216.854 213.038 217.003 213.531 217.302C214.031 217.594 214.431 218.003 214.729 218.531C215.035 219.059 215.271 219.677 215.438 220.385C215.611 221.087 215.757 221.844 215.875 222.656V222.917C215.757 223.681 215.594 224.403 215.385 225.083C215.184 225.757 214.92 226.354 214.594 226.875C214.267 227.396 213.858 227.806 213.365 228.104C212.878 228.396 212.295 228.542 211.615 228.542C210.906 228.542 210.267 228.399 209.698 228.115C209.135 227.83 208.653 227.431 208.25 226.917C207.854 226.403 207.549 225.799 207.333 225.104C207.125 224.41 207.021 223.653 207.021 222.833ZM210.531 222.615V222.833C210.531 223.257 210.569 223.649 210.646 224.01C210.729 224.372 210.854 224.691 211.021 224.969C211.188 225.24 211.392 225.451 211.635 225.604C211.885 225.757 212.177 225.833 212.51 225.833C213.017 225.833 213.427 225.726 213.74 225.51C214.052 225.295 214.278 224.99 214.417 224.594C214.556 224.198 214.615 223.733 214.594 223.198V222.375C214.608 221.917 214.576 221.514 214.5 221.167C214.424 220.812 214.302 220.517 214.135 220.281C213.976 220.045 213.76 219.868 213.49 219.75C213.226 219.625 212.906 219.562 212.531 219.562C212.205 219.562 211.917 219.639 211.667 219.792C211.417 219.944 211.208 220.16 211.042 220.437C210.875 220.708 210.747 221.031 210.656 221.406C210.573 221.774 210.531 222.177 210.531 222.615ZM219.281 222.812V222.594C219.281 221.767 219.399 221.007 219.635 220.312C219.872 219.611 220.219 219.003 220.677 218.49C221.135 217.976 221.701 217.576 222.375 217.292C223.049 217 223.826 216.854 224.708 216.854C225.597 216.854 226.378 217 227.052 217.292C227.733 217.576 228.302 217.976 228.76 218.49C229.219 219.003 229.566 219.611 229.802 220.312C230.038 221.007 230.156 221.767 230.156 222.594V222.812C230.156 223.632 230.038 224.392 229.802 225.094C229.566 225.788 229.219 226.396 228.76 226.917C228.302 227.431 227.736 227.83 227.063 228.115C226.389 228.399 225.611 228.542 224.729 228.542C223.847 228.542 223.066 228.399 222.385 228.115C221.705 227.83 221.135 227.431 220.677 226.917C220.219 226.396 219.872 225.788 219.635 225.094C219.399 224.392 219.281 223.632 219.281 222.812ZM222.792 222.594V222.812C222.792 223.236 222.823 223.632 222.885 224C222.948 224.368 223.052 224.691 223.198 224.969C223.344 225.24 223.542 225.451 223.792 225.604C224.042 225.757 224.354 225.833 224.729 225.833C225.097 225.833 225.403 225.757 225.646 225.604C225.896 225.451 226.094 225.24 226.24 224.969C226.385 224.691 226.49 224.368 226.552 224C226.615 223.632 226.646 223.236 226.646 222.812V222.594C226.646 222.184 226.615 221.799 226.552 221.437C226.49 221.069 226.385 220.747 226.24 220.469C226.094 220.184 225.896 219.962 225.646 219.802C225.396 219.642 225.083 219.562 224.708 219.562C224.34 219.562 224.031 219.642 223.781 219.802C223.538 219.962 223.344 220.184 223.198 220.469C223.052 220.747 222.948 221.069 222.885 221.437C222.823 221.799 222.792 222.184 222.792 222.594ZM236.813 228.333H233.448L233.469 225.521H236.813C237.507 225.521 238.094 225.354 238.573 225.021C239.059 224.687 239.427 224.191 239.677 223.531C239.934 222.865 240.063 222.045 240.063 221.073V220.417C240.063 219.687 239.99 219.049 239.844 218.5C239.705 217.944 239.497 217.483 239.219 217.115C238.941 216.74 238.594 216.458 238.177 216.271C237.767 216.083 237.295 215.99 236.76 215.99H233.385V213.167H236.76C237.788 213.167 238.729 213.344 239.583 213.698C240.444 214.045 241.188 214.545 241.813 215.198C242.444 215.844 242.931 216.611 243.271 217.5C243.618 218.382 243.792 219.361 243.792 220.437V221.073C243.792 222.142 243.618 223.122 243.271 224.01C242.931 224.899 242.448 225.667 241.823 226.312C241.198 226.958 240.458 227.458 239.604 227.812C238.757 228.16 237.826 228.333 236.813 228.333ZM235.542 213.167V228.333H231.885V213.167H235.542ZM251.885 221.885H247.979L247.958 219.49H251.125C251.694 219.49 252.149 219.427 252.49 219.302C252.83 219.17 253.076 218.979 253.229 218.729C253.389 218.479 253.469 218.167 253.469 217.792C253.469 217.361 253.389 217.014 253.229 216.75C253.069 216.486 252.816 216.295 252.469 216.177C252.128 216.052 251.688 215.99 251.146 215.99H249.354V228.333H245.698V213.167H251.146C252.083 213.167 252.92 213.253 253.656 213.427C254.392 213.594 255.017 213.851 255.531 214.198C256.052 214.545 256.448 214.983 256.719 215.51C256.99 216.031 257.125 216.646 257.125 217.354C257.125 217.972 256.993 218.552 256.729 219.094C256.465 219.635 256.024 220.076 255.406 220.417C254.795 220.75 253.958 220.924 252.896 220.937L251.885 221.885ZM251.74 228.333H247.094L248.344 225.521H251.74C252.24 225.521 252.639 225.444 252.938 225.292C253.243 225.132 253.462 224.924 253.594 224.667C253.733 224.403 253.802 224.111 253.802 223.792C253.802 223.403 253.736 223.066 253.604 222.781C253.479 222.497 253.278 222.278 253 222.125C252.722 221.965 252.351 221.885 251.885 221.885H248.813L248.833 219.49H252.51L253.365 220.448C254.378 220.406 255.181 220.549 255.771 220.875C256.368 221.201 256.795 221.632 257.052 222.167C257.309 222.701 257.438 223.26 257.438 223.844C257.438 224.837 257.222 225.667 256.792 226.333C256.368 227 255.733 227.5 254.885 227.833C254.038 228.167 252.99 228.333 251.74 228.333Z" fill="white"/>
<rect x="339" y="196.333" width="208" height="49.3333" rx="4.66667" fill="#888888" stroke="#888888" stroke-width="4"/>
<path d="M418.844 213.167V228.333H415.198L409.833 218.896V228.333H406.177V213.167H409.833L415.198 222.604V213.167H418.844ZM420.552 222.812V222.594C420.552 221.767 420.67 221.007 420.906 220.312C421.142 219.611 421.49 219.003 421.948 218.49C422.406 217.976 422.972 217.576 423.646 217.292C424.319 217 425.097 216.854 425.979 216.854C426.868 216.854 427.649 217 428.323 217.292C429.003 217.576 429.573 217.976 430.031 218.49C430.49 219.003 430.837 219.611 431.073 220.312C431.309 221.007 431.427 221.767 431.427 222.594V222.812C431.427 223.632 431.309 224.392 431.073 225.094C430.837 225.788 430.49 226.396 430.031 226.917C429.573 227.431 429.007 227.83 428.333 228.115C427.66 228.399 426.882 228.542 426 228.542C425.118 228.542 424.337 228.399 423.656 228.115C422.976 227.83 422.406 227.431 421.948 226.917C421.49 226.396 421.142 225.788 420.906 225.094C420.67 224.392 420.552 223.632 420.552 222.812ZM424.062 222.594V222.812C424.062 223.236 424.094 223.632 424.156 224C424.219 224.368 424.323 224.691 424.469 224.969C424.615 225.24 424.812 225.451 425.062 225.604C425.312 225.757 425.625 225.833 426 225.833C426.368 225.833 426.674 225.757 426.917 225.604C427.167 225.451 427.365 225.24 427.51 224.969C427.656 224.691 427.76 224.368 427.823 224C427.885 223.632 427.917 223.236 427.917 222.812V222.594C427.917 222.184 427.885 221.799 427.823 221.437C427.76 221.069 427.656 220.747 427.51 220.469C427.365 220.184 427.167 219.962 426.917 219.802C426.667 219.642 426.354 219.562 425.979 219.562C425.611 219.562 425.302 219.642 425.052 219.802C424.809 219.962 424.615 220.184 424.469 220.469C424.323 220.747 424.219 221.069 424.156 221.437C424.094 221.799 424.062 222.184 424.062 222.594ZM439.469 225.75V212.333H443V228.333H439.833L439.469 225.75ZM432.552 222.833V222.615C432.552 221.76 432.646 220.983 432.833 220.281C433.021 219.573 433.299 218.965 433.667 218.458C434.035 217.944 434.493 217.549 435.042 217.271C435.59 216.993 436.222 216.854 436.938 216.854C437.576 216.854 438.135 217.003 438.615 217.302C439.094 217.594 439.503 218.003 439.844 218.531C440.184 219.059 440.462 219.677 440.677 220.385C440.892 221.087 441.056 221.844 441.167 222.656V222.917C441.056 223.681 440.892 224.403 440.677 225.083C440.462 225.757 440.184 226.354 439.844 226.875C439.503 227.396 439.09 227.806 438.604 228.104C438.125 228.396 437.563 228.542 436.917 228.542C436.201 228.542 435.569 228.399 435.021 228.115C434.479 227.83 434.024 227.431 433.656 226.917C433.295 226.403 433.021 225.799 432.833 225.104C432.646 224.41 432.552 223.653 432.552 222.833ZM436.063 222.615V222.833C436.063 223.257 436.09 223.649 436.146 224.01C436.201 224.372 436.295 224.691 436.427 224.969C436.566 225.24 436.747 225.451 436.969 225.604C437.198 225.757 437.479 225.833 437.813 225.833C438.264 225.833 438.635 225.726 438.927 225.51C439.226 225.295 439.444 224.99 439.583 224.594C439.729 224.198 439.792 223.733 439.771 223.198V222.375C439.785 221.917 439.753 221.514 439.677 221.167C439.601 220.812 439.479 220.517 439.313 220.281C439.153 220.045 438.948 219.868 438.698 219.75C438.455 219.625 438.167 219.562 437.833 219.562C437.507 219.562 437.229 219.639 437 219.792C436.778 219.944 436.597 220.16 436.458 220.437C436.319 220.708 436.219 221.031 436.156 221.406C436.094 221.774 436.063 222.177 436.063 222.615ZM450.448 228.542C449.531 228.542 448.712 228.399 447.99 228.115C447.267 227.823 446.656 227.424 446.156 226.917C445.663 226.41 445.285 225.826 445.021 225.167C444.764 224.507 444.635 223.809 444.635 223.073V222.677C444.635 221.851 444.75 221.087 444.979 220.385C445.208 219.677 445.549 219.059 446 218.531C446.451 218.003 447.017 217.594 447.698 217.302C448.378 217.003 449.17 216.854 450.073 216.854C450.872 216.854 451.587 216.983 452.219 217.24C452.851 217.497 453.385 217.865 453.823 218.344C454.267 218.823 454.604 219.403 454.833 220.083C455.069 220.764 455.188 221.528 455.188 222.375V223.802H445.979V221.604H451.76V221.333C451.767 220.958 451.701 220.639 451.563 220.375C451.431 220.111 451.236 219.91 450.979 219.771C450.722 219.632 450.41 219.562 450.042 219.562C449.66 219.562 449.344 219.646 449.094 219.812C448.851 219.979 448.66 220.208 448.521 220.5C448.389 220.785 448.295 221.115 448.24 221.49C448.184 221.865 448.156 222.26 448.156 222.677V223.073C448.156 223.49 448.212 223.868 448.323 224.208C448.441 224.549 448.608 224.84 448.823 225.083C449.045 225.319 449.309 225.503 449.615 225.635C449.927 225.767 450.281 225.833 450.677 225.833C451.156 225.833 451.628 225.743 452.094 225.562C452.559 225.382 452.958 225.083 453.292 224.667L454.885 226.562C454.656 226.889 454.33 227.205 453.906 227.51C453.49 227.816 452.99 228.066 452.406 228.26C451.823 228.448 451.17 228.542 450.448 228.542ZM462.813 223.573V213.167H466.458V223.573C466.458 224.587 466.226 225.465 465.76 226.208C465.302 226.951 464.677 227.528 463.885 227.937C463.101 228.34 462.219 228.542 461.24 228.542C460.226 228.542 459.323 228.372 458.531 228.031C457.747 227.691 457.128 227.167 456.677 226.458C456.233 225.75 456.01 224.847 456.01 223.75H459.677C459.677 224.264 459.736 224.667 459.854 224.958C459.972 225.243 460.146 225.444 460.375 225.562C460.611 225.674 460.899 225.729 461.24 225.729C461.573 225.729 461.854 225.646 462.083 225.479C462.319 225.306 462.5 225.059 462.625 224.74C462.75 224.413 462.813 224.024 462.813 223.573ZM476.594 224.302C476.594 224.066 476.559 223.854 476.49 223.667C476.42 223.472 476.292 223.292 476.104 223.125C475.917 222.958 475.646 222.792 475.292 222.625C474.944 222.451 474.486 222.271 473.917 222.083C473.25 221.861 472.608 221.611 471.99 221.333C471.372 221.049 470.819 220.719 470.333 220.344C469.847 219.962 469.462 219.517 469.177 219.01C468.892 218.497 468.75 217.899 468.75 217.219C468.75 216.566 468.896 215.979 469.188 215.458C469.479 214.931 469.885 214.483 470.406 214.115C470.934 213.74 471.552 213.455 472.26 213.26C472.969 213.059 473.743 212.958 474.583 212.958C475.694 212.958 476.674 213.153 477.521 213.542C478.375 213.924 479.042 214.469 479.521 215.177C480.007 215.878 480.25 216.708 480.25 217.667H476.615C476.615 217.285 476.535 216.948 476.375 216.656C476.222 216.365 475.99 216.135 475.677 215.969C475.365 215.802 474.972 215.719 474.5 215.719C474.042 215.719 473.656 215.788 473.344 215.927C473.031 216.066 472.795 216.253 472.635 216.49C472.476 216.719 472.396 216.972 472.396 217.25C472.396 217.479 472.458 217.687 472.583 217.875C472.715 218.056 472.899 218.226 473.135 218.385C473.378 218.545 473.67 218.698 474.01 218.844C474.358 218.99 474.747 219.132 475.177 219.271C475.983 219.528 476.698 219.816 477.323 220.135C477.955 220.448 478.486 220.806 478.917 221.208C479.354 221.604 479.684 222.056 479.906 222.562C480.135 223.069 480.25 223.642 480.25 224.281C480.25 224.962 480.118 225.566 479.854 226.094C479.59 226.622 479.212 227.069 478.719 227.437C478.226 227.799 477.635 228.073 476.948 228.26C476.26 228.448 475.493 228.542 474.646 228.542C473.868 228.542 473.101 228.444 472.344 228.25C471.594 228.049 470.913 227.743 470.302 227.333C469.691 226.917 469.201 226.385 468.833 225.74C468.472 225.087 468.292 224.312 468.292 223.417H471.958C471.958 223.861 472.017 224.236 472.135 224.542C472.253 224.847 472.427 225.094 472.656 225.281C472.885 225.462 473.167 225.594 473.5 225.677C473.833 225.753 474.215 225.792 474.646 225.792C475.111 225.792 475.486 225.726 475.771 225.594C476.056 225.455 476.264 225.274 476.396 225.052C476.528 224.823 476.594 224.573 476.594 224.302Z" fill="white"/>
<rect x="571" y="196.333" width="208" height="49.3333" rx="4.66667" fill="#888888" stroke="#888888" stroke-width="4"/>
<path d="M623.781 220.229V226.458C623.524 226.743 623.128 227.049 622.594 227.375C622.066 227.694 621.399 227.969 620.594 228.198C619.788 228.427 618.84 228.542 617.75 228.542C616.743 228.542 615.83 228.382 615.01 228.062C614.191 227.736 613.486 227.26 612.896 226.635C612.313 226.003 611.861 225.233 611.542 224.323C611.229 223.406 611.073 222.358 611.073 221.177V220.333C611.073 219.153 611.233 218.104 611.552 217.187C611.872 216.271 612.319 215.5 612.896 214.875C613.479 214.243 614.163 213.764 614.948 213.437C615.74 213.111 616.608 212.948 617.552 212.948C618.948 212.948 620.083 213.17 620.958 213.615C621.833 214.052 622.497 214.66 622.948 215.437C623.399 216.208 623.674 217.101 623.771 218.115H620.26C620.191 217.615 620.059 217.191 619.865 216.844C619.677 216.49 619.406 216.222 619.052 216.042C618.698 215.854 618.24 215.76 617.677 215.76C617.24 215.76 616.84 215.854 616.479 216.042C616.125 216.229 615.823 216.514 615.573 216.896C615.323 217.271 615.128 217.743 614.99 218.312C614.858 218.882 614.792 219.549 614.792 220.312V221.177C614.792 221.934 614.854 222.597 614.979 223.167C615.111 223.736 615.306 224.212 615.563 224.594C615.826 224.969 616.16 225.253 616.563 225.448C616.972 225.635 617.455 225.729 618.01 225.729C618.399 225.729 618.733 225.698 619.01 225.635C619.288 225.566 619.517 225.483 619.698 225.385C619.885 225.281 620.028 225.184 620.125 225.094V222.74H617.583V220.229H623.781ZM625.313 222.812V222.594C625.313 221.767 625.431 221.007 625.667 220.312C625.903 219.611 626.25 219.003 626.708 218.49C627.167 217.976 627.733 217.576 628.406 217.292C629.08 217 629.858 216.854 630.74 216.854C631.628 216.854 632.41 217 633.083 217.292C633.764 217.576 634.333 217.976 634.792 218.49C635.25 219.003 635.597 219.611 635.833 220.312C636.069 221.007 636.188 221.767 636.188 222.594V222.812C636.188 223.632 636.069 224.392 635.833 225.094C635.597 225.788 635.25 226.396 634.792 226.917C634.333 227.431 633.767 227.83 633.094 228.115C632.42 228.399 631.642 228.542 630.76 228.542C629.878 228.542 629.097 228.399 628.417 228.115C627.736 227.83 627.167 227.431 626.708 226.917C626.25 226.396 625.903 225.788 625.667 225.094C625.431 224.392 625.313 223.632 625.313 222.812ZM628.823 222.594V222.812C628.823 223.236 628.854 223.632 628.917 224C628.979 224.368 629.083 224.691 629.229 224.969C629.375 225.24 629.573 225.451 629.823 225.604C630.073 225.757 630.385 225.833 630.76 225.833C631.128 225.833 631.434 225.757 631.677 225.604C631.927 225.451 632.125 225.24 632.271 224.969C632.417 224.691 632.521 224.368 632.583 224C632.646 223.632 632.677 223.236 632.677 222.812V222.594C632.677 222.184 632.646 221.799 632.583 221.437C632.521 221.069 632.417 220.747 632.271 220.469C632.125 220.184 631.927 219.962 631.677 219.802C631.427 219.642 631.115 219.562 630.74 219.562C630.372 219.562 630.063 219.642 629.813 219.802C629.569 219.962 629.375 220.184 629.229 220.469C629.083 220.747 628.979 221.069 628.917 221.437C628.854 221.799 628.823 222.184 628.823 222.594ZM637.313 222.812V222.594C637.313 221.767 637.431 221.007 637.667 220.312C637.903 219.611 638.25 219.003 638.708 218.49C639.167 217.976 639.733 217.576 640.406 217.292C641.08 217 641.858 216.854 642.74 216.854C643.628 216.854 644.41 217 645.083 217.292C645.764 217.576 646.333 217.976 646.792 218.49C647.25 219.003 647.597 219.611 647.833 220.312C648.069 221.007 648.188 221.767 648.188 222.594V222.812C648.188 223.632 648.069 224.392 647.833 225.094C647.597 225.788 647.25 226.396 646.792 226.917C646.333 227.431 645.767 227.83 645.094 228.115C644.42 228.399 643.642 228.542 642.76 228.542C641.878 228.542 641.097 228.399 640.417 228.115C639.736 227.83 639.167 227.431 638.708 226.917C638.25 226.396 637.903 225.788 637.667 225.094C637.431 224.392 637.313 223.632 637.313 222.812ZM640.823 222.594V222.812C640.823 223.236 640.854 223.632 640.917 224C640.979 224.368 641.083 224.691 641.229 224.969C641.375 225.24 641.573 225.451 641.823 225.604C642.073 225.757 642.385 225.833 642.76 225.833C643.128 225.833 643.434 225.757 643.677 225.604C643.927 225.451 644.125 225.24 644.271 224.969C644.417 224.691 644.521 224.368 644.583 224C644.646 223.632 644.677 223.236 644.677 222.812V222.594C644.677 222.184 644.646 221.799 644.583 221.437C644.521 221.069 644.417 220.747 644.271 220.469C644.125 220.184 643.927 219.962 643.677 219.802C643.427 219.642 643.115 219.562 642.74 219.562C642.372 219.562 642.063 219.642 641.813 219.802C641.569 219.962 641.375 220.184 641.229 220.469C641.083 220.747 640.979 221.069 640.917 221.437C640.854 221.799 640.823 222.184 640.823 222.594ZM656.833 217.062H660.021V227.896C660.021 228.937 659.781 229.819 659.302 230.542C658.823 231.271 658.153 231.823 657.292 232.198C656.438 232.58 655.438 232.771 654.292 232.771C653.785 232.771 653.267 232.705 652.74 232.573C652.212 232.448 651.719 232.26 651.26 232.01C650.802 231.76 650.417 231.451 650.104 231.083L651.573 229.021C651.858 229.34 652.215 229.611 652.646 229.833C653.076 230.062 653.583 230.177 654.167 230.177C654.674 230.177 655.097 230.087 655.438 229.906C655.785 229.726 656.049 229.462 656.229 229.115C656.41 228.774 656.5 228.361 656.5 227.875V219.729L656.833 217.062ZM649.344 222.833V222.615C649.344 221.76 649.448 220.983 649.656 220.281C649.872 219.573 650.177 218.965 650.573 218.458C650.976 217.944 651.462 217.549 652.031 217.271C652.601 216.993 653.243 216.854 653.958 216.854C654.729 216.854 655.361 217.003 655.854 217.302C656.354 217.594 656.753 218.003 657.052 218.531C657.358 219.059 657.594 219.677 657.76 220.385C657.934 221.087 658.08 221.844 658.198 222.656V222.917C658.08 223.681 657.917 224.403 657.708 225.083C657.507 225.757 657.243 226.354 656.917 226.875C656.59 227.396 656.181 227.806 655.688 228.104C655.201 228.396 654.618 228.542 653.938 228.542C653.229 228.542 652.59 228.399 652.021 228.115C651.458 227.83 650.976 227.431 650.573 226.917C650.177 226.403 649.872 225.799 649.656 225.104C649.448 224.41 649.344 223.653 649.344 222.833ZM652.854 222.615V222.833C652.854 223.257 652.892 223.649 652.969 224.01C653.052 224.372 653.177 224.691 653.344 224.969C653.51 225.24 653.715 225.451 653.958 225.604C654.208 225.757 654.5 225.833 654.833 225.833C655.34 225.833 655.75 225.726 656.063 225.51C656.375 225.295 656.601 224.99 656.74 224.594C656.878 224.198 656.938 223.733 656.917 223.198V222.375C656.931 221.917 656.899 221.514 656.823 221.167C656.747 220.812 656.625 220.517 656.458 220.281C656.299 220.045 656.083 219.868 655.813 219.75C655.549 219.625 655.229 219.562 654.854 219.562C654.528 219.562 654.24 219.639 653.99 219.792C653.74 219.944 653.531 220.16 653.365 220.437C653.198 220.708 653.069 221.031 652.979 221.406C652.896 221.774 652.854 222.177 652.854 222.615ZM665.75 212.333V228.333H662.229V212.333H665.75ZM673.375 228.542C672.458 228.542 671.639 228.399 670.917 228.115C670.194 227.823 669.583 227.424 669.083 226.917C668.59 226.41 668.212 225.826 667.948 225.167C667.691 224.507 667.563 223.809 667.563 223.073V222.677C667.563 221.851 667.677 221.087 667.906 220.385C668.135 219.677 668.476 219.059 668.927 218.531C669.378 218.003 669.944 217.594 670.625 217.302C671.306 217.003 672.097 216.854 673 216.854C673.799 216.854 674.514 216.983 675.146 217.24C675.778 217.497 676.313 217.865 676.75 218.344C677.194 218.823 677.531 219.403 677.76 220.083C677.997 220.764 678.115 221.528 678.115 222.375V223.802H668.906V221.604H674.688V221.333C674.694 220.958 674.628 220.639 674.49 220.375C674.358 220.111 674.163 219.91 673.906 219.771C673.649 219.632 673.337 219.562 672.969 219.562C672.587 219.562 672.271 219.646 672.021 219.812C671.778 219.979 671.587 220.208 671.448 220.5C671.316 220.785 671.222 221.115 671.167 221.49C671.111 221.865 671.083 222.26 671.083 222.677V223.073C671.083 223.49 671.139 223.868 671.25 224.208C671.368 224.549 671.535 224.84 671.75 225.083C671.972 225.319 672.236 225.503 672.542 225.635C672.854 225.767 673.208 225.833 673.604 225.833C674.083 225.833 674.556 225.743 675.021 225.562C675.486 225.382 675.885 225.083 676.219 224.667L677.813 226.562C677.583 226.889 677.257 227.205 676.833 227.51C676.417 227.816 675.917 228.066 675.333 228.26C674.75 228.448 674.097 228.542 673.375 228.542ZM693.646 223.198H697.292C697.243 224.253 696.958 225.184 696.438 225.99C695.917 226.795 695.194 227.424 694.271 227.875C693.354 228.319 692.271 228.542 691.021 228.542C690.007 228.542 689.101 228.372 688.302 228.031C687.51 227.691 686.837 227.201 686.281 226.562C685.733 225.924 685.313 225.149 685.021 224.24C684.736 223.33 684.594 222.306 684.594 221.167V220.344C684.594 219.205 684.743 218.181 685.042 217.271C685.347 216.354 685.778 215.576 686.333 214.937C686.896 214.292 687.569 213.799 688.354 213.458C689.139 213.118 690.01 212.948 690.969 212.948C692.288 212.948 693.403 213.184 694.313 213.656C695.222 214.128 695.927 214.778 696.427 215.604C696.927 216.424 697.222 217.358 697.313 218.406H693.667C693.653 217.837 693.556 217.361 693.375 216.979C693.194 216.59 692.91 216.299 692.521 216.104C692.132 215.91 691.615 215.812 690.969 215.812C690.517 215.812 690.125 215.896 689.792 216.062C689.458 216.229 689.181 216.493 688.958 216.854C688.736 217.215 688.569 217.684 688.458 218.26C688.354 218.83 688.302 219.517 688.302 220.323V221.167C688.302 221.972 688.351 222.66 688.448 223.229C688.545 223.799 688.701 224.264 688.917 224.625C689.132 224.986 689.41 225.253 689.75 225.427C690.097 225.594 690.521 225.677 691.021 225.677C691.576 225.677 692.045 225.59 692.427 225.417C692.809 225.236 693.104 224.965 693.313 224.604C693.521 224.236 693.632 223.767 693.646 223.198ZM702.563 212.333V228.333H699.042V212.333H702.563ZM704.292 222.812V222.594C704.292 221.767 704.41 221.007 704.646 220.312C704.882 219.611 705.229 219.003 705.688 218.49C706.146 217.976 706.712 217.576 707.385 217.292C708.059 217 708.837 216.854 709.719 216.854C710.608 216.854 711.389 217 712.063 217.292C712.743 217.576 713.313 217.976 713.771 218.49C714.229 219.003 714.576 219.611 714.813 220.312C715.049 221.007 715.167 221.767 715.167 222.594V222.812C715.167 223.632 715.049 224.392 714.813 225.094C714.576 225.788 714.229 226.396 713.771 226.917C713.313 227.431 712.747 227.83 712.073 228.115C711.399 228.399 710.622 228.542 709.74 228.542C708.858 228.542 708.076 228.399 707.396 228.115C706.715 227.83 706.146 227.431 705.688 226.917C705.229 226.396 704.882 225.788 704.646 225.094C704.41 224.392 704.292 223.632 704.292 222.812ZM707.802 222.594V222.812C707.802 223.236 707.833 223.632 707.896 224C707.958 224.368 708.063 224.691 708.208 224.969C708.354 225.24 708.552 225.451 708.802 225.604C709.052 225.757 709.365 225.833 709.74 225.833C710.108 225.833 710.413 225.757 710.656 225.604C710.906 225.451 711.104 225.24 711.25 224.969C711.396 224.691 711.5 224.368 711.563 224C711.625 223.632 711.656 223.236 711.656 222.812V222.594C711.656 222.184 711.625 221.799 711.563 221.437C711.5 221.069 711.396 220.747 711.25 220.469C711.104 220.184 710.906 219.962 710.656 219.802C710.406 219.642 710.094 219.562 709.719 219.562C709.351 219.562 709.042 219.642 708.792 219.802C708.549 219.962 708.354 220.184 708.208 220.469C708.063 220.747 707.958 221.069 707.896 221.437C707.833 221.799 707.802 222.184 707.802 222.594ZM723.313 225.594V217.062H726.833V228.333H723.542L723.313 225.594ZM723.646 223.302L724.563 223.281C724.563 224.038 724.472 224.74 724.292 225.385C724.111 226.024 723.844 226.58 723.49 227.052C723.142 227.524 722.712 227.892 722.198 228.156C721.691 228.413 721.104 228.542 720.438 228.542C719.882 228.542 719.372 228.465 718.906 228.312C718.448 228.153 718.052 227.906 717.719 227.573C717.385 227.233 717.125 226.799 716.938 226.271C716.757 225.736 716.667 225.097 716.667 224.354V217.062H720.177V224.375C720.177 224.625 720.208 224.84 720.271 225.021C720.333 225.201 720.424 225.354 720.542 225.479C720.66 225.597 720.806 225.687 720.979 225.75C721.16 225.806 721.365 225.833 721.594 225.833C722.122 225.833 722.535 225.722 722.833 225.5C723.132 225.278 723.34 224.976 723.458 224.594C723.583 224.212 723.646 223.781 723.646 223.302ZM735.25 225.75V212.333H738.781V228.333H735.615L735.25 225.75ZM728.333 222.833V222.615C728.333 221.76 728.427 220.983 728.615 220.281C728.802 219.573 729.08 218.965 729.448 218.458C729.816 217.944 730.274 217.549 730.823 217.271C731.372 216.993 732.003 216.854 732.719 216.854C733.358 216.854 733.917 217.003 734.396 217.302C734.875 217.594 735.285 218.003 735.625 218.531C735.965 219.059 736.243 219.677 736.458 220.385C736.674 221.087 736.837 221.844 736.948 222.656V222.917C736.837 223.681 736.674 224.403 736.458 225.083C736.243 225.757 735.965 226.354 735.625 226.875C735.285 227.396 734.872 227.806 734.385 228.104C733.906 228.396 733.344 228.542 732.698 228.542C731.983 228.542 731.351 228.399 730.802 228.115C730.26 227.83 729.806 227.431 729.438 226.917C729.076 226.403 728.802 225.799 728.615 225.104C728.427 224.41 728.333 223.653 728.333 222.833ZM731.844 222.615V222.833C731.844 223.257 731.872 223.649 731.927 224.01C731.983 224.372 732.076 224.691 732.208 224.969C732.347 225.24 732.528 225.451 732.75 225.604C732.979 225.757 733.26 225.833 733.594 225.833C734.045 225.833 734.417 225.726 734.708 225.51C735.007 225.295 735.226 224.99 735.365 224.594C735.51 224.198 735.573 223.733 735.552 223.198V222.375C735.566 221.917 735.535 221.514 735.458 221.167C735.382 220.812 735.26 220.517 735.094 220.281C734.934 220.045 734.729 219.868 734.479 219.75C734.236 219.625 733.948 219.562 733.615 219.562C733.288 219.562 733.01 219.639 732.781 219.792C732.559 219.944 732.378 220.16 732.24 220.437C732.101 220.708 732 221.031 731.938 221.406C731.875 221.774 731.844 222.177 731.844 222.615Z" fill="white"/>
<rect x="803" y="196.333" width="208" height="49.3333" rx="4.66667" fill="#888888" stroke="#888888" stroke-width="4"/>
<path d="M846.833 213.167H852.802C853.969 213.167 854.983 213.34 855.844 213.687C856.705 214.035 857.368 214.549 857.833 215.229C858.306 215.91 858.542 216.75 858.542 217.75C858.542 218.618 858.406 219.344 858.135 219.927C857.865 220.51 857.486 220.993 857 221.375C856.521 221.75 855.962 222.059 855.323 222.302L854.125 222.979H849.115L849.094 220.156H852.802C853.267 220.156 853.653 220.073 853.958 219.906C854.264 219.74 854.493 219.503 854.646 219.198C854.806 218.885 854.885 218.514 854.885 218.083C854.885 217.646 854.806 217.271 854.646 216.958C854.486 216.646 854.25 216.406 853.937 216.24C853.632 216.073 853.253 215.99 852.802 215.99H850.49V228.333H846.833V213.167ZM855.135 228.333L851.781 221.625L855.656 221.604L859.052 228.177V228.333H855.135ZM866.042 228.542C865.125 228.542 864.306 228.399 863.583 228.115C862.861 227.823 862.25 227.424 861.75 226.917C861.257 226.41 860.878 225.826 860.615 225.167C860.358 224.507 860.229 223.809 860.229 223.073V222.677C860.229 221.851 860.344 221.087 860.573 220.385C860.802 219.677 861.142 219.059 861.594 218.531C862.045 218.003 862.611 217.594 863.292 217.302C863.972 217.003 864.764 216.854 865.667 216.854C866.465 216.854 867.181 216.983 867.813 217.24C868.444 217.497 868.979 217.865 869.417 218.344C869.861 218.823 870.198 219.403 870.427 220.083C870.663 220.764 870.781 221.528 870.781 222.375V223.802H861.573V221.604H867.354V221.333C867.361 220.958 867.295 220.639 867.156 220.375C867.024 220.111 866.83 219.91 866.573 219.771C866.316 219.632 866.003 219.562 865.635 219.562C865.253 219.562 864.938 219.646 864.688 219.812C864.444 219.979 864.253 220.208 864.115 220.5C863.983 220.785 863.889 221.115 863.833 221.49C863.778 221.865 863.75 222.26 863.75 222.677V223.073C863.75 223.49 863.806 223.868 863.917 224.208C864.035 224.549 864.201 224.84 864.417 225.083C864.639 225.319 864.903 225.503 865.208 225.635C865.521 225.767 865.875 225.833 866.271 225.833C866.75 225.833 867.222 225.743 867.688 225.562C868.153 225.382 868.552 225.083 868.885 224.667L870.479 226.562C870.25 226.889 869.924 227.205 869.5 227.51C869.083 227.816 868.583 228.066 868 228.26C867.417 228.448 866.764 228.542 866.042 228.542ZM878.063 225.5V220.854C878.063 220.535 878.017 220.26 877.927 220.031C877.837 219.802 877.694 219.625 877.5 219.5C877.306 219.368 877.045 219.302 876.719 219.302C876.455 219.302 876.229 219.347 876.042 219.437C875.854 219.528 875.712 219.663 875.615 219.844C875.517 220.024 875.469 220.253 875.469 220.531H871.958C871.958 220.01 872.073 219.528 872.302 219.083C872.538 218.632 872.872 218.24 873.302 217.906C873.74 217.573 874.26 217.316 874.865 217.135C875.476 216.948 876.156 216.854 876.906 216.854C877.802 216.854 878.601 217.003 879.302 217.302C880.01 217.601 880.569 218.049 880.979 218.646C881.389 219.236 881.594 219.979 881.594 220.875V225.49C881.594 226.226 881.635 226.785 881.719 227.167C881.802 227.542 881.92 227.872 882.073 228.156V228.333H878.552C878.385 227.986 878.26 227.562 878.177 227.062C878.101 226.556 878.063 226.035 878.063 225.5ZM878.49 221.448L878.51 223.323H876.958C876.632 223.323 876.354 223.368 876.125 223.458C875.903 223.549 875.722 223.674 875.583 223.833C875.451 223.986 875.354 224.16 875.292 224.354C875.236 224.549 875.208 224.753 875.208 224.969C875.208 225.177 875.257 225.365 875.354 225.531C875.458 225.691 875.597 225.816 875.771 225.906C875.944 225.997 876.139 226.042 876.354 226.042C876.743 226.042 877.073 225.969 877.344 225.823C877.622 225.67 877.833 225.486 877.979 225.271C878.125 225.056 878.198 224.854 878.198 224.667L878.969 226.104C878.83 226.382 878.67 226.663 878.49 226.948C878.316 227.233 878.097 227.497 877.833 227.74C877.576 227.976 877.26 228.17 876.885 228.323C876.51 228.469 876.056 228.542 875.521 228.542C874.826 228.542 874.188 228.399 873.604 228.115C873.028 227.83 872.566 227.434 872.219 226.927C871.872 226.413 871.698 225.823 871.698 225.156C871.698 224.573 871.802 224.052 872.01 223.594C872.226 223.135 872.549 222.747 872.979 222.427C873.41 222.108 873.958 221.865 874.625 221.698C875.292 221.531 876.076 221.448 876.979 221.448H878.49ZM888.302 225.833C888.628 225.833 888.906 225.774 889.135 225.656C889.372 225.531 889.549 225.358 889.667 225.135C889.792 224.906 889.851 224.632 889.844 224.312H893.146C893.153 225.16 892.944 225.903 892.521 226.542C892.104 227.174 891.535 227.667 890.812 228.021C890.097 228.368 889.288 228.542 888.385 228.542C887.503 228.542 886.733 228.399 886.073 228.115C885.413 227.823 884.861 227.42 884.417 226.906C883.979 226.385 883.649 225.778 883.427 225.083C883.212 224.389 883.104 223.635 883.104 222.823V222.583C883.104 221.771 883.212 221.017 883.427 220.323C883.649 219.622 883.979 219.014 884.417 218.5C884.861 217.979 885.41 217.576 886.062 217.292C886.722 217 887.49 216.854 888.365 216.854C889.302 216.854 890.128 217.031 890.844 217.385C891.566 217.74 892.132 218.253 892.542 218.927C892.951 219.601 893.153 220.417 893.146 221.375H889.844C889.851 221.035 889.799 220.729 889.687 220.458C889.576 220.187 889.403 219.972 889.167 219.812C888.937 219.646 888.642 219.562 888.281 219.562C887.92 219.562 887.628 219.642 887.406 219.802C887.184 219.962 887.014 220.184 886.896 220.469C886.785 220.747 886.708 221.066 886.667 221.427C886.632 221.788 886.615 222.174 886.615 222.583V222.823C886.615 223.24 886.632 223.632 886.667 224C886.708 224.361 886.788 224.681 886.906 224.958C887.024 225.229 887.194 225.444 887.417 225.604C887.639 225.757 887.934 225.833 888.302 225.833ZM900.583 217.062V219.5H893.792V217.062H900.583ZM895.219 214.26H898.729V224.656C898.729 224.955 898.764 225.187 898.833 225.354C898.903 225.514 899.021 225.628 899.188 225.698C899.361 225.76 899.59 225.792 899.875 225.792C900.076 225.792 900.243 225.788 900.375 225.781C900.507 225.767 900.632 225.75 900.75 225.729V228.24C900.451 228.337 900.139 228.41 899.813 228.458C899.486 228.514 899.139 228.542 898.771 228.542C898.021 228.542 897.378 228.424 896.844 228.187C896.316 227.951 895.913 227.58 895.635 227.073C895.358 226.566 895.219 225.906 895.219 225.094V214.26ZM920.125 213.167V228.333H916.479L911.115 218.896V228.333H907.458V213.167H911.115L916.479 222.604V213.167H920.125ZM928.125 225.5V220.854C928.125 220.535 928.08 220.26 927.99 220.031C927.899 219.802 927.757 219.625 927.563 219.5C927.368 219.368 927.108 219.302 926.781 219.302C926.517 219.302 926.292 219.347 926.104 219.437C925.917 219.528 925.774 219.663 925.677 219.844C925.58 220.024 925.531 220.253 925.531 220.531H922.021C922.021 220.01 922.135 219.528 922.365 219.083C922.601 218.632 922.934 218.24 923.365 217.906C923.802 217.573 924.323 217.316 924.927 217.135C925.538 216.948 926.219 216.854 926.969 216.854C927.865 216.854 928.663 217.003 929.365 217.302C930.073 217.601 930.632 218.049 931.042 218.646C931.451 219.236 931.656 219.979 931.656 220.875V225.49C931.656 226.226 931.698 226.785 931.781 227.167C931.865 227.542 931.983 227.872 932.135 228.156V228.333H928.615C928.448 227.986 928.323 227.562 928.24 227.062C928.163 226.556 928.125 226.035 928.125 225.5ZM928.552 221.448L928.573 223.323H927.021C926.694 223.323 926.417 223.368 926.188 223.458C925.965 223.549 925.785 223.674 925.646 223.833C925.514 223.986 925.417 224.16 925.354 224.354C925.299 224.549 925.271 224.753 925.271 224.969C925.271 225.177 925.319 225.365 925.417 225.531C925.521 225.691 925.66 225.816 925.833 225.906C926.007 225.997 926.201 226.042 926.417 226.042C926.806 226.042 927.135 225.969 927.406 225.823C927.684 225.67 927.896 225.486 928.042 225.271C928.188 225.056 928.26 224.854 928.26 224.667L929.031 226.104C928.892 226.382 928.733 226.663 928.552 226.948C928.378 227.233 928.16 227.497 927.896 227.74C927.639 227.976 927.323 228.17 926.948 228.323C926.573 228.469 926.118 228.542 925.583 228.542C924.889 228.542 924.25 228.399 923.667 228.115C923.09 227.83 922.628 227.434 922.281 226.927C921.934 226.413 921.76 225.823 921.76 225.156C921.76 224.573 921.865 224.052 922.073 223.594C922.288 223.135 922.611 222.747 923.042 222.427C923.472 222.108 924.021 221.865 924.688 221.698C925.354 221.531 926.139 221.448 927.042 221.448H928.552ZM939.542 217.062V219.5H932.75V217.062H939.542ZM934.177 214.26H937.687V224.656C937.687 224.955 937.722 225.187 937.792 225.354C937.861 225.514 937.979 225.628 938.146 225.698C938.319 225.76 938.549 225.792 938.833 225.792C939.035 225.792 939.201 225.788 939.333 225.781C939.465 225.767 939.59 225.75 939.708 225.729V228.24C939.41 228.337 939.097 228.41 938.771 228.458C938.444 228.514 938.097 228.542 937.729 228.542C936.979 228.542 936.337 228.424 935.802 228.187C935.274 227.951 934.872 227.58 934.594 227.073C934.316 226.566 934.177 225.906 934.177 225.094V214.26ZM944.646 217.062V228.333H941.125V217.062H944.646ZM940.917 214.156C940.917 213.656 941.097 213.247 941.458 212.927C941.819 212.608 942.288 212.448 942.865 212.448C943.441 212.448 943.91 212.608 944.271 212.927C944.632 213.247 944.813 213.656 944.813 214.156C944.813 214.656 944.632 215.066 944.271 215.385C943.91 215.705 943.441 215.865 942.865 215.865C942.288 215.865 941.819 215.705 941.458 215.385C941.097 215.066 940.917 214.656 940.917 214.156ZM950.875 225.927L953.094 217.062H956.792L953.104 228.333H950.917L950.875 225.927ZM949.563 217.062L951.75 225.927L951.729 228.333H949.531L945.854 217.062H949.563ZM963.146 228.542C962.229 228.542 961.41 228.399 960.688 228.115C959.965 227.823 959.354 227.424 958.854 226.917C958.361 226.41 957.983 225.826 957.719 225.167C957.462 224.507 957.333 223.809 957.333 223.073V222.677C957.333 221.851 957.448 221.087 957.677 220.385C957.906 219.677 958.247 219.059 958.698 218.531C959.149 218.003 959.715 217.594 960.396 217.302C961.076 217.003 961.868 216.854 962.771 216.854C963.569 216.854 964.285 216.983 964.917 217.24C965.549 217.497 966.083 217.865 966.521 218.344C966.965 218.823 967.302 219.403 967.531 220.083C967.767 220.764 967.885 221.528 967.885 222.375V223.802H958.677V221.604H964.458V221.333C964.465 220.958 964.399 220.639 964.26 220.375C964.128 220.111 963.934 219.91 963.677 219.771C963.42 219.632 963.108 219.562 962.74 219.562C962.358 219.562 962.042 219.646 961.792 219.812C961.549 219.979 961.358 220.208 961.219 220.5C961.087 220.785 960.993 221.115 960.938 221.49C960.882 221.865 960.854 222.26 960.854 222.677V223.073C960.854 223.49 960.91 223.868 961.021 224.208C961.139 224.549 961.306 224.84 961.521 225.083C961.743 225.319 962.007 225.503 962.313 225.635C962.625 225.767 962.979 225.833 963.375 225.833C963.854 225.833 964.326 225.743 964.792 225.562C965.257 225.382 965.656 225.083 965.99 224.667L967.583 226.562C967.354 226.889 967.028 227.205 966.604 227.51C966.188 227.816 965.688 228.066 965.104 228.26C964.521 228.448 963.868 228.542 963.146 228.542Z" fill="white"/>
</svg>
