<svg width="1363" height="167" viewBox="0 0 1363 167" fill="none" xmlns="http://www.w3.org/2000/svg">
<rect width="1363" height="167" rx="15" fill="#F0F0F0"/>
<path d="M0 15C0 6.71573 6.71573 0 15 0H37V167H15C6.71573 167 0 160.284 0 152V15Z" fill="#424241"/>
<path d="M100.906 54.9219L93.3945 52.2383V49.0859L103.602 53.375V55.6367L100.906 54.9219ZM93.3945 57.1719L100.918 54.4297L103.602 53.7852V56.0352L93.3945 60.3242V57.1719ZM121.789 56.3398H125.293C125.223 57.4883 124.906 58.5078 124.344 59.3984C123.789 60.2891 123.012 60.9844 122.012 61.4844C121.02 61.9844 119.824 62.2344 118.426 62.2344C117.332 62.2344 116.352 62.0469 115.484 61.6719C114.617 61.2891 113.875 60.7422 113.258 60.0312C112.648 59.3203 112.184 58.4609 111.863 57.4531C111.543 56.4453 111.383 55.3164 111.383 54.0664V52.8828C111.383 51.6328 111.547 50.5039 111.875 49.4961C112.211 48.4805 112.688 47.6172 113.305 46.9062C113.93 46.1953 114.676 45.6484 115.543 45.2656C116.41 44.8828 117.379 44.6914 118.449 44.6914C119.871 44.6914 121.07 44.9492 122.047 45.4648C123.031 45.9805 123.793 46.6914 124.332 47.5977C124.879 48.5039 125.207 49.5352 125.316 50.6914H121.801C121.762 50.0039 121.625 49.4219 121.391 48.9453C121.156 48.4609 120.801 48.0977 120.324 47.8555C119.855 47.6055 119.23 47.4805 118.449 47.4805C117.863 47.4805 117.352 47.5898 116.914 47.8086C116.477 48.0273 116.109 48.3594 115.812 48.8047C115.516 49.25 115.293 49.8125 115.145 50.4922C115.004 51.1641 114.934 51.9531 114.934 52.8594V54.0664C114.934 54.9492 115 55.7266 115.133 56.3984C115.266 57.0625 115.469 57.625 115.742 58.0859C116.023 58.5391 116.383 58.8828 116.82 59.1172C117.266 59.3438 117.801 59.457 118.426 59.457C119.16 59.457 119.766 59.3398 120.242 59.1055C120.719 58.8711 121.082 58.5234 121.332 58.0625C121.59 57.6016 121.742 57.0273 121.789 56.3398ZM126.852 55.7891V55.543C126.852 54.6133 126.984 53.7578 127.25 52.9766C127.516 52.1875 127.902 51.5039 128.41 50.9258C128.918 50.3477 129.543 49.8984 130.285 49.5781C131.027 49.25 131.879 49.0859 132.84 49.0859C133.801 49.0859 134.656 49.25 135.406 49.5781C136.156 49.8984 136.785 50.3477 137.293 50.9258C137.809 51.5039 138.199 52.1875 138.465 52.9766C138.73 53.7578 138.863 54.6133 138.863 55.543V55.7891C138.863 56.7109 138.73 57.5664 138.465 58.3555C138.199 59.1367 137.809 59.8203 137.293 60.4062C136.785 60.9844 136.16 61.4336 135.418 61.7539C134.676 62.0742 133.824 62.2344 132.863 62.2344C131.902 62.2344 131.047 62.0742 130.297 61.7539C129.555 61.4336 128.926 60.9844 128.41 60.4062C127.902 59.8203 127.516 59.1367 127.25 58.3555C126.984 57.5664 126.852 56.7109 126.852 55.7891ZM130.227 55.543V55.7891C130.227 56.3203 130.273 56.8164 130.367 57.2773C130.461 57.7383 130.609 58.1445 130.812 58.4961C131.023 58.8398 131.297 59.1094 131.633 59.3047C131.969 59.5 132.379 59.5977 132.863 59.5977C133.332 59.5977 133.734 59.5 134.07 59.3047C134.406 59.1094 134.676 58.8398 134.879 58.4961C135.082 58.1445 135.23 57.7383 135.324 57.2773C135.426 56.8164 135.477 56.3203 135.477 55.7891V55.543C135.477 55.0273 135.426 54.543 135.324 54.0898C135.23 53.6289 135.078 53.2227 134.867 52.8711C134.664 52.5117 134.395 52.2305 134.059 52.0273C133.723 51.8242 133.316 51.7227 132.84 51.7227C132.363 51.7227 131.957 51.8242 131.621 52.0273C131.293 52.2305 131.023 52.5117 130.812 52.8711C130.609 53.2227 130.461 53.6289 130.367 54.0898C130.273 54.543 130.227 55.0273 130.227 55.543ZM148.426 59.2344V44H151.824V62H148.766L148.426 59.2344ZM140.41 55.8125V55.5664C140.41 54.5977 140.52 53.7188 140.738 52.9297C140.957 52.1328 141.277 51.4492 141.699 50.8789C142.121 50.3086 142.641 49.8672 143.258 49.5547C143.875 49.2422 144.578 49.0859 145.367 49.0859C146.109 49.0859 146.758 49.2422 147.312 49.5547C147.875 49.8672 148.352 50.3125 148.742 50.8906C149.141 51.4609 149.461 52.1367 149.703 52.918C149.945 53.6914 150.121 54.5391 150.23 55.4609V56C150.121 56.8828 149.945 57.7031 149.703 58.4609C149.461 59.2188 149.141 59.8828 148.742 60.4531C148.352 61.0156 147.875 61.4531 147.312 61.7656C146.75 62.0781 146.094 62.2344 145.344 62.2344C144.555 62.2344 143.852 62.0742 143.234 61.7539C142.625 61.4336 142.109 60.9844 141.688 60.4062C141.273 59.8281 140.957 59.1484 140.738 58.3672C140.52 57.5859 140.41 56.7344 140.41 55.8125ZM143.785 55.5664V55.8125C143.785 56.3359 143.824 56.8242 143.902 57.2773C143.988 57.7305 144.125 58.1328 144.312 58.4844C144.508 58.8281 144.758 59.0977 145.062 59.293C145.375 59.4805 145.754 59.5742 146.199 59.5742C146.777 59.5742 147.254 59.4453 147.629 59.1875C148.004 58.9219 148.289 58.5586 148.484 58.0977C148.688 57.6367 148.805 57.1055 148.836 56.5039V54.9688C148.812 54.4766 148.742 54.0352 148.625 53.6445C148.516 53.2461 148.352 52.9062 148.133 52.625C147.922 52.3438 147.656 52.125 147.336 51.9688C147.023 51.8125 146.652 51.7344 146.223 51.7344C145.785 51.7344 145.41 51.8359 145.098 52.0391C144.785 52.2344 144.531 52.5039 144.336 52.8477C144.148 53.1914 144.008 53.5977 143.914 54.0664C143.828 54.5273 143.785 55.0273 143.785 55.5664ZM160.297 62.2344C159.312 62.2344 158.43 62.0781 157.648 61.7656C156.867 61.4453 156.203 61.0039 155.656 60.4414C155.117 59.8789 154.703 59.2266 154.414 58.4844C154.125 57.7344 153.98 56.9375 153.98 56.0938V55.625C153.98 54.6641 154.117 53.7852 154.391 52.9883C154.664 52.1914 155.055 51.5 155.562 50.9141C156.078 50.3281 156.703 49.8789 157.438 49.5664C158.172 49.2461 159 49.0859 159.922 49.0859C160.82 49.0859 161.617 49.2344 162.312 49.5312C163.008 49.8281 163.59 50.25 164.059 50.7969C164.535 51.3438 164.895 52 165.137 52.7656C165.379 53.5234 165.5 54.3672 165.5 55.2969V56.7031H155.422V54.4531H162.184V54.1953C162.184 53.7266 162.098 53.3086 161.926 52.9414C161.762 52.5664 161.512 52.2695 161.176 52.0508C160.84 51.832 160.41 51.7227 159.887 51.7227C159.441 51.7227 159.059 51.8203 158.738 52.0156C158.418 52.2109 158.156 52.4844 157.953 52.8359C157.758 53.1875 157.609 53.6016 157.508 54.0781C157.414 54.5469 157.367 55.0625 157.367 55.625V56.0938C157.367 56.6016 157.438 57.0703 157.578 57.5C157.727 57.9297 157.934 58.3008 158.199 58.6133C158.473 58.9258 158.801 59.168 159.184 59.3398C159.574 59.5117 160.016 59.5977 160.508 59.5977C161.117 59.5977 161.684 59.4805 162.207 59.2461C162.738 59.0039 163.195 58.6406 163.578 58.1562L165.219 59.9375C164.953 60.3203 164.59 60.6875 164.129 61.0391C163.676 61.3906 163.129 61.6797 162.488 61.9062C161.848 62.125 161.117 62.2344 160.297 62.2344ZM177.523 56.3398H181.027C180.957 57.4883 180.641 58.5078 180.078 59.3984C179.523 60.2891 178.746 60.9844 177.746 61.4844C176.754 61.9844 175.559 62.2344 174.16 62.2344C173.066 62.2344 172.086 62.0469 171.219 61.6719C170.352 61.2891 169.609 60.7422 168.992 60.0312C168.383 59.3203 167.918 58.4609 167.598 57.4531C167.277 56.4453 167.117 55.3164 167.117 54.0664V52.8828C167.117 51.6328 167.281 50.5039 167.609 49.4961C167.945 48.4805 168.422 47.6172 169.039 46.9062C169.664 46.1953 170.41 45.6484 171.277 45.2656C172.145 44.8828 173.113 44.6914 174.184 44.6914C175.605 44.6914 176.805 44.9492 177.781 45.4648C178.766 45.9805 179.527 46.6914 180.066 47.5977C180.613 48.5039 180.941 49.5352 181.051 50.6914H177.535C177.496 50.0039 177.359 49.4219 177.125 48.9453C176.891 48.4609 176.535 48.0977 176.059 47.8555C175.59 47.6055 174.965 47.4805 174.184 47.4805C173.598 47.4805 173.086 47.5898 172.648 47.8086C172.211 48.0273 171.844 48.3594 171.547 48.8047C171.25 49.25 171.027 49.8125 170.879 50.4922C170.738 51.1641 170.668 51.9531 170.668 52.8594V54.0664C170.668 54.9492 170.734 55.7266 170.867 56.3984C171 57.0625 171.203 57.625 171.477 58.0859C171.758 58.5391 172.117 58.8828 172.555 59.1172C173 59.3438 173.535 59.457 174.16 59.457C174.895 59.457 175.5 59.3398 175.977 59.1055C176.453 58.8711 176.816 58.5234 177.066 58.0625C177.324 57.6016 177.477 57.0273 177.523 56.3398ZM189.969 59.1406V53.4922C189.969 53.0859 189.902 52.7383 189.77 52.4492C189.637 52.1523 189.43 51.9219 189.148 51.7578C188.875 51.5938 188.52 51.5117 188.082 51.5117C187.707 51.5117 187.383 51.5781 187.109 51.7109C186.836 51.8359 186.625 52.0195 186.477 52.2617C186.328 52.4961 186.254 52.7734 186.254 53.0938H182.879C182.879 52.5547 183.004 52.043 183.254 51.5586C183.504 51.0742 183.867 50.6484 184.344 50.2812C184.82 49.9062 185.387 49.6133 186.043 49.4023C186.707 49.1914 187.449 49.0859 188.27 49.0859C189.254 49.0859 190.129 49.25 190.895 49.5781C191.66 49.9062 192.262 50.3984 192.699 51.0547C193.145 51.7109 193.367 52.5312 193.367 53.5156V58.9414C193.367 59.6367 193.41 60.207 193.496 60.6523C193.582 61.0898 193.707 61.4727 193.871 61.8008V62H190.461C190.297 61.6562 190.172 61.2266 190.086 60.7109C190.008 60.1875 189.969 59.6641 189.969 59.1406ZM190.414 54.2773L190.438 56.1875H188.551C188.105 56.1875 187.719 56.2383 187.391 56.3398C187.062 56.4414 186.793 56.5859 186.582 56.7734C186.371 56.9531 186.215 57.1641 186.113 57.4062C186.02 57.6484 185.973 57.9141 185.973 58.2031C185.973 58.4922 186.039 58.7539 186.172 58.9883C186.305 59.2148 186.496 59.3945 186.746 59.5273C186.996 59.6523 187.289 59.7148 187.625 59.7148C188.133 59.7148 188.574 59.6133 188.949 59.4102C189.324 59.207 189.613 58.957 189.816 58.6602C190.027 58.3633 190.137 58.082 190.145 57.8164L191.035 59.2461C190.91 59.5664 190.738 59.8984 190.52 60.2422C190.309 60.5859 190.039 60.9102 189.711 61.2148C189.383 61.5117 188.988 61.7578 188.527 61.9531C188.066 62.1406 187.52 62.2344 186.887 62.2344C186.082 62.2344 185.352 62.0742 184.695 61.7539C184.047 61.4258 183.531 60.9766 183.148 60.4062C182.773 59.8281 182.586 59.1719 182.586 58.4375C182.586 57.7734 182.711 57.1836 182.961 56.668C183.211 56.1523 183.578 55.7188 184.062 55.3672C184.555 55.0078 185.168 54.7383 185.902 54.5586C186.637 54.3711 187.488 54.2773 188.457 54.2773H190.414ZM199.344 51.9453V62H195.957V49.3203H199.133L199.344 51.9453ZM198.875 55.2148H197.938C197.938 54.332 198.043 53.5195 198.254 52.7773C198.473 52.0273 198.789 51.3789 199.203 50.832C199.625 50.2773 200.145 49.8477 200.762 49.543C201.379 49.2383 202.094 49.0859 202.906 49.0859C203.469 49.0859 203.984 49.1719 204.453 49.3438C204.922 49.5078 205.324 49.7695 205.66 50.1289C206.004 50.4805 206.27 50.9414 206.457 51.5117C206.645 52.0742 206.738 52.75 206.738 53.5391V62H203.363V53.9141C203.363 53.3359 203.285 52.8906 203.129 52.5781C202.973 52.2656 202.75 52.0469 202.461 51.9219C202.18 51.7969 201.84 51.7344 201.441 51.7344C201.004 51.7344 200.621 51.8242 200.293 52.0039C199.973 52.1836 199.707 52.4336 199.496 52.7539C199.285 53.0664 199.129 53.4336 199.027 53.8555C198.926 54.2773 198.875 54.7305 198.875 55.2148ZM206.422 54.8281L205.215 54.9805C205.215 54.1523 205.316 53.3828 205.52 52.6719C205.73 51.9609 206.039 51.3359 206.445 50.7969C206.859 50.2578 207.371 49.8398 207.98 49.543C208.59 49.2383 209.293 49.0859 210.09 49.0859C210.699 49.0859 211.254 49.1758 211.754 49.3555C212.254 49.5273 212.68 49.8047 213.031 50.1875C213.391 50.5625 213.664 51.0547 213.852 51.6641C214.047 52.2734 214.145 53.0195 214.145 53.9023V62H210.758V53.9023C210.758 53.3164 210.68 52.8711 210.523 52.5664C210.375 52.2539 210.156 52.0391 209.867 51.9219C209.586 51.7969 209.25 51.7344 208.859 51.7344C208.453 51.7344 208.098 51.8164 207.793 51.9805C207.488 52.1367 207.234 52.3555 207.031 52.6367C206.828 52.918 206.676 53.2461 206.574 53.6211C206.473 53.9883 206.422 54.3906 206.422 54.8281Z" fill="#888888"/>
<path d="M107.205 107.146H99.251V101.191H107.205C108.289 101.191 109.168 101.008 109.842 100.642C110.516 100.275 111.006 99.77 111.314 99.1255C111.636 98.4663 111.797 97.7266 111.797 96.9062C111.797 96.0273 111.636 95.2144 111.314 94.4673C111.006 93.7202 110.516 93.1196 109.842 92.6655C109.168 92.1968 108.289 91.9624 107.205 91.9624H102.151V118H94.439V86.0078H107.205C109.769 86.0078 111.973 86.4766 113.819 87.4141C115.679 88.3516 117.107 89.6406 118.104 91.2812C119.1 92.9072 119.598 94.7676 119.598 96.8623C119.598 98.9277 119.1 100.729 118.104 102.268C117.107 103.806 115.679 105.007 113.819 105.871C111.973 106.721 109.769 107.146 107.205 107.146ZM130.87 100.114V118H123.465V94.2256H130.386L130.87 100.114ZM137.901 94.0498L137.769 100.927C137.476 100.898 137.081 100.861 136.583 100.817C136.084 100.773 135.667 100.751 135.33 100.751C134.466 100.751 133.719 100.854 133.089 101.059C132.474 101.25 131.961 101.542 131.551 101.938C131.155 102.319 130.862 102.802 130.672 103.388C130.496 103.974 130.416 104.655 130.43 105.432L129.09 104.553C129.09 102.956 129.244 101.506 129.551 100.202C129.874 98.8838 130.328 97.7485 130.914 96.7964C131.5 95.8296 132.21 95.0898 133.045 94.5771C133.88 94.0498 134.817 93.7861 135.857 93.7861C136.224 93.7861 136.583 93.8081 136.934 93.8521C137.3 93.896 137.623 93.9619 137.901 94.0498ZM138.736 106.354V105.893C138.736 104.15 138.985 102.546 139.483 101.081C139.981 99.6016 140.713 98.3198 141.68 97.2358C142.647 96.1519 143.841 95.3096 145.262 94.709C146.683 94.0938 148.323 93.7861 150.184 93.7861C152.059 93.7861 153.707 94.0938 155.127 94.709C156.563 95.3096 157.764 96.1519 158.731 97.2358C159.698 98.3198 160.43 99.6016 160.928 101.081C161.426 102.546 161.675 104.15 161.675 105.893V106.354C161.675 108.083 161.426 109.687 160.928 111.167C160.43 112.631 159.698 113.913 158.731 115.012C157.764 116.096 156.57 116.938 155.149 117.539C153.729 118.139 152.088 118.439 150.228 118.439C148.367 118.439 146.719 118.139 145.284 117.539C143.848 116.938 142.647 116.096 141.68 115.012C140.713 113.913 139.981 112.631 139.483 111.167C138.985 109.687 138.736 108.083 138.736 106.354ZM146.141 105.893V106.354C146.141 107.248 146.207 108.083 146.338 108.859C146.47 109.636 146.69 110.317 146.998 110.903C147.305 111.474 147.723 111.921 148.25 112.243C148.777 112.565 149.437 112.727 150.228 112.727C151.004 112.727 151.648 112.565 152.161 112.243C152.688 111.921 153.106 111.474 153.414 110.903C153.721 110.317 153.941 109.636 154.073 108.859C154.205 108.083 154.271 107.248 154.271 106.354V105.893C154.271 105.029 154.205 104.216 154.073 103.454C153.941 102.678 153.721 101.997 153.414 101.411C153.106 100.81 152.688 100.341 152.161 100.004C151.634 99.6675 150.975 99.499 150.184 99.499C149.407 99.499 148.755 99.6675 148.228 100.004C147.715 100.341 147.305 100.81 146.998 101.411C146.69 101.997 146.47 102.678 146.338 103.454C146.207 104.216 146.141 105.029 146.141 105.893ZM177.496 94.2256V99.3672H163.169V94.2256H177.496ZM166.18 88.3149H173.584V110.244C173.584 110.874 173.658 111.364 173.804 111.716C173.951 112.053 174.2 112.294 174.551 112.441C174.917 112.573 175.401 112.639 176.001 112.639C176.426 112.639 176.778 112.631 177.056 112.617C177.334 112.587 177.598 112.551 177.847 112.507V117.802C177.217 118.007 176.558 118.161 175.87 118.264C175.181 118.381 174.449 118.439 173.672 118.439C172.09 118.439 170.735 118.19 169.607 117.692C168.494 117.194 167.645 116.411 167.059 115.341C166.473 114.272 166.18 112.88 166.18 111.167V88.3149ZM178.858 106.354V105.893C178.858 104.15 179.107 102.546 179.605 101.081C180.103 99.6016 180.835 98.3198 181.802 97.2358C182.769 96.1519 183.963 95.3096 185.384 94.709C186.805 94.0938 188.445 93.7861 190.306 93.7861C192.181 93.7861 193.829 94.0938 195.25 94.709C196.685 95.3096 197.886 96.1519 198.853 97.2358C199.82 98.3198 200.552 99.6016 201.05 101.081C201.548 102.546 201.797 104.15 201.797 105.893V106.354C201.797 108.083 201.548 109.687 201.05 111.167C200.552 112.631 199.82 113.913 198.853 115.012C197.886 116.096 196.692 116.938 195.271 117.539C193.851 118.139 192.21 118.439 190.35 118.439C188.489 118.439 186.841 118.139 185.406 117.539C183.97 116.938 182.769 116.096 181.802 115.012C180.835 113.913 180.103 112.631 179.605 111.167C179.107 109.687 178.858 108.083 178.858 106.354ZM186.263 105.893V106.354C186.263 107.248 186.329 108.083 186.46 108.859C186.592 109.636 186.812 110.317 187.12 110.903C187.427 111.474 187.845 111.921 188.372 112.243C188.899 112.565 189.559 112.727 190.35 112.727C191.126 112.727 191.771 112.565 192.283 112.243C192.811 111.921 193.228 111.474 193.536 110.903C193.843 110.317 194.063 109.636 194.195 108.859C194.327 108.083 194.393 107.248 194.393 106.354V105.893C194.393 105.029 194.327 104.216 194.195 103.454C194.063 102.678 193.843 101.997 193.536 101.411C193.228 100.81 192.811 100.341 192.283 100.004C191.756 99.6675 191.097 99.499 190.306 99.499C189.529 99.499 188.877 99.6675 188.35 100.004C187.837 100.341 187.427 100.81 187.12 101.411C186.812 101.997 186.592 102.678 186.46 103.454C186.329 104.216 186.263 105.029 186.263 105.893ZM217.618 94.2256V99.3672H203.292V94.2256H217.618ZM206.302 88.3149H213.707V110.244C213.707 110.874 213.78 111.364 213.926 111.716C214.073 112.053 214.322 112.294 214.673 112.441C215.04 112.573 215.523 112.639 216.124 112.639C216.548 112.639 216.9 112.631 217.178 112.617C217.457 112.587 217.72 112.551 217.969 112.507V117.802C217.339 118.007 216.68 118.161 215.992 118.264C215.303 118.381 214.571 118.439 213.794 118.439C212.212 118.439 210.857 118.19 209.729 117.692C208.616 117.194 207.767 116.411 207.181 115.341C206.595 114.272 206.302 112.88 206.302 111.167V88.3149ZM227.857 115.209L234.009 94.2256H241.963L232.405 121.538C232.2 122.138 231.929 122.783 231.592 123.471C231.255 124.174 230.794 124.841 230.208 125.471C229.622 126.101 228.868 126.613 227.945 127.009C227.037 127.404 225.909 127.602 224.561 127.602C223.843 127.602 223.316 127.565 222.979 127.492C222.657 127.434 222.159 127.324 221.485 127.163V121.867C221.675 121.867 221.836 121.867 221.968 121.867C222.115 121.867 222.276 121.867 222.452 121.867C223.243 121.867 223.873 121.787 224.341 121.625C224.825 121.464 225.191 121.23 225.44 120.922C225.704 120.615 225.909 120.241 226.055 119.802L227.857 115.209ZM226.297 94.2256L230.977 110.859L231.79 118.703H226.824L218.365 94.2256H226.297ZM251.368 98.7959V127.141H243.963V94.2256H250.862L251.368 98.7959ZM265.958 105.827V106.289C265.958 108.017 265.76 109.621 265.364 111.101C264.969 112.58 264.383 113.869 263.606 114.968C262.83 116.066 261.863 116.923 260.706 117.539C259.563 118.139 258.238 118.439 256.729 118.439C255.308 118.439 254.085 118.125 253.06 117.495C252.034 116.865 251.177 115.993 250.489 114.88C249.8 113.767 249.244 112.492 248.819 111.057C248.394 109.621 248.057 108.105 247.808 106.508V105.915C248.057 104.201 248.394 102.612 248.819 101.147C249.244 99.6675 249.8 98.3784 250.489 97.2798C251.177 96.1812 252.027 95.3242 253.038 94.709C254.063 94.0938 255.286 93.7861 256.707 93.7861C258.216 93.7861 259.542 94.0718 260.684 94.6431C261.841 95.2144 262.808 96.0347 263.584 97.104C264.375 98.1587 264.969 99.4258 265.364 100.905C265.76 102.385 265.958 104.025 265.958 105.827ZM258.553 106.289V105.827C258.553 104.904 258.487 104.062 258.355 103.3C258.223 102.524 258.011 101.85 257.718 101.279C257.439 100.708 257.066 100.268 256.597 99.9604C256.128 99.6528 255.55 99.499 254.861 99.499C254.07 99.499 253.404 99.6235 252.862 99.8726C252.334 100.107 251.91 100.473 251.587 100.971C251.28 101.455 251.06 102.062 250.928 102.795C250.811 103.513 250.76 104.355 250.774 105.322V107.124C250.745 108.237 250.855 109.218 251.104 110.068C251.353 110.903 251.785 111.555 252.4 112.023C253.016 112.492 253.851 112.727 254.905 112.727C255.608 112.727 256.194 112.565 256.663 112.243C257.132 111.906 257.505 111.445 257.784 110.859C258.062 110.258 258.26 109.57 258.377 108.793C258.494 108.017 258.553 107.182 258.553 106.289ZM277.076 94.2256V118H269.649V94.2256H277.076ZM269.209 88.0952C269.209 87.0405 269.59 86.1763 270.352 85.5024C271.114 84.8286 272.103 84.4917 273.318 84.4917C274.534 84.4917 275.523 84.8286 276.285 85.5024C277.046 86.1763 277.427 87.0405 277.427 88.0952C277.427 89.1499 277.046 90.0142 276.285 90.688C275.523 91.3618 274.534 91.6987 273.318 91.6987C272.103 91.6987 271.114 91.3618 270.352 90.688C269.59 90.0142 269.209 89.1499 269.209 88.0952ZM288.919 99.3013V118H281.514V94.2256H288.458L288.919 99.3013ZM288.04 105.3L286.304 105.344C286.304 103.527 286.524 101.909 286.963 100.488C287.403 99.0522 288.025 97.8364 288.831 96.8403C289.637 95.8442 290.596 95.0898 291.709 94.5771C292.837 94.0498 294.09 93.7861 295.467 93.7861C296.565 93.7861 297.569 93.9473 298.477 94.2695C299.4 94.5918 300.191 95.1118 300.85 95.8296C301.524 96.5474 302.037 97.4995 302.388 98.686C302.754 99.8579 302.938 101.308 302.938 103.037V118H295.489V103.015C295.489 102.062 295.357 101.337 295.093 100.839C294.83 100.327 294.449 99.9751 293.951 99.7847C293.453 99.5942 292.845 99.499 292.127 99.499C291.365 99.499 290.721 99.6455 290.193 99.9385C289.666 100.231 289.241 100.642 288.919 101.169C288.611 101.682 288.384 102.29 288.238 102.993C288.106 103.696 288.04 104.465 288.04 105.3ZM321.988 94.2256H328.711V117.077C328.711 119.274 328.206 121.135 327.195 122.658C326.185 124.196 324.771 125.361 322.955 126.152C321.153 126.958 319.043 127.36 316.626 127.36C315.557 127.36 314.466 127.221 313.353 126.943C312.239 126.679 311.199 126.284 310.232 125.756C309.266 125.229 308.453 124.577 307.793 123.801L310.892 119.45C311.492 120.124 312.247 120.695 313.155 121.164C314.063 121.647 315.132 121.889 316.363 121.889C317.432 121.889 318.326 121.699 319.043 121.318C319.776 120.937 320.333 120.38 320.713 119.648C321.094 118.93 321.285 118.059 321.285 117.033V99.8506L321.988 94.2256ZM306.189 106.398V105.937C306.189 104.135 306.409 102.495 306.849 101.015C307.303 99.521 307.947 98.2393 308.782 97.1699C309.632 96.0859 310.657 95.251 311.858 94.665C313.06 94.0791 314.415 93.7861 315.923 93.7861C317.549 93.7861 318.882 94.1011 319.922 94.731C320.977 95.3462 321.819 96.2104 322.449 97.3237C323.094 98.437 323.592 99.7407 323.943 101.235C324.31 102.714 324.617 104.311 324.866 106.025V106.574C324.617 108.186 324.273 109.709 323.833 111.145C323.409 112.565 322.852 113.825 322.164 114.924C321.475 116.022 320.611 116.887 319.571 117.517C318.545 118.132 317.315 118.439 315.879 118.439C314.385 118.439 313.038 118.139 311.836 117.539C310.65 116.938 309.632 116.096 308.782 115.012C307.947 113.928 307.303 112.653 306.849 111.188C306.409 109.724 306.189 108.127 306.189 106.398ZM313.594 105.937V106.398C313.594 107.292 313.675 108.12 313.836 108.881C314.012 109.643 314.275 110.317 314.627 110.903C314.979 111.474 315.411 111.921 315.923 112.243C316.451 112.565 317.066 112.727 317.769 112.727C318.838 112.727 319.703 112.5 320.362 112.045C321.021 111.591 321.497 110.947 321.79 110.112C322.083 109.277 322.208 108.295 322.164 107.167V105.432C322.193 104.465 322.127 103.615 321.966 102.883C321.805 102.136 321.548 101.513 321.197 101.015C320.86 100.517 320.406 100.144 319.834 99.8945C319.278 99.6309 318.604 99.499 317.813 99.499C317.125 99.499 316.517 99.6602 315.989 99.9824C315.462 100.305 315.022 100.759 314.671 101.345C314.319 101.916 314.048 102.597 313.858 103.388C313.682 104.165 313.594 105.014 313.594 105.937Z" fill="#424241"/>
<path d="M1363 15C1363 6.71573 1356.28 0 1348 0H1134V167H1348C1356.28 167 1363 160.284 1363 152V15Z" fill="#8293EE"/>
<path fill-rule="evenodd" clip-rule="evenodd" d="M1203 49C1203 47.8954 1203.9 47 1205 47H1292.5C1293.6 47 1294.5 47.8954 1294.5 49V118.996C1294.5 120.101 1293.6 120.996 1292.5 120.996H1205C1203.9 120.996 1203 120.101 1203 118.996V49ZM1207 51V55.4945H1290.5V51H1207ZM1290.5 59.4945H1235.44V116.996H1290.5V59.4945ZM1231.44 116.996V59.4945H1207V116.996H1231.44Z" fill="white"/>
<path fill-rule="evenodd" clip-rule="evenodd" d="M1209.97 64.8004C1209.97 63.6958 1210.87 62.8004 1211.97 62.8004H1225.97C1227.08 62.8004 1227.97 63.6958 1227.97 64.8004V84.1956C1227.97 85.3001 1227.08 86.1956 1225.97 86.1956H1211.97C1210.87 86.1956 1209.97 85.3001 1209.97 84.1956V64.8004ZM1213.97 66.8004V82.1956H1223.97V66.8004H1213.97ZM1239.58 65.6964C1239.58 64.5918 1240.47 63.6964 1241.58 63.6964H1284.5C1285.61 63.6964 1286.5 64.5918 1286.5 65.6964V111.905C1286.5 113.01 1285.61 113.905 1284.5 113.905H1241.58C1240.47 113.905 1239.58 113.01 1239.58 111.905V65.6964ZM1243.58 67.6964V109.905H1282.5V67.6964H1243.58ZM1209.81 95.9363C1209.81 94.8317 1210.71 93.9363 1211.81 93.9363H1220.73C1221.84 93.9363 1222.73 94.8317 1222.73 95.9363C1222.73 97.0409 1221.84 97.9363 1220.73 97.9363H1211.81C1210.71 97.9363 1209.81 97.0409 1209.81 95.9363ZM1209.81 102.936C1209.81 101.832 1210.71 100.936 1211.81 100.936H1226.35C1227.46 100.936 1228.35 101.832 1228.35 102.936C1228.35 104.041 1227.46 104.936 1226.35 104.936H1211.81C1210.71 104.936 1209.81 104.041 1209.81 102.936ZM1209.81 109.936C1209.81 108.832 1210.71 107.936 1211.81 107.936H1220.73C1221.84 107.936 1222.73 108.832 1222.73 109.936C1222.73 111.041 1221.84 111.936 1220.73 111.936H1211.81C1210.71 111.936 1209.81 111.041 1209.81 109.936Z" fill="white"/>
</svg>
